<ttFont>
    <TTGlyph name=".notdef" xMin="256" yMin="0" xMax="1280" yMax="1280">
      <contour>
        <pt x="256" y="0" on="1"/>
        <pt x="256" y="1280" on="1"/>
        <pt x="1280" y="1280" on="1"/>
        <pt x="1280" y="0" on="1"/>
      </contour>
      <contour>
        <pt x="288" y="32" on="1"/>
        <pt x="1248" y="32" on="1"/>
        <pt x="1248" y="1248" on="1"/>
        <pt x="288" y="1248" on="1"/>
      </contour>
    </TTGlyph>
    <TTGlyph name="ampersand" xMin="106" yMin="-47" xMax="1304" yMax="1452">
      <contour>
        <pt x="1009" y="684" on="1"/>
        <pt x="1173" y="684" on="1"/>
        <pt x="1173" y="492" on="0"/>
        <pt x="1054" y="309" on="1"/>
        <pt x="1304" y="0" on="1"/>
        <pt x="1081" y="0" on="1"/>
        <pt x="954" y="160" on="1"/>
        <pt x="854" y="61" on="0"/>
        <pt x="796" y="27" on="1"/>
        <pt x="681" y="-47" on="0"/>
        <pt x="526" y="-47" on="1"/>
        <pt x="288" y="-47" on="0"/>
        <pt x="174" y="121" on="1"/>
        <pt x="106" y="221" on="0"/>
        <pt x="106" y="360" on="1"/>
        <pt x="106" y="526" on="0"/>
        <pt x="212" y="635" on="1"/>
        <pt x="286" y="709" on="0"/>
        <pt x="438" y="797" on="1"/>
        <pt x="294" y="977" on="0"/>
        <pt x="276" y="1075" on="1"/>
        <pt x="272" y="1102" on="0"/>
        <pt x="272" y="1130" on="1"/>
        <pt x="272" y="1288" on="0"/>
        <pt x="405" y="1384" on="1"/>
        <pt x="499" y="1452" on="0"/>
        <pt x="622" y="1452" on="1"/>
        <pt x="806" y="1452" on="0"/>
        <pt x="901" y="1317" on="1"/>
        <pt x="931" y="1260" on="1"/>
        <pt x="950" y="1217" on="0"/>
        <pt x="954" y="1167" on="1"/>
        <pt x="956" y="1149" on="0"/>
        <pt x="956" y="1130" on="1"/>
        <pt x="956" y="989" on="0"/>
        <pt x="843" y="889" on="1"/>
        <pt x="784" y="836" on="0"/>
        <pt x="673" y="774" on="1"/>
        <pt x="946" y="440" on="1"/>
        <pt x="1009" y="552" on="0"/>
        <pt x="1009" y="676" on="1"/>
      </contour>
      <contour>
        <pt x="583" y="883" on="1"/>
        <pt x="749" y="987" on="0"/>
        <pt x="780" y="1063" on="1"/>
        <pt x="794" y="1094" on="0"/>
        <pt x="794" y="1135" on="1"/>
        <pt x="794" y="1241" on="0"/>
        <pt x="702" y="1288" on="1"/>
        <pt x="663" y="1309" on="0"/>
        <pt x="616" y="1309" on="1"/>
        <pt x="493" y="1309" on="0"/>
        <pt x="452" y="1206" on="1"/>
        <pt x="440" y="1174" on="0"/>
        <pt x="440" y="1133" on="1"/>
        <pt x="440" y="1065" on="0"/>
        <pt x="491" y="993" on="1"/>
      </contour>
      <contour>
        <pt x="856" y="281" on="1"/>
        <pt x="528" y="690" on="1"/>
        <pt x="335" y="567" on="0"/>
        <pt x="294" y="465" on="1"/>
        <pt x="278" y="424" on="0"/>
        <pt x="278" y="375" on="1"/>
        <pt x="278" y="242" on="0"/>
        <pt x="389" y="164" on="1"/>
        <pt x="460" y="113" on="0"/>
        <pt x="546" y="113" on="1"/>
        <pt x="684" y="113" on="0"/>
        <pt x="823" y="246" on="1"/>
        <pt x="839" y="262" on="0"/>
      </contour>
    </TTGlyph>
    <TTGlyph name="asterisk" xMin="450" yMin="903" xMax="1071" yMax="1493">
      <contour>
        <pt x="696" y="1493" on="1"/>
        <pt x="825" y="1493" on="1"/>
        <pt x="815" y="1264" on="1"/>
        <pt x="1032" y="1341" on="1"/>
        <pt x="1071" y="1221" on="1"/>
        <pt x="849" y="1159" on="1"/>
        <pt x="993" y="977" on="1"/>
        <pt x="888" y="903" on="1"/>
        <pt x="761" y="1094" on="1"/>
        <pt x="632" y="903" on="1"/>
        <pt x="530" y="977" on="1"/>
        <pt x="671" y="1159" on="1"/>
        <pt x="450" y="1221" on="1"/>
        <pt x="489" y="1341" on="1"/>
        <pt x="706" y="1264" on="1"/>
      </contour>
    </TTGlyph>
    <TTGlyph name="at" xMin="69" yMin="-290" xMax="1947" yMax="1518">
      <contour>
        <pt x="1361" y="1026" on="1"/>
        <pt x="1531" y="1026" on="1"/>
        <pt x="1347" y="453" on="1"/>
        <pt x="1322" y="381" on="0"/>
        <pt x="1322" y="350" on="1"/>
        <pt x="1322" y="295" on="0"/>
        <pt x="1382" y="268" on="1"/>
        <pt x="1402" y="260" on="0"/>
        <pt x="1425" y="260" on="1"/>
        <pt x="1556" y="260" on="0"/>
        <pt x="1664" y="408" on="1"/>
        <pt x="1769" y="553" on="0"/>
        <pt x="1769" y="731" on="1"/>
        <pt x="1769" y="977" on="0"/>
        <pt x="1570" y="1159" on="1"/>
        <pt x="1367" y="1348" on="0"/>
        <pt x="1079" y="1360" on="1"/>
        <pt x="1048" y="1360" on="1"/>
        <pt x="747" y="1360" on="0"/>
        <pt x="515" y="1151" on="1"/>
        <pt x="446" y="1081" on="1"/>
        <pt x="243" y="850" on="0"/>
        <pt x="243" y="559" on="1"/>
        <pt x="243" y="270" on="0"/>
        <pt x="458" y="72" on="1"/>
        <pt x="679" y="-133" on="0"/>
        <pt x="1011" y="-133" on="1"/>
        <pt x="1173" y="-133" on="0"/>
        <pt x="1406" y="-67" on="1"/>
        <pt x="1464" y="-204" on="1"/>
        <pt x="1234" y="-290" on="0"/>
        <pt x="1001" y="-290" on="1"/>
        <pt x="632" y="-290" on="0"/>
        <pt x="364" y="-71" on="1"/>
        <pt x="114" y="133" on="0"/>
        <pt x="75" y="434" on="1"/>
        <pt x="69" y="481" on="0"/>
        <pt x="69" y="528" on="1"/>
        <pt x="69" y="844" on="0"/>
        <pt x="264" y="1110" on="1"/>
        <pt x="321" y="1190" on="0"/>
        <pt x="393" y="1253" on="1"/>
        <pt x="614" y="1454" on="0"/>
        <pt x="923" y="1505" on="1"/>
        <pt x="999" y="1518" on="0"/>
        <pt x="1075" y="1518" on="1"/>
        <pt x="1415" y="1518" on="0"/>
        <pt x="1666" y="1311" on="1"/>
        <pt x="1904" y="1118" on="0"/>
        <pt x="1941" y="842" on="1"/>
        <pt x="1947" y="799" on="0"/>
        <pt x="1947" y="756" on="1"/>
        <pt x="1947" y="508" on="0"/>
        <pt x="1771" y="299" on="1"/>
        <pt x="1615" y="117" on="0"/>
        <pt x="1390" y="117" on="1"/>
        <pt x="1193" y="117" on="0"/>
        <pt x="1165" y="274" on="1"/>
        <pt x="1030" y="127" on="0"/>
        <pt x="874" y="127" on="1"/>
        <pt x="706" y="127" on="0"/>
        <pt x="610" y="268" on="1"/>
        <pt x="540" y="369" on="0"/>
        <pt x="540" y="502" on="1"/>
        <pt x="540" y="725" on="0"/>
        <pt x="702" y="897" on="1"/>
        <pt x="860" y="1067" on="0"/>
        <pt x="1066" y="1069" on="1"/>
        <pt x="1238" y="1069" on="0"/>
        <pt x="1316" y="891" on="1"/>
      </contour>
      <contour>
        <pt x="1054" y="938" on="1"/>
        <pt x="919" y="938" on="0"/>
        <pt x="817" y="793" on="1"/>
        <pt x="724" y="664" on="0"/>
        <pt x="724" y="500" on="1"/>
        <pt x="724" y="362" on="0"/>
        <pt x="821" y="293" on="1"/>
        <pt x="870" y="258" on="0"/>
        <pt x="927" y="258" on="1"/>
        <pt x="1046" y="258" on="0"/>
        <pt x="1136" y="391" on="1"/>
        <pt x="1204" y="489" on="0"/>
        <pt x="1236" y="662" on="1"/>
        <pt x="1245" y="707" on="0"/>
        <pt x="1247" y="741" on="1"/>
        <pt x="1247" y="755" on="1"/>
        <pt x="1247" y="856" on="0"/>
        <pt x="1163" y="909" on="1"/>
        <pt x="1113" y="938" on="0"/>
      </contour>
    </TTGlyph>
    <TTGlyph name="colon" xMin="225" yMin="0" xMax="438" yMax="1073">
      <contour>
        <pt x="438" y="213" on="1"/>
        <pt x="438" y="0" on="1"/>
        <pt x="225" y="0" on="1"/>
        <pt x="225" y="213" on="1"/>
      </contour>
      <contour>
        <pt x="438" y="1073" on="1"/>
        <pt x="438" y="860" on="1"/>
        <pt x="225" y="860" on="1"/>
        <pt x="225" y="1073" on="1"/>
      </contour>
    </TTGlyph>
    <TTGlyph name="comma" xMin="178" yMin="-301" xMax="393" yMax="213">
      <contour>
        <pt x="178" y="213" on="1"/>
        <pt x="393" y="213" on="1"/>
        <pt x="393" y="-32" on="1"/>
        <pt x="393" y="-301" on="0"/>
        <pt x="178" y="-301" on="1"/>
        <pt x="178" y="-223" on="1"/>
        <pt x="266" y="-219" on="0"/>
        <pt x="287" y="-155" on="1"/>
        <pt x="301" y="-116" on="0"/>
        <pt x="301" y="-36" on="1"/>
        <pt x="301" y="0" on="1"/>
        <pt x="178" y="0" on="1"/>
      </contour>
    </TTGlyph>
    <TTGlyph name="dollar" xMin="70" yMin="-258" xMax="1064" yMax="1577">
      <contour>
        <pt x="501" y="1577" on="1"/>
        <pt x="622" y="1577" on="1"/>
        <pt x="622" y="1466" on="1"/>
        <pt x="880" y="1448" on="0"/>
        <pt x="976" y="1257" on="1"/>
        <pt x="1015" y="1180" on="0"/>
        <pt x="1019" y="1083" on="1"/>
        <pt x="1019" y="1063" on="1"/>
        <pt x="858" y="1063" on="1"/>
        <pt x="856" y="1221" on="0"/>
        <pt x="739" y="1290" on="1"/>
        <pt x="698" y="1313" on="0"/>
        <pt x="649" y="1321" on="1"/>
        <pt x="636" y="1323" on="0"/>
        <pt x="622" y="1323" on="1"/>
        <pt x="622" y="813" on="1"/>
        <pt x="827" y="750" on="0"/>
        <pt x="890" y="715" on="1"/>
        <pt x="1064" y="616" on="0"/>
        <pt x="1064" y="399" on="1"/>
        <pt x="1064" y="186" on="0"/>
        <pt x="925" y="61" on="1"/>
        <pt x="903" y="41" on="0"/>
        <pt x="876" y="25" on="1"/>
        <pt x="776" y="-34" on="0"/>
        <pt x="622" y="-47" on="1"/>
        <pt x="622" y="-258" on="1"/>
        <pt x="501" y="-258" on="1"/>
        <pt x="501" y="-47" on="1"/>
        <pt x="186" y="-26" on="0"/>
        <pt x="98" y="213" on="1"/>
        <pt x="70" y="293" on="0"/>
        <pt x="70" y="390" on="1"/>
        <pt x="70" y="408" on="0"/>
        <pt x="71" y="426" on="1"/>
        <pt x="233" y="426" on="1"/>
        <pt x="247" y="274" on="0"/>
        <pt x="276" y="225" on="1"/>
        <pt x="280" y="219" on="0"/>
        <pt x="284" y="211" on="1"/>
        <pt x="356" y="113" on="0"/>
        <pt x="501" y="94" on="1"/>
        <pt x="501" y="651" on="1"/>
        <pt x="311" y="709" on="0"/>
        <pt x="243" y="758" on="1"/>
        <pt x="98" y="862" on="0"/>
        <pt x="98" y="1057" on="1"/>
        <pt x="98" y="1356" on="0"/>
        <pt x="384" y="1442" on="1"/>
        <pt x="438" y="1458" on="0"/>
        <pt x="501" y="1466" on="1"/>
      </contour>
      <contour>
        <pt x="501" y="829" on="1"/>
        <pt x="501" y="1321" on="1"/>
        <pt x="305" y="1294" on="0"/>
        <pt x="270" y="1139" on="1"/>
        <pt x="264" y="1110" on="0"/>
        <pt x="264" y="1077" on="1"/>
        <pt x="264" y="893" on="0"/>
      </contour>
      <contour>
        <pt x="622" y="633" on="1"/>
        <pt x="622" y="94" on="1"/>
        <pt x="747" y="109" on="0"/>
        <pt x="810" y="170" on="1"/>
        <pt x="896" y="252" on="0"/>
        <pt x="896" y="375" on="1"/>
        <pt x="896" y="500" on="0"/>
        <pt x="800" y="561" on="1"/>
        <pt x="741" y="598" on="0"/>
      </contour>
    </TTGlyph>
    <TTGlyph name="eight" xMin="74" yMin="0" xMax="1004" yMax="1500">
      <contour>
        <pt x="539" y="1350" on="1"/>
        <pt x="254" y="1350" on="0"/>
        <pt x="254" y="1100" on="1"/>
        <pt x="254" y="850" on="0"/>
        <pt x="539" y="850" on="1"/>
        <pt x="824" y="850" on="0"/>
        <pt x="824" y="1100" on="1"/>
        <pt x="824" y="1350" on="0"/>
      </contour>
      <contour>
        <pt x="539" y="700" on="1"/>
        <pt x="224" y="700" on="0"/>
        <pt x="224" y="425" on="1"/>
        <pt x="224" y="150" on="0"/>
        <pt x="539" y="150" on="1"/>
        <pt x="854" y="150" on="0"/>
        <pt x="854" y="425" on="1"/>
        <pt x="854" y="700" on="0"/>
      </contour>
      <contour>
        <pt x="237" y="780" on="1"/>
        <pt x="104" y="878" on="0"/>
        <pt x="104" y="1100" on="1"/>
        <pt x="104" y="1500" on="0"/>
        <pt x="539" y="1500" on="1"/>
        <pt x="974" y="1500" on="0"/>
        <pt x="974" y="1100" on="1"/>
        <pt x="974" y="878" on="0"/>
        <pt x="841" y="780" on="1"/>
        <pt x="1004" y="677" on="0"/>
        <pt x="1004" y="425" on="1"/>
        <pt x="1004" y="0" on="0"/>
        <pt x="539" y="0" on="1"/>
        <pt x="74" y="0" on="0"/>
        <pt x="74" y="425" on="1"/>
        <pt x="74" y="677" on="0"/>
      </contour>
    </TTGlyph>
    <TTGlyph name="equal" xMin="102" yMin="227" xMax="1093" yMax="723">
      <contour>
        <pt x="1093" y="723" on="1"/>
        <pt x="1093" y="580" on="1"/>
        <pt x="102" y="580" on="1"/>
        <pt x="102" y="723" on="1"/>
      </contour>
      <contour>
        <pt x="1093" y="371" on="1"/>
        <pt x="1093" y="227" on="1"/>
        <pt x="102" y="227" on="1"/>
        <pt x="102" y="371" on="1"/>
      </contour>
    </TTGlyph>
    <TTGlyph name="exclam" xMin="450" yMin="0" xMax="622" yMax="1493">
      <contour>
        <pt x="612" y="1493" on="1"/>
        <pt x="612" y="801" on="1"/>
        <pt x="572" y="344" on="1"/>
        <pt x="502" y="344" on="1"/>
        <pt x="462" y="801" on="1"/>
        <pt x="462" y="1493" on="1"/>
      </contour>
      <contour>
        <pt x="622" y="213" on="1"/>
        <pt x="622" y="0" on="1"/>
        <pt x="450" y="0" on="1"/>
        <pt x="450" y="213" on="1"/>
      </contour>
    </TTGlyph>
    <TTGlyph name="five" xMin="124" yMin="0" xMax="1039" yMax="1500">
      <contour>
        <pt x="1039" y="500" on="1"/>
        <pt x="1039" y="0" on="0"/>
        <pt x="602" y="0" on="1"/>
        <pt x="174" y="0" on="0"/>
        <pt x="124" y="397" on="1"/>
        <pt x="274" y="397" on="1"/>
        <pt x="324" y="150" on="0"/>
        <pt x="602" y="150" on="1"/>
        <pt x="889" y="150" on="0"/>
        <pt x="889" y="500" on="1"/>
        <pt x="889" y="850" on="0"/>
        <pt x="612" y="850" on="1"/>
        <pt x="410" y="850" on="0"/>
        <pt x="324" y="722" on="1"/>
        <pt x="179" y="722" on="1"/>
        <pt x="249" y="1500" on="1"/>
        <pt x="969" y="1500" on="1"/>
        <pt x="969" y="1350" on="1"/>
        <pt x="384" y="1350" on="1"/>
        <pt x="347" y="949" on="1"/>
        <pt x="454" y="1000" on="0"/>
        <pt x="612" y="1000" on="1"/>
        <pt x="1039" y="1000" on="0"/>
      </contour>
    </TTGlyph>
    <TTGlyph name="four" xMin="40" yMin="0" xMax="1040" yMax="1500">
      <contour>
        <pt x="698" y="1231" on="1"/>
        <pt x="221" y="519" on="1"/>
        <pt x="698" y="519" on="1"/>
      </contour>
      <contour>
        <pt x="698" y="1500" on="1"/>
        <pt x="848" y="1500" on="1"/>
        <pt x="848" y="519" on="1"/>
        <pt x="1040" y="519" on="1"/>
        <pt x="1040" y="369" on="1"/>
        <pt x="848" y="369" on="1"/>
        <pt x="848" y="0" on="1"/>
        <pt x="698" y="0" on="1"/>
        <pt x="698" y="369" on="1"/>
        <pt x="40" y="369" on="1"/>
        <pt x="40" y="519" on="1"/>
      </contour>
    </TTGlyph>
    <TTGlyph name="glyph139" xMin="-1049" yMin="-649" xMax="500" yMax="1500">
      <contour>
        <pt x="400" y="-460" on="1"/>
        <pt x="400" y="-519" on="0"/>
        <pt x="48" y="-649" on="0"/>
        <pt x="-1" y="-649" on="1"/>
        <pt x="-50" y="-649" on="0"/>
        <pt x="-158" y="-610" on="1"/>
        <pt x="-233" y="-584" on="0"/>
        <pt x="-285" y="-560" on="1"/>
        <pt x="-316" y="-574" on="0"/>
        <pt x="-356" y="-588" on="1"/>
        <pt x="-529" y="-649" on="0"/>
        <pt x="-578" y="-649" on="1"/>
        <pt x="-627" y="-649" on="0"/>
        <pt x="-735" y="-610" on="1"/>
        <pt x="-853" y="-569" on="0"/>
        <pt x="-913" y="-533" on="1"/>
        <pt x="-972" y="-498" on="0"/>
        <pt x="-1003" y="-441" on="1"/>
        <pt x="-972" y="-432" on="0"/>
        <pt x="-953" y="-408" on="0"/>
        <pt x="-953" y="-390" on="1"/>
        <pt x="-953" y="-246" on="1"/>
        <pt x="-813" y="-237" on="0"/>
        <pt x="-767" y="-203" on="1"/>
        <pt x="-722" y="-170" on="0"/>
        <pt x="-722" y="-158" on="1"/>
        <pt x="-722" y="-146" on="0"/>
        <pt x="-775" y="-120" on="0"/>
        <pt x="-809" y="-120" on="1"/>
        <pt x="-857" y="-120" on="0"/>
        <pt x="-857" y="-141" on="1"/>
        <pt x="-857" y="-168" on="0"/>
        <pt x="-799" y="-171" on="1"/>
        <pt x="-799" y="-172" on="1"/>
        <pt x="-799" y="-206" on="0"/>
        <pt x="-916" y="-206" on="1"/>
        <pt x="-923" y="-206" on="1"/>
        <pt x="-1049" y="-204" on="0"/>
        <pt x="-1049" y="-138" on="1"/>
        <pt x="-1049" y="-108" on="0"/>
        <pt x="-991" y="-78" on="1"/>
        <pt x="-934" y="-49" on="0"/>
        <pt x="-857" y="-49" on="1"/>
        <pt x="-741" y="-49" on="0"/>
        <pt x="-616" y="-102" on="0"/>
        <pt x="-616" y="-150" on="1"/>
        <pt x="-616" y="-198" on="0"/>
        <pt x="-655" y="-252" on="1"/>
        <pt x="-693" y="-306" on="0"/>
        <pt x="-761" y="-349" on="1"/>
        <pt x="-761" y="-402" on="1"/>
        <pt x="-761" y="-426" on="0"/>
        <pt x="-780" y="-439" on="1"/>
        <pt x="-780" y="-459" on="0"/>
        <pt x="-641" y="-506" on="1"/>
        <pt x="-497" y="-554" on="0"/>
        <pt x="-461" y="-554" on="1"/>
        <pt x="-424" y="-554" on="0"/>
        <pt x="-401" y="-545" on="1"/>
        <pt x="-376" y="-537" on="0"/>
        <pt x="-376" y="-468" on="1"/>
        <pt x="-376" y="-372" on="1"/>
        <pt x="-376" y="-336" on="0"/>
        <pt x="-513" y="-324" on="1"/>
        <pt x="-559" y="-320" on="0"/>
        <pt x="-559" y="-296" on="1"/>
        <pt x="-559" y="-272" on="0"/>
        <pt x="-535" y="-237" on="1"/>
        <pt x="-405" y="-49" on="1"/>
        <pt x="-117" y="-49" on="1"/>
        <pt x="-117" y="-121" on="0"/>
        <pt x="-139" y="-164" on="0"/>
        <pt x="-199" y="-204" on="1"/>
        <pt x="-197" y="-198" on="0"/>
        <pt x="-197" y="-193" on="1"/>
        <pt x="-197" y="-168" on="0"/>
        <pt x="-261" y="-168" on="1"/>
        <pt x="-389" y="-168" on="1"/>
        <pt x="-426" y="-212" on="1"/>
        <pt x="-305" y="-225" on="0"/>
        <pt x="-245" y="-256" on="1"/>
        <pt x="-184" y="-286" on="0"/>
        <pt x="-184" y="-334" on="1"/>
        <pt x="-184" y="-457" on="1"/>
        <pt x="-151" y="-477" on="0"/>
        <pt x="-65" y="-506" on="1"/>
        <pt x="79" y="-554" on="0"/>
        <pt x="116" y="-554" on="1"/>
        <pt x="152" y="-554" on="0"/>
        <pt x="176" y="-545" on="1"/>
        <pt x="200" y="-537" on="0"/>
        <pt x="200" y="-468" on="1"/>
        <pt x="200" y="860" on="1"/>
        <pt x="200" y="920" on="0"/>
        <pt x="58" y="940" on="1"/>
        <pt x="10" y="946" on="0"/>
        <pt x="10" y="986" on="1"/>
        <pt x="10" y="1026" on="0"/>
        <pt x="35" y="1086" on="1"/>
        <pt x="200" y="1500" on="1"/>
        <pt x="500" y="1500" on="1"/>
        <pt x="500" y="1378" on="0"/>
        <pt x="474" y="1293" on="1"/>
        <pt x="447" y="1207" on="0"/>
        <pt x="384" y="1170" on="1"/>
        <pt x="400" y="1231" on="0"/>
        <pt x="400" y="1266" on="1"/>
        <pt x="400" y="1300" on="0"/>
        <pt x="350" y="1300" on="1"/>
        <pt x="217" y="1300" on="1"/>
        <pt x="148" y="1127" on="1"/>
        <pt x="274" y="1104" on="0"/>
        <pt x="337" y="1053" on="1"/>
        <pt x="400" y="1003" on="0"/>
        <pt x="400" y="924" on="1"/>
      </contour>
    </TTGlyph>
    <TTGlyph name="glyph144" xMin="-1200" yMin="-650" xMax="500" yMax="1500">
      <contour>
        <pt x="-925" y="-536" on="1"/>
        <pt x="-859" y="-508" on="0"/>
        <pt x="-859" y="-481" on="1"/>
        <pt x="-859" y="-458" on="0"/>
        <pt x="-889" y="-458" on="1"/>
        <pt x="-925" y="-458" on="1"/>
      </contour>
      <contour>
        <pt x="400" y="-392" on="1"/>
        <pt x="400" y="-540" on="0"/>
        <pt x="255" y="-595" on="1"/>
        <pt x="111" y="-650" on="0"/>
        <pt x="72" y="-650" on="1"/>
        <pt x="36" y="-650" on="0"/>
        <pt x="-46" y="-614" on="1"/>
        <pt x="-104" y="-590" on="0"/>
        <pt x="-145" y="-569" on="1"/>
        <pt x="-168" y="-582" on="0"/>
        <pt x="-198" y="-595" on="1"/>
        <pt x="-332" y="-650" on="0"/>
        <pt x="-370" y="-650" on="1"/>
        <pt x="-407" y="-650" on="0"/>
        <pt x="-490" y="-614" on="1"/>
        <pt x="-580" y="-578" on="0"/>
        <pt x="-626" y="-545" on="1"/>
        <pt x="-672" y="-512" on="0"/>
        <pt x="-696" y="-461" on="1"/>
        <pt x="-672" y="-453" on="0"/>
        <pt x="-657" y="-431" on="0"/>
        <pt x="-657" y="-415" on="1"/>
        <pt x="-657" y="-158" on="1"/>
        <pt x="-1076" y="-158" on="1"/>
        <pt x="-1096" y="-204" on="1"/>
        <pt x="-1018" y="-216" on="0"/>
        <pt x="-972" y="-243" on="1"/>
        <pt x="-925" y="-272" on="0"/>
        <pt x="-925" y="-314" on="1"/>
        <pt x="-925" y="-376" on="1"/>
        <pt x="-889" y="-376" on="1"/>
        <pt x="-778" y="-376" on="0"/>
        <pt x="-778" y="-458" on="1"/>
        <pt x="-778" y="-542" on="0"/>
        <pt x="-965" y="-650" on="1"/>
        <pt x="-1073" y="-577" on="1"/>
        <pt x="-1073" y="-350" on="1"/>
        <pt x="-1073" y="-316" on="0"/>
        <pt x="-1163" y="-306" on="1"/>
        <pt x="-1200" y="-302" on="0"/>
        <pt x="-1200" y="-280" on="1"/>
        <pt x="-1200" y="-259" on="0"/>
        <pt x="-1180" y="-226" on="1"/>
        <pt x="-1087" y="-50" on="1"/>
        <pt x="-510" y="-50" on="1"/>
        <pt x="-510" y="-426" on="1"/>
        <pt x="-510" y="-447" on="0"/>
        <pt x="-524" y="-458" on="1"/>
        <pt x="-524" y="-476" on="0"/>
        <pt x="-418" y="-520" on="1"/>
        <pt x="-307" y="-564" on="0"/>
        <pt x="-279" y="-564" on="1"/>
        <pt x="-251" y="-564" on="0"/>
        <pt x="-233" y="-555" on="1"/>
        <pt x="-214" y="-548" on="0"/>
        <pt x="-214" y="-486" on="1"/>
        <pt x="-214" y="-371" on="1"/>
        <pt x="-214" y="-338" on="0"/>
        <pt x="-319" y="-327" on="1"/>
        <pt x="-355" y="-324" on="0"/>
        <pt x="-355" y="-302" on="1"/>
        <pt x="-355" y="-280" on="0"/>
        <pt x="-335" y="-248" on="1"/>
        <pt x="-237" y="-50" on="1"/>
        <pt x="-14" y="-50" on="1"/>
        <pt x="-14" y="-116" on="0"/>
        <pt x="-34" y="-162" on="1"/>
        <pt x="-52" y="-203" on="0"/>
        <pt x="-67" y="-203" on="1"/>
        <pt x="-69" y="-203" on="0"/>
        <pt x="-71" y="-202" on="1"/>
        <pt x="-89" y="-196" on="0"/>
        <pt x="-89" y="-176" on="1"/>
        <pt x="-89" y="-158" on="0"/>
        <pt x="-126" y="-158" on="1"/>
        <pt x="-223" y="-158" on="1"/>
        <pt x="-252" y="-225" on="1"/>
        <pt x="-159" y="-238" on="0"/>
        <pt x="-113" y="-266" on="1"/>
        <pt x="-66" y="-293" on="0"/>
        <pt x="-66" y="-336" on="1"/>
        <pt x="-66" y="-476" on="1"/>
        <pt x="-42" y="-494" on="0"/>
        <pt x="25" y="-520" on="1"/>
        <pt x="135" y="-564" on="0"/>
        <pt x="162" y="-564" on="1"/>
        <pt x="200" y="-564" on="0"/>
        <pt x="200" y="-435" on="1"/>
        <pt x="200" y="860" on="1"/>
        <pt x="200" y="920" on="0"/>
        <pt x="58" y="940" on="1"/>
        <pt x="10" y="946" on="0"/>
        <pt x="10" y="986" on="1"/>
        <pt x="10" y="1026" on="0"/>
        <pt x="35" y="1086" on="1"/>
        <pt x="200" y="1500" on="1"/>
        <pt x="500" y="1500" on="1"/>
        <pt x="500" y="1378" on="0"/>
        <pt x="474" y="1293" on="1"/>
        <pt x="447" y="1207" on="0"/>
        <pt x="384" y="1170" on="1"/>
        <pt x="400" y="1231" on="0"/>
        <pt x="400" y="1266" on="1"/>
        <pt x="400" y="1300" on="0"/>
        <pt x="350" y="1300" on="1"/>
        <pt x="217" y="1300" on="1"/>
        <pt x="148" y="1127" on="1"/>
        <pt x="274" y="1104" on="0"/>
        <pt x="337" y="1053" on="1"/>
        <pt x="400" y="1003" on="0"/>
        <pt x="400" y="924" on="1"/>
      </contour>
    </TTGlyph>
    <TTGlyph name="glyph146" xMin="-1600" yMin="-680" xMax="-200" yMax="-80">
      <contour>
        <pt x="-1270" y="-432" on="1"/>
        <pt x="-1189" y="-399" on="0"/>
        <pt x="-1189" y="-376" on="1"/>
        <pt x="-1189" y="-361" on="0"/>
        <pt x="-1225" y="-361" on="1"/>
        <pt x="-1270" y="-361" on="1"/>
      </contour>
      <contour>
        <pt x="-1448" y="-305" on="1"/>
        <pt x="-1448" y="-282" on="0"/>
        <pt x="-1557" y="-275" on="1"/>
        <pt x="-1600" y="-272" on="0"/>
        <pt x="-1600" y="-257" on="1"/>
        <pt x="-1600" y="-242" on="0"/>
        <pt x="-1577" y="-220" on="1"/>
        <pt x="-1448" y="-80" on="1"/>
        <pt x="-1180" y="-80" on="1"/>
        <pt x="-1118" y="-80" on="0"/>
        <pt x="-1118" y="-128" on="1"/>
        <pt x="-1051" y="-80" on="0"/>
        <pt x="-975" y="-80" on="1"/>
        <pt x="-735" y="-80" on="1"/>
        <pt x="-735" y="-155" on="1"/>
        <pt x="-605" y="-80" on="0"/>
        <pt x="-458" y="-80" on="1"/>
        <pt x="-200" y="-80" on="1"/>
        <pt x="-200" y="-455" on="1"/>
        <pt x="-300" y="-497" on="1"/>
        <pt x="-333" y="-511" on="0"/>
        <pt x="-356" y="-511" on="1"/>
        <pt x="-378" y="-511" on="0"/>
        <pt x="-378" y="-496" on="1"/>
        <pt x="-378" y="-155" on="1"/>
        <pt x="-485" y="-155" on="1"/>
        <pt x="-630" y="-155" on="0"/>
        <pt x="-735" y="-211" on="1"/>
        <pt x="-735" y="-455" on="1"/>
        <pt x="-834" y="-497" on="1"/>
        <pt x="-868" y="-511" on="0"/>
        <pt x="-891" y="-511" on="1"/>
        <pt x="-913" y="-511" on="0"/>
        <pt x="-913" y="-496" on="1"/>
        <pt x="-913" y="-155" on="1"/>
        <pt x="-1002" y="-155" on="1"/>
        <pt x="-1081" y="-155" on="0"/>
        <pt x="-1188" y="-215" on="1"/>
        <pt x="-1181" y="-200" on="1"/>
        <pt x="-1176" y="-189" on="0"/>
        <pt x="-1176" y="-180" on="1"/>
        <pt x="-1176" y="-155" on="0"/>
        <pt x="-1216" y="-155" on="1"/>
        <pt x="-1433" y="-155" on="1"/>
        <pt x="-1476" y="-204" on="1"/>
        <pt x="-1382" y="-213" on="0"/>
        <pt x="-1326" y="-232" on="1"/>
        <pt x="-1270" y="-251" on="0"/>
        <pt x="-1270" y="-281" on="1"/>
        <pt x="-1270" y="-305" on="1"/>
        <pt x="-1225" y="-305" on="1"/>
        <pt x="-1091" y="-305" on="0"/>
        <pt x="-1091" y="-361" on="1"/>
        <pt x="-1091" y="-417" on="0"/>
        <pt x="-1208" y="-466" on="1"/>
        <pt x="-1319" y="-512" on="1"/>
        <pt x="-1448" y="-473" on="1"/>
      </contour>
      <contour>
        <pt x="-1456" y="-641" on="1"/>
        <pt x="-1466" y="-636" on="0"/>
        <pt x="-1466" y="-629" on="1"/>
        <pt x="-1466" y="-610" on="0"/>
        <pt x="-1397" y="-576" on="1"/>
        <pt x="-1303" y="-530" on="0"/>
        <pt x="-1145" y="-530" on="1"/>
        <pt x="-987" y="-530" on="0"/>
        <pt x="-754" y="-586" on="1"/>
        <pt x="-521" y="-642" on="0"/>
        <pt x="-427" y="-642" on="1"/>
        <pt x="-333" y="-642" on="0"/>
        <pt x="-333" y="-625" on="1"/>
        <pt x="-333" y="-608" on="0"/>
        <pt x="-369" y="-593" on="1"/>
        <pt x="-405" y="-578" on="0"/>
        <pt x="-494" y="-578" on="1"/>
        <pt x="-360" y="-522" on="1"/>
        <pt x="-200" y="-545" on="0"/>
        <pt x="-200" y="-590" on="1"/>
        <pt x="-200" y="-635" on="0"/>
        <pt x="-256" y="-657" on="1"/>
        <pt x="-313" y="-680" on="0"/>
        <pt x="-426" y="-680" on="1"/>
        <pt x="-724" y="-680" on="0"/>
        <pt x="-917" y="-633" on="1"/>
        <pt x="-1166" y="-575" on="0"/>
        <pt x="-1222" y="-575" on="1"/>
        <pt x="-1314" y="-575" on="0"/>
        <pt x="-1385" y="-608" on="1"/>
      </contour>
    </TTGlyph>
    <TTGlyph name="glyph150" xMin="-1000" yMin="-651" xMax="500" yMax="1500">
      <contour>
        <pt x="-334" y="-450" on="1"/>
        <pt x="-382" y="-472" on="1"/>
        <pt x="-334" y="-505" on="1"/>
      </contour>
      <contour>
        <pt x="-704" y="-530" on="1"/>
        <pt x="-633" y="-484" on="0"/>
        <pt x="-633" y="-457" on="1"/>
        <pt x="-633" y="-441" on="0"/>
        <pt x="-667" y="-441" on="1"/>
        <pt x="-704" y="-441" on="1"/>
      </contour>
      <contour>
        <pt x="400" y="-436" on="1"/>
        <pt x="400" y="-522" on="0"/>
        <pt x="282" y="-651" on="0"/>
        <pt x="164" y="-651" on="1"/>
        <pt x="66" y="-651" on="0"/>
        <pt x="16" y="-604" on="1"/>
        <pt x="-33" y="-559" on="0"/>
        <pt x="-33" y="-520" on="1"/>
        <pt x="-33" y="-481" on="0"/>
        <pt x="-62" y="-461" on="1"/>
        <pt x="-93" y="-441" on="0"/>
        <pt x="-152" y="-441" on="1"/>
        <pt x="-152" y="-572" on="1"/>
        <pt x="-245" y="-651" on="1"/>
        <pt x="-349" y="-651" on="1"/>
        <pt x="-369" y="-622" on="0"/>
        <pt x="-424" y="-593" on="1"/>
        <pt x="-511" y="-546" on="0"/>
        <pt x="-511" y="-493" on="1"/>
        <pt x="-511" y="-468" on="0"/>
        <pt x="-465" y="-451" on="1"/>
        <pt x="-336" y="-400" on="1"/>
        <pt x="-336" y="-154" on="1"/>
        <pt x="-428" y="-154" on="1"/>
        <pt x="-510" y="-154" on="0"/>
        <pt x="-620" y="-239" on="1"/>
        <pt x="-613" y="-218" on="1"/>
        <pt x="-608" y="-202" on="0"/>
        <pt x="-608" y="-189" on="1"/>
        <pt x="-608" y="-154" on="0"/>
        <pt x="-649" y="-154" on="1"/>
        <pt x="-891" y="-154" on="1"/>
        <pt x="-918" y="-198" on="1"/>
        <pt x="-820" y="-209" on="0"/>
        <pt x="-762" y="-236" on="1"/>
        <pt x="-704" y="-263" on="0"/>
        <pt x="-704" y="-304" on="1"/>
        <pt x="-704" y="-363" on="1"/>
        <pt x="-667" y="-363" on="1"/>
        <pt x="-598" y="-363" on="0"/>
        <pt x="-564" y="-380" on="1"/>
        <pt x="-529" y="-397" on="0"/>
        <pt x="-529" y="-431" on="1"/>
        <pt x="-529" y="-493" on="0"/>
        <pt x="-646" y="-572" on="1"/>
        <pt x="-765" y="-651" on="1"/>
        <pt x="-793" y="-651" on="1"/>
        <pt x="-888" y="-597" on="1"/>
        <pt x="-888" y="-337" on="1"/>
        <pt x="-888" y="-305" on="0"/>
        <pt x="-999" y="-295" on="1"/>
        <pt x="-1000" y="-187" on="1"/>
        <pt x="-907" y="-51" on="1"/>
        <pt x="-612" y="-51" on="1"/>
        <pt x="-548" y="-51" on="0"/>
        <pt x="-548" y="-118" on="1"/>
        <pt x="-479" y="-51" on="0"/>
        <pt x="-401" y="-51" on="1"/>
        <pt x="-152" y="-51" on="1"/>
        <pt x="-152" y="-390" on="1"/>
        <pt x="-25" y="-390" on="0"/>
        <pt x="37" y="-421" on="1"/>
        <pt x="100" y="-455" on="0"/>
        <pt x="100" y="-503" on="1"/>
        <pt x="100" y="-546" on="0"/>
        <pt x="150" y="-546" on="1"/>
        <pt x="200" y="-546" on="0"/>
        <pt x="200" y="-479" on="1"/>
        <pt x="200" y="860" on="1"/>
        <pt x="200" y="920" on="0"/>
        <pt x="58" y="940" on="1"/>
        <pt x="10" y="946" on="0"/>
        <pt x="10" y="986" on="1"/>
        <pt x="10" y="1026" on="0"/>
        <pt x="35" y="1086" on="1"/>
        <pt x="200" y="1500" on="1"/>
        <pt x="500" y="1500" on="1"/>
        <pt x="500" y="1378" on="0"/>
        <pt x="474" y="1293" on="1"/>
        <pt x="447" y="1207" on="0"/>
        <pt x="384" y="1170" on="1"/>
        <pt x="400" y="1231" on="0"/>
        <pt x="400" y="1266" on="1"/>
        <pt x="400" y="1300" on="0"/>
        <pt x="350" y="1300" on="1"/>
        <pt x="217" y="1300" on="1"/>
        <pt x="148" y="1127" on="1"/>
        <pt x="274" y="1104" on="0"/>
        <pt x="337" y="1053" on="1"/>
        <pt x="400" y="1003" on="0"/>
        <pt x="400" y="924" on="1"/>
      </contour>
    </TTGlyph>
    <TTGlyph name="glyph157" xMin="-400" yMin="-650" xMax="500" yMax="1500">
      <contour>
        <pt x="-200" y="-246" on="1"/>
        <pt x="-150" y="-220" on="0"/>
        <pt x="-150" y="-177" on="1"/>
        <pt x="-150" y="-151" on="0"/>
        <pt x="-169" y="-151" on="1"/>
        <pt x="-181" y="-151" on="0"/>
        <pt x="-200" y="-161" on="1"/>
      </contour>
      <contour>
        <pt x="400" y="-548" on="1"/>
        <pt x="247" y="-650" on="1"/>
        <pt x="120" y="-650" on="1"/>
        <pt x="-74" y="-468" on="1"/>
        <pt x="-269" y="-650" on="1"/>
        <pt x="-294" y="-650" on="1"/>
        <pt x="-400" y="-568" on="1"/>
        <pt x="-400" y="-210" on="1"/>
        <pt x="-400" y="-170" on="0"/>
        <pt x="-299" y="-110" on="1"/>
        <pt x="-198" y="-50" on="0"/>
        <pt x="-129" y="-50" on="1"/>
        <pt x="-64" y="-50" on="0"/>
        <pt x="-32" y="-78" on="1"/>
        <pt x="0" y="-107" on="0"/>
        <pt x="0" y="-166" on="1"/>
        <pt x="0" y="-207" on="0"/>
        <pt x="-50" y="-248" on="1"/>
        <pt x="-100" y="-290" on="0"/>
        <pt x="-200" y="-330" on="1"/>
        <pt x="-200" y="-482" on="1"/>
        <pt x="0" y="-291" on="1"/>
        <pt x="200" y="-482" on="1"/>
        <pt x="200" y="860" on="1"/>
        <pt x="200" y="920" on="0"/>
        <pt x="58" y="940" on="1"/>
        <pt x="10" y="946" on="0"/>
        <pt x="10" y="986" on="1"/>
        <pt x="10" y="1026" on="0"/>
        <pt x="35" y="1086" on="1"/>
        <pt x="200" y="1500" on="1"/>
        <pt x="500" y="1500" on="1"/>
        <pt x="500" y="1378" on="0"/>
        <pt x="474" y="1293" on="1"/>
        <pt x="447" y="1207" on="0"/>
        <pt x="384" y="1170" on="1"/>
        <pt x="400" y="1231" on="0"/>
        <pt x="400" y="1266" on="1"/>
        <pt x="400" y="1300" on="0"/>
        <pt x="350" y="1300" on="1"/>
        <pt x="217" y="1300" on="1"/>
        <pt x="148" y="1127" on="1"/>
        <pt x="274" y="1104" on="0"/>
        <pt x="337" y="1053" on="1"/>
        <pt x="400" y="1003" on="0"/>
        <pt x="400" y="924" on="1"/>
      </contour>
    </TTGlyph>
    <TTGlyph name="glyph162" xMin="-400" yMin="-650" xMax="500" yMax="1500">
      <contour>
        <pt x="-200" y="-246" on="1"/>
        <pt x="-150" y="-220" on="0"/>
        <pt x="-150" y="-177" on="1"/>
        <pt x="-150" y="-151" on="0"/>
        <pt x="-169" y="-151" on="1"/>
        <pt x="-181" y="-151" on="0"/>
        <pt x="-200" y="-161" on="1"/>
      </contour>
      <contour>
        <pt x="200" y="860" on="1"/>
        <pt x="200" y="920" on="0"/>
        <pt x="58" y="940" on="1"/>
        <pt x="10" y="946" on="0"/>
        <pt x="10" y="986" on="1"/>
        <pt x="10" y="1026" on="0"/>
        <pt x="35" y="1086" on="1"/>
        <pt x="200" y="1500" on="1"/>
        <pt x="500" y="1500" on="1"/>
        <pt x="500" y="1378" on="0"/>
        <pt x="474" y="1293" on="1"/>
        <pt x="447" y="1207" on="0"/>
        <pt x="384" y="1170" on="1"/>
        <pt x="400" y="1231" on="0"/>
        <pt x="400" y="1266" on="1"/>
        <pt x="400" y="1300" on="0"/>
        <pt x="350" y="1300" on="1"/>
        <pt x="217" y="1300" on="1"/>
        <pt x="148" y="1127" on="1"/>
        <pt x="274" y="1104" on="0"/>
        <pt x="337" y="1053" on="1"/>
        <pt x="400" y="1003" on="0"/>
        <pt x="400" y="924" on="1"/>
        <pt x="400" y="-410" on="1"/>
        <pt x="400" y="-490" on="0"/>
        <pt x="225" y="-570" on="1"/>
        <pt x="50" y="-650" on="0"/>
        <pt x="0" y="-650" on="1"/>
        <pt x="-50" y="-650" on="0"/>
        <pt x="-159" y="-599" on="1"/>
        <pt x="-400" y="-490" on="0"/>
        <pt x="-400" y="-410" on="1"/>
        <pt x="-400" y="-210" on="1"/>
        <pt x="-400" y="-170" on="0"/>
        <pt x="-299" y="-110" on="1"/>
        <pt x="-198" y="-50" on="0"/>
        <pt x="-129" y="-50" on="1"/>
        <pt x="-64" y="-50" on="0"/>
        <pt x="-32" y="-78" on="1"/>
        <pt x="0" y="-107" on="0"/>
        <pt x="0" y="-166" on="1"/>
        <pt x="0" y="-207" on="0"/>
        <pt x="-50" y="-248" on="1"/>
        <pt x="-100" y="-290" on="0"/>
        <pt x="-200" y="-330" on="1"/>
        <pt x="-200" y="-370" on="1"/>
        <pt x="-200" y="-397" on="0"/>
        <pt x="-62" y="-461" on="1"/>
        <pt x="77" y="-524" on="0"/>
        <pt x="114" y="-524" on="1"/>
        <pt x="151" y="-524" on="0"/>
        <pt x="175" y="-512" on="1"/>
        <pt x="200" y="-501" on="0"/>
        <pt x="200" y="-410" on="1"/>
      </contour>
    </TTGlyph>
    <TTGlyph name="glyph166" xMin="-560" yMin="-650" xMax="575" yMax="1500">
      <contour>
        <pt x="-400" y="-260" on="1"/>
        <pt x="-400" y="-220" on="1"/>
        <pt x="-442" y="-246" on="0"/>
        <pt x="-442" y="-260" on="1"/>
        <pt x="-442" y="-263" on="0"/>
        <pt x="-440" y="-265" on="1"/>
        <pt x="-436" y="-270" on="0"/>
        <pt x="-428" y="-270" on="1"/>
        <pt x="-417" y="-270" on="0"/>
      </contour>
      <contour>
        <pt x="400" y="-392" on="1"/>
        <pt x="400" y="-478" on="0"/>
        <pt x="225" y="-564" on="1"/>
        <pt x="50" y="-650" on="0"/>
        <pt x="0" y="-650" on="1"/>
        <pt x="-50" y="-650" on="0"/>
        <pt x="-159" y="-596" on="1"/>
        <pt x="-400" y="-478" on="0"/>
        <pt x="-400" y="-392" on="1"/>
        <pt x="-400" y="-341" on="1"/>
        <pt x="-429" y="-354" on="0"/>
        <pt x="-455" y="-354" on="1"/>
        <pt x="-485" y="-354" on="0"/>
        <pt x="-511" y="-337" on="1"/>
        <pt x="-560" y="-307" on="0"/>
        <pt x="-560" y="-264" on="1"/>
        <pt x="-560" y="-221" on="0"/>
        <pt x="-470" y="-135" on="1"/>
        <pt x="-380" y="-50" on="0"/>
        <pt x="-320" y="-50" on="1"/>
        <pt x="-261" y="-50" on="0"/>
        <pt x="-200" y="-101" on="1"/>
        <pt x="-200" y="-350" on="1"/>
        <pt x="-200" y="-379" on="0"/>
        <pt x="-62" y="-447" on="1"/>
        <pt x="77" y="-515" on="0"/>
        <pt x="114" y="-515" on="1"/>
        <pt x="151" y="-515" on="0"/>
        <pt x="175" y="-502" on="1"/>
        <pt x="200" y="-490" on="0"/>
        <pt x="200" y="-392" on="1"/>
        <pt x="200" y="5" on="1"/>
        <pt x="123" y="15" on="0"/>
        <pt x="30" y="46" on="1"/>
        <pt x="142" y="259" on="1"/>
        <pt x="171" y="232" on="0"/>
        <pt x="200" y="211" on="1"/>
        <pt x="200" y="860" on="1"/>
        <pt x="200" y="920" on="0"/>
        <pt x="58" y="940" on="1"/>
        <pt x="10" y="946" on="0"/>
        <pt x="10" y="986" on="1"/>
        <pt x="10" y="1026" on="0"/>
        <pt x="35" y="1086" on="1"/>
        <pt x="200" y="1500" on="1"/>
        <pt x="500" y="1500" on="1"/>
        <pt x="500" y="1378" on="0"/>
        <pt x="474" y="1293" on="1"/>
        <pt x="447" y="1207" on="0"/>
        <pt x="384" y="1170" on="1"/>
        <pt x="400" y="1231" on="0"/>
        <pt x="400" y="1266" on="1"/>
        <pt x="400" y="1300" on="0"/>
        <pt x="350" y="1300" on="1"/>
        <pt x="217" y="1300" on="1"/>
        <pt x="148" y="1127" on="1"/>
        <pt x="274" y="1104" on="0"/>
        <pt x="337" y="1053" on="1"/>
        <pt x="400" y="1003" on="0"/>
        <pt x="400" y="924" on="1"/>
        <pt x="400" y="126" on="1"/>
        <pt x="422" y="124" on="0"/>
        <pt x="446" y="124" on="1"/>
        <pt x="503" y="124" on="0"/>
        <pt x="575" y="136" on="1"/>
        <pt x="482" y="57" on="0"/>
        <pt x="400" y="24" on="1"/>
      </contour>
    </TTGlyph>
    <TTGlyph name="glyph169" xMin="-400" yMin="-1200" xMax="-200" yMax="-650">
      <contour>
        <pt x="-200" y="-1052" on="1"/>
        <pt x="-400" y="-1200" on="1"/>
        <pt x="-400" y="-796" on="1"/>
        <pt x="-200" y="-650" on="1"/>
      </contour>
    </TTGlyph>
    <TTGlyph name="glyph170" xMin="-840" yMin="-1200" xMax="-140" yMax="-697">
      <contour>
        <pt x="-680" y="-862" on="1"/>
        <pt x="-680" y="-831" on="1"/>
        <pt x="-722" y="-851" on="0"/>
        <pt x="-722" y="-862" on="1"/>
        <pt x="-722" y="-864" on="0"/>
        <pt x="-720" y="-866" on="1"/>
        <pt x="-716" y="-871" on="0"/>
        <pt x="-708" y="-871" on="1"/>
        <pt x="-697" y="-871" on="0"/>
      </contour>
      <contour>
        <pt x="-580" y="-1200" on="0"/>
        <pt x="-630" y="-1166" on="1"/>
        <pt x="-680" y="-1132" on="0"/>
        <pt x="-680" y="-1098" on="1"/>
        <pt x="-680" y="-926" on="1"/>
        <pt x="-709" y="-936" on="0"/>
        <pt x="-736" y="-936" on="1"/>
        <pt x="-765" y="-936" on="0"/>
        <pt x="-791" y="-923" on="1"/>
        <pt x="-840" y="-899" on="0"/>
        <pt x="-840" y="-865" on="1"/>
        <pt x="-840" y="-832" on="0"/>
        <pt x="-750" y="-764" on="1"/>
        <pt x="-660" y="-697" on="0"/>
        <pt x="-600" y="-697" on="1"/>
        <pt x="-541" y="-697" on="0"/>
        <pt x="-480" y="-737" on="1"/>
        <pt x="-480" y="-1112" on="1"/>
        <pt x="-400" y="-1098" on="0"/>
        <pt x="-370" y="-1075" on="1"/>
        <pt x="-340" y="-1051" on="0"/>
        <pt x="-340" y="-997" on="1"/>
        <pt x="-340" y="-963" on="0"/>
        <pt x="-370" y="-929" on="1"/>
        <pt x="-400" y="-895" on="0"/>
        <pt x="-400" y="-832" on="1"/>
        <pt x="-400" y="-794" on="0"/>
        <pt x="-350" y="-760" on="1"/>
        <pt x="-301" y="-727" on="0"/>
        <pt x="-202" y="-700" on="1"/>
        <pt x="-270" y="-760" on="0"/>
        <pt x="-270" y="-797" on="1"/>
        <pt x="-270" y="-841" on="0"/>
        <pt x="-205" y="-882" on="1"/>
        <pt x="-140" y="-922" on="0"/>
        <pt x="-140" y="-997" on="1"/>
        <pt x="-140" y="-1044" on="0"/>
        <pt x="-299" y="-1122" on="1"/>
        <pt x="-458" y="-1200" on="0"/>
        <pt x="-529" y="-1200" on="1"/>
      </contour>
    </TTGlyph>
    <TTGlyph name="glyph171" xMin="-900" yMin="-1200" xMax="-122" yMax="-697">
      <contour>
        <pt x="-740" y="-862" on="1"/>
        <pt x="-740" y="-831" on="1"/>
        <pt x="-782" y="-851" on="0"/>
        <pt x="-782" y="-862" on="1"/>
        <pt x="-782" y="-864" on="0"/>
        <pt x="-780" y="-866" on="1"/>
        <pt x="-776" y="-871" on="0"/>
        <pt x="-768" y="-871" on="1"/>
        <pt x="-757" y="-871" on="0"/>
      </contour>
      <contour>
        <pt x="-650" y="-1200" on="0"/>
        <pt x="-740" y="-1132" on="0"/>
        <pt x="-740" y="-1098" on="1"/>
        <pt x="-740" y="-926" on="1"/>
        <pt x="-769" y="-936" on="0"/>
        <pt x="-796" y="-936" on="1"/>
        <pt x="-825" y="-936" on="0"/>
        <pt x="-851" y="-923" on="1"/>
        <pt x="-900" y="-899" on="0"/>
        <pt x="-900" y="-865" on="1"/>
        <pt x="-900" y="-832" on="0"/>
        <pt x="-810" y="-764" on="1"/>
        <pt x="-720" y="-697" on="0"/>
        <pt x="-660" y="-697" on="1"/>
        <pt x="-621" y="-697" on="0"/>
        <pt x="-560" y="-737" on="1"/>
        <pt x="-560" y="-1058" on="1"/>
        <pt x="-461" y="-979" on="1"/>
        <pt x="-294" y="-1091" on="1"/>
        <pt x="-272" y="-1078" on="0"/>
        <pt x="-272" y="-1034" on="1"/>
        <pt x="-272" y="-990" on="0"/>
        <pt x="-327" y="-950" on="1"/>
        <pt x="-382" y="-909" on="0"/>
        <pt x="-382" y="-832" on="1"/>
        <pt x="-382" y="-794" on="0"/>
        <pt x="-332" y="-760" on="1"/>
        <pt x="-283" y="-727" on="0"/>
        <pt x="-184" y="-700" on="1"/>
        <pt x="-252" y="-760" on="0"/>
        <pt x="-252" y="-797" on="1"/>
        <pt x="-252" y="-841" on="0"/>
        <pt x="-187" y="-882" on="1"/>
        <pt x="-122" y="-922" on="0"/>
        <pt x="-122" y="-1004" on="1"/>
        <pt x="-122" y="-1085" on="0"/>
        <pt x="-203" y="-1142" on="1"/>
        <pt x="-284" y="-1200" on="0"/>
        <pt x="-327" y="-1200" on="1"/>
        <pt x="-370" y="-1200" on="0"/>
        <pt x="-432" y="-1156" on="1"/>
        <pt x="-495" y="-1113" on="1"/>
        <pt x="-580" y="-1178" on="1"/>
        <pt x="-609" y="-1200" on="0"/>
        <pt x="-624" y="-1200" on="1"/>
      </contour>
    </TTGlyph>
    <TTGlyph name="glyph172" xMin="-999" yMin="1975" xMax="-132" yMax="2468">
      <contour>
        <pt x="-757" y="2185" on="0"/>
        <pt x="-642" y="2196" on="1"/>
        <pt x="-632" y="2197" on="0"/>
        <pt x="-621" y="2197" on="1"/>
        <pt x="-501" y="2197" on="0"/>
        <pt x="-223" y="2101" on="1"/>
        <pt x="-208" y="2123" on="1"/>
        <pt x="-424" y="2233" on="1"/>
        <pt x="-533" y="2280" on="0"/>
        <pt x="-630" y="2280" on="1"/>
        <pt x="-648" y="2280" on="1"/>
        <pt x="-753" y="2276" on="0"/>
        <pt x="-855" y="2102" on="1"/>
      </contour>
      <contour>
        <pt x="-963" y="2088" on="1"/>
        <pt x="-909" y="2256" on="0"/>
        <pt x="-837" y="2349" on="1"/>
        <pt x="-766" y="2442" on="0"/>
        <pt x="-676" y="2459" on="1"/>
        <pt x="-624" y="2468" on="0"/>
        <pt x="-574" y="2468" on="1"/>
        <pt x="-536" y="2468" on="0"/>
        <pt x="-499" y="2463" on="1"/>
        <pt x="-412" y="2451" on="0"/>
        <pt x="-284" y="2387" on="1"/>
        <pt x="-157" y="2318" on="0"/>
        <pt x="-137" y="2238" on="1"/>
        <pt x="-132" y="2218" on="0"/>
        <pt x="-132" y="2199" on="1"/>
        <pt x="-132" y="2142" on="0"/>
        <pt x="-177" y="2092" on="1"/>
        <pt x="-237" y="2011" on="1"/>
        <pt x="-754" y="2018" on="1"/>
        <pt x="-771" y="2018" on="1"/>
        <pt x="-904" y="2018" on="0"/>
        <pt x="-999" y="1975" on="1"/>
      </contour>
    </TTGlyph>
    <TTGlyph name="glyph173" xMin="-999" yMin="1971" xMax="0" yMax="2500">
      <contour>
        <pt x="-757" y="2161" on="0"/>
        <pt x="-642" y="2171" on="1"/>
        <pt x="-632" y="2172" on="0"/>
        <pt x="-621" y="2172" on="1"/>
        <pt x="-501" y="2172" on="0"/>
        <pt x="-223" y="2085" on="1"/>
        <pt x="-208" y="2105" on="1"/>
        <pt x="-424" y="2204" on="1"/>
        <pt x="-535" y="2247" on="0"/>
        <pt x="-632" y="2247" on="1"/>
        <pt x="-648" y="2247" on="1"/>
        <pt x="-753" y="2243" on="0"/>
        <pt x="-855" y="2086" on="1"/>
      </contour>
      <contour>
        <pt x="-149" y="2109" on="1"/>
        <pt x="-223" y="2020" on="1"/>
        <pt x="-754" y="2010" on="1"/>
        <pt x="-767" y="2010" on="1"/>
        <pt x="-903" y="2010" on="0"/>
        <pt x="-999" y="1971" on="1"/>
        <pt x="-963" y="2073" on="1"/>
        <pt x="-909" y="2225" on="0"/>
        <pt x="-837" y="2309" on="1"/>
        <pt x="-766" y="2393" on="0"/>
        <pt x="-676" y="2409" on="1"/>
        <pt x="-626" y="2417" on="0"/>
        <pt x="-576" y="2417" on="1"/>
        <pt x="-537" y="2417" on="0"/>
        <pt x="-499" y="2412" on="1"/>
        <pt x="-412" y="2401" on="0"/>
        <pt x="-284" y="2343" on="1"/>
        <pt x="-157" y="2281" on="0"/>
        <pt x="-137" y="2209" on="1"/>
        <pt x="-100" y="2267" on="0"/>
        <pt x="-100" y="2296" on="1"/>
        <pt x="-100" y="2328" on="0"/>
        <pt x="-142" y="2375" on="1"/>
        <pt x="-48" y="2500" on="1"/>
        <pt x="-24" y="2463" on="1"/>
        <pt x="0" y="2425" on="0"/>
        <pt x="0" y="2357" on="1"/>
        <pt x="0" y="2288" on="0"/>
      </contour>
    </TTGlyph>
    <TTGlyph name="glyph174" xMin="-999" yMin="1964" xMax="0" yMax="2500">
      <contour>
        <pt x="-757" y="2123" on="0"/>
        <pt x="-642" y="2131" on="1"/>
        <pt x="-632" y="2132" on="0"/>
        <pt x="-620" y="2132" on="1"/>
        <pt x="-499" y="2132" on="0"/>
        <pt x="-223" y="2059" on="1"/>
        <pt x="-208" y="2076" on="1"/>
        <pt x="-424" y="2159" on="1"/>
        <pt x="-533" y="2195" on="0"/>
        <pt x="-629" y="2195" on="1"/>
        <pt x="-648" y="2195" on="1"/>
        <pt x="-753" y="2192" on="0"/>
        <pt x="-855" y="2060" on="1"/>
      </contour>
      <contour>
        <pt x="-134" y="2156" on="1"/>
        <pt x="-131" y="2145" on="0"/>
        <pt x="-131" y="2134" on="1"/>
        <pt x="-131" y="2091" on="0"/>
        <pt x="-177" y="2053" on="1"/>
        <pt x="-237" y="2000" on="1"/>
        <pt x="-754" y="1997" on="1"/>
        <pt x="-769" y="1997" on="1"/>
        <pt x="-903" y="1997" on="0"/>
        <pt x="-999" y="1964" on="1"/>
        <pt x="-963" y="2050" on="1"/>
        <pt x="-909" y="2177" on="0"/>
        <pt x="-837" y="2247" on="1"/>
        <pt x="-766" y="2318" on="0"/>
        <pt x="-676" y="2330" on="1"/>
        <pt x="-625" y="2337" on="0"/>
        <pt x="-575" y="2337" on="1"/>
        <pt x="-537" y="2337" on="0"/>
        <pt x="-499" y="2333" on="1"/>
        <pt x="-490" y="2333" on="1"/>
        <pt x="-485" y="2372" on="0"/>
        <pt x="-457" y="2409" on="1"/>
        <pt x="-424" y="2453" on="0"/>
        <pt x="-307" y="2500" on="0"/>
        <pt x="-245" y="2500" on="1"/>
        <pt x="-184" y="2500" on="0"/>
        <pt x="-67" y="2453" on="0"/>
        <pt x="0" y="2365" on="0"/>
        <pt x="0" y="2318" on="1"/>
        <pt x="0" y="2271" on="0"/>
        <pt x="-65" y="2184" on="0"/>
        <pt x="-123" y="2161" on="1"/>
        <pt x="-128" y="2158" on="0"/>
      </contour>
      <contour>
        <pt x="-258" y="2401" on="0"/>
        <pt x="-304" y="2411" on="1"/>
        <pt x="-320" y="2414" on="0"/>
        <pt x="-334" y="2414" on="1"/>
        <pt x="-359" y="2414" on="0"/>
        <pt x="-377" y="2402" on="1"/>
        <pt x="-392" y="2390" on="0"/>
        <pt x="-392" y="2375" on="1"/>
        <pt x="-392" y="2364" on="0"/>
        <pt x="-384" y="2352" on="1"/>
        <pt x="-365" y="2321" on="0"/>
        <pt x="-299" y="2280" on="1"/>
        <pt x="-232" y="2240" on="0"/>
        <pt x="-187" y="2230" on="1"/>
        <pt x="-171" y="2226" on="0"/>
        <pt x="-157" y="2226" on="1"/>
        <pt x="-131" y="2226" on="0"/>
        <pt x="-114" y="2239" on="1"/>
        <pt x="-99" y="2251" on="0"/>
        <pt x="-99" y="2265" on="1"/>
        <pt x="-99" y="2276" on="0"/>
        <pt x="-107" y="2289" on="1"/>
        <pt x="-126" y="2318" on="0"/>
        <pt x="-192" y="2359" on="1"/>
      </contour>
    </TTGlyph>
    <TTGlyph name="glyph175" xMin="-999" yMin="1963" xMax="0" yMax="2500">
      <contour>
        <pt x="-757" y="2119" on="0"/>
        <pt x="-642" y="2127" on="1"/>
        <pt x="-632" y="2128" on="0"/>
        <pt x="-621" y="2128" on="1"/>
        <pt x="-502" y="2128" on="0"/>
        <pt x="-223" y="2057" on="1"/>
        <pt x="-208" y="2073" on="1"/>
        <pt x="-424" y="2154" on="1"/>
        <pt x="-533" y="2189" on="0"/>
        <pt x="-629" y="2189" on="1"/>
        <pt x="-648" y="2189" on="1"/>
        <pt x="-753" y="2186" on="0"/>
        <pt x="-855" y="2057" on="1"/>
      </contour>
      <contour>
        <pt x="-270" y="2263" on="1"/>
        <pt x="-155" y="2214" on="0"/>
        <pt x="-137" y="2158" on="1"/>
        <pt x="-100" y="2206" on="0"/>
        <pt x="-100" y="2229" on="1"/>
        <pt x="-100" y="2256" on="0"/>
        <pt x="-142" y="2294" on="1"/>
        <pt x="-48" y="2396" on="1"/>
        <pt x="-24" y="2366" on="1"/>
        <pt x="0" y="2335" on="0"/>
        <pt x="0" y="2279" on="1"/>
        <pt x="0" y="2223" on="0"/>
        <pt x="-149" y="2077" on="1"/>
        <pt x="-223" y="2004" on="1"/>
        <pt x="-754" y="1995" on="1"/>
        <pt x="-770" y="1995" on="1"/>
        <pt x="-904" y="1995" on="0"/>
        <pt x="-999" y="1963" on="1"/>
        <pt x="-963" y="2047" on="1"/>
        <pt x="-909" y="2171" on="0"/>
        <pt x="-837" y="2240" on="1"/>
        <pt x="-766" y="2309" on="0"/>
        <pt x="-676" y="2322" on="1"/>
        <pt x="-624" y="2328" on="0"/>
        <pt x="-573" y="2328" on="1"/>
        <pt x="-536" y="2328" on="0"/>
        <pt x="-499" y="2325" on="1"/>
        <pt x="-425" y="2317" on="0"/>
        <pt x="-322" y="2282" on="1"/>
        <pt x="-300" y="2315" on="0"/>
        <pt x="-300" y="2333" on="1"/>
        <pt x="-300" y="2359" on="0"/>
        <pt x="-342" y="2398" on="1"/>
        <pt x="-248" y="2500" on="1"/>
        <pt x="-224" y="2470" on="1"/>
        <pt x="-200" y="2439" on="0"/>
        <pt x="-200" y="2383" on="1"/>
        <pt x="-200" y="2345" on="0"/>
      </contour>
    </TTGlyph>
    <TTGlyph name="glyph176" xMin="-875" yMin="1930" xMax="-326" yMax="2500">
      <contour>
        <pt x="-615" y="2344" on="0"/>
        <pt x="-666" y="2360" on="1"/>
        <pt x="-683" y="2365" on="0"/>
        <pt x="-698" y="2365" on="1"/>
        <pt x="-727" y="2365" on="0"/>
        <pt x="-747" y="2345" on="1"/>
        <pt x="-764" y="2327" on="0"/>
        <pt x="-764" y="2304" on="1"/>
        <pt x="-764" y="2287" on="0"/>
        <pt x="-755" y="2267" on="1"/>
        <pt x="-734" y="2220" on="0"/>
        <pt x="-660" y="2156" on="1"/>
        <pt x="-586" y="2092" on="0"/>
        <pt x="-535" y="2076" on="1"/>
        <pt x="-517" y="2070" on="0"/>
        <pt x="-502" y="2070" on="1"/>
        <pt x="-474" y="2070" on="0"/>
        <pt x="-454" y="2091" on="1"/>
        <pt x="-437" y="2108" on="0"/>
        <pt x="-437" y="2132" on="1"/>
        <pt x="-437" y="2149" on="0"/>
        <pt x="-446" y="2169" on="1"/>
        <pt x="-467" y="2215" on="0"/>
        <pt x="-541" y="2279" on="1"/>
      </contour>
      <contour>
        <pt x="-601" y="2500" on="1"/>
        <pt x="-532" y="2500" on="0"/>
        <pt x="-401" y="2426" on="0"/>
        <pt x="-326" y="2289" on="0"/>
        <pt x="-326" y="2214" on="1"/>
        <pt x="-326" y="2140" on="0"/>
        <pt x="-399" y="2005" on="0"/>
        <pt x="-529" y="1930" on="0"/>
        <pt x="-601" y="1930" on="1"/>
        <pt x="-672" y="1930" on="0"/>
        <pt x="-803" y="2005" on="0"/>
        <pt x="-875" y="2140" on="0"/>
        <pt x="-875" y="2214" on="1"/>
        <pt x="-875" y="2289" on="0"/>
        <pt x="-801" y="2426" on="0"/>
        <pt x="-670" y="2500" on="0"/>
      </contour>
    </TTGlyph>
    <TTGlyph name="glyph177" xMin="-974" yMin="1930" xMax="-224" yMax="2500">
      <contour>
        <pt x="-499" y="2168" on="1"/>
        <pt x="-499" y="2082" on="1"/>
        <pt x="-699" y="1930" on="1"/>
        <pt x="-699" y="2168" on="1"/>
        <pt x="-864" y="2168" on="1"/>
        <pt x="-974" y="2285" on="1"/>
        <pt x="-699" y="2285" on="1"/>
        <pt x="-699" y="2348" on="1"/>
        <pt x="-499" y="2500" on="1"/>
        <pt x="-499" y="2285" on="1"/>
        <pt x="-344" y="2285" on="1"/>
        <pt x="-224" y="2168" on="1"/>
      </contour>
    </TTGlyph>
    <TTGlyph name="glyph178" xMin="-800" yMin="1930" xMax="-1" yMax="2500">
      <contour>
        <pt x="-377" y="1936" on="1"/>
        <pt x="-419" y="1930" on="0"/>
        <pt x="-463" y="1930" on="1"/>
        <pt x="-522" y="1930" on="0"/>
        <pt x="-585" y="1941" on="1"/>
        <pt x="-800" y="1980" on="0"/>
        <pt x="-800" y="2031" on="1"/>
        <pt x="-800" y="2056" on="0"/>
        <pt x="-713" y="2147" on="1"/>
        <pt x="-656" y="2199" on="0"/>
        <pt x="-586" y="2218" on="1"/>
        <pt x="-546" y="2229" on="0"/>
        <pt x="-502" y="2229" on="1"/>
        <pt x="-470" y="2229" on="0"/>
        <pt x="-435" y="2223" on="1"/>
        <pt x="-352" y="2209" on="0"/>
        <pt x="-331" y="2183" on="1"/>
        <pt x="-324" y="2174" on="0"/>
        <pt x="-324" y="2163" on="1"/>
        <pt x="-324" y="2144" on="0"/>
        <pt x="-349" y="2121" on="1"/>
        <pt x="-380" y="2093" on="0"/>
        <pt x="-432" y="2085" on="1"/>
        <pt x="-455" y="2081" on="0"/>
        <pt x="-483" y="2081" on="1"/>
        <pt x="-516" y="2081" on="0"/>
        <pt x="-556" y="2087" on="1"/>
        <pt x="-550" y="2095" on="0"/>
        <pt x="-550" y="2101" on="1"/>
        <pt x="-550" y="2115" on="0"/>
        <pt x="-583" y="2121" on="1"/>
        <pt x="-595" y="2123" on="0"/>
        <pt x="-605" y="2123" on="1"/>
        <pt x="-636" y="2123" on="0"/>
        <pt x="-653" y="2106" on="1"/>
        <pt x="-656" y="2104" on="0"/>
        <pt x="-656" y="2101" on="1"/>
        <pt x="-656" y="2080" on="0"/>
        <pt x="-487" y="2051" on="1"/>
        <pt x="-412" y="2038" on="0"/>
        <pt x="-351" y="2038" on="1"/>
        <pt x="-336" y="2038" on="0"/>
        <pt x="-322" y="2039" on="1"/>
        <pt x="-251" y="2043" on="0"/>
        <pt x="-204" y="2069" on="1"/>
        <pt x="-157" y="2093" on="0"/>
        <pt x="-150" y="2127" on="1"/>
        <pt x="-148" y="2133" on="0"/>
        <pt x="-148" y="2140" on="1"/>
        <pt x="-148" y="2167" on="0"/>
        <pt x="-175" y="2200" on="1"/>
        <pt x="-239" y="2282" on="0"/>
        <pt x="-239" y="2362" on="1"/>
        <pt x="-239" y="2403" on="0"/>
        <pt x="-194" y="2441" on="1"/>
        <pt x="-150" y="2478" on="0"/>
        <pt x="-46" y="2500" on="1"/>
        <pt x="-108" y="2445" on="0"/>
        <pt x="-108" y="2402" on="1"/>
        <pt x="-107" y="2378" on="0"/>
        <pt x="-54" y="2315" on="1"/>
        <pt x="-1" y="2251" on="0"/>
        <pt x="-1" y="2187" on="1"/>
        <pt x="-1" y="2141" on="0"/>
        <pt x="-47" y="2094" on="1"/>
        <pt x="-93" y="2047" on="0"/>
        <pt x="-185" y="1999" on="1"/>
        <pt x="-277" y="1950" on="0"/>
      </contour>
    </TTGlyph>
    <TTGlyph name="glyph179" xMin="30" yMin="-50" xMax="1600" yMax="1500">
      <contour>
        <pt x="400" y="309" on="1"/>
        <pt x="490" y="398" on="0"/>
        <pt x="490" y="459" on="1"/>
        <pt x="490" y="500" on="0"/>
        <pt x="450" y="500" on="1"/>
        <pt x="400" y="500" on="1"/>
      </contour>
      <contour>
        <pt x="1400" y="-50" on="1"/>
        <pt x="1400" y="1300" on="1"/>
        <pt x="1280" y="1300" on="1"/>
        <pt x="1117" y="1300" on="0"/>
        <pt x="1000" y="1149" on="1"/>
        <pt x="1000" y="150" on="1"/>
        <pt x="800" y="-50" on="1"/>
        <pt x="800" y="1300" on="1"/>
        <pt x="700" y="1300" on="1"/>
        <pt x="611" y="1300" on="0"/>
        <pt x="492" y="1138" on="1"/>
        <pt x="499" y="1179" on="1"/>
        <pt x="504" y="1210" on="0"/>
        <pt x="504" y="1234" on="1"/>
        <pt x="504" y="1300" on="0"/>
        <pt x="460" y="1300" on="1"/>
        <pt x="217" y="1300" on="1"/>
        <pt x="168" y="1167" on="1"/>
        <pt x="274" y="1144" on="0"/>
        <pt x="337" y="1094" on="1"/>
        <pt x="400" y="1043" on="0"/>
        <pt x="400" y="964" on="1"/>
        <pt x="400" y="650" on="1"/>
        <pt x="450" y="650" on="1"/>
        <pt x="600" y="650" on="0"/>
        <pt x="600" y="500" on="1"/>
        <pt x="600" y="350" on="0"/>
        <pt x="469" y="219" on="1"/>
        <pt x="294" y="44" on="1"/>
        <pt x="250" y="0" on="0"/>
        <pt x="225" y="0" on="1"/>
        <pt x="200" y="0" on="0"/>
        <pt x="200" y="40" on="1"/>
        <pt x="200" y="900" on="1"/>
        <pt x="200" y="960" on="0"/>
        <pt x="78" y="980" on="1"/>
        <pt x="30" y="986" on="0"/>
        <pt x="30" y="1026" on="1"/>
        <pt x="30" y="1066" on="0"/>
        <pt x="55" y="1126" on="1"/>
        <pt x="200" y="1500" on="1"/>
        <pt x="500" y="1500" on="1"/>
        <pt x="570" y="1500" on="0"/>
        <pt x="570" y="1370" on="1"/>
        <pt x="645" y="1500" on="0"/>
        <pt x="730" y="1500" on="1"/>
        <pt x="1000" y="1500" on="1"/>
        <pt x="1000" y="1300" on="1"/>
        <pt x="1145" y="1500" on="0"/>
        <pt x="1310" y="1500" on="1"/>
        <pt x="1600" y="1500" on="1"/>
        <pt x="1600" y="150" on="1"/>
      </contour>
    </TTGlyph>
    <TTGlyph name="glyph180" xMin="-1600" yMin="-650" xMax="-800" yMax="-50">
      <contour>
        <pt x="-1400" y="-440" on="1"/>
        <pt x="-1400" y="-479" on="1"/>
        <pt x="-1358" y="-453" on="0"/>
        <pt x="-1358" y="-439" on="1"/>
        <pt x="-1358" y="-436" on="0"/>
        <pt x="-1360" y="-434" on="1"/>
        <pt x="-1364" y="-429" on="0"/>
        <pt x="-1371" y="-429" on="1"/>
        <pt x="-1382" y="-429" on="0"/>
      </contour>
      <contour>
        <pt x="-1600" y="-274" on="1"/>
        <pt x="-1600" y="-200" on="0"/>
        <pt x="-1425" y="-124" on="1"/>
        <pt x="-1250" y="-50" on="0"/>
        <pt x="-1200" y="-50" on="1"/>
        <pt x="-1150" y="-50" on="0"/>
        <pt x="-1041" y="-97" on="1"/>
        <pt x="-800" y="-200" on="0"/>
        <pt x="-800" y="-274" on="1"/>
        <pt x="-800" y="-521" on="1"/>
        <pt x="-1000" y="-650" on="1"/>
        <pt x="-1000" y="-312" on="1"/>
        <pt x="-1000" y="-286" on="0"/>
        <pt x="-1138" y="-226" on="1"/>
        <pt x="-1277" y="-167" on="0"/>
        <pt x="-1314" y="-167" on="1"/>
        <pt x="-1351" y="-167" on="0"/>
        <pt x="-1375" y="-178" on="1"/>
        <pt x="-1400" y="-188" on="0"/>
        <pt x="-1400" y="-274" on="1"/>
        <pt x="-1400" y="-358" on="1"/>
        <pt x="-1371" y="-346" on="0"/>
        <pt x="-1345" y="-346" on="1"/>
        <pt x="-1315" y="-346" on="0"/>
        <pt x="-1289" y="-362" on="1"/>
        <pt x="-1240" y="-392" on="0"/>
        <pt x="-1240" y="-435" on="1"/>
        <pt x="-1240" y="-478" on="0"/>
        <pt x="-1330" y="-564" on="1"/>
        <pt x="-1420" y="-650" on="0"/>
        <pt x="-1480" y="-650" on="1"/>
        <pt x="-1539" y="-650" on="0"/>
        <pt x="-1600" y="-598" on="1"/>
      </contour>
    </TTGlyph>
    <TTGlyph name="glyph181" xMin="-1000" yMin="-1200" xMax="-800" yMax="-650">
      <contour>
        <pt x="-800" y="-1052" on="1"/>
        <pt x="-1000" y="-1200" on="1"/>
        <pt x="-1000" y="-796" on="1"/>
        <pt x="-800" y="-650" on="1"/>
      </contour>
    </TTGlyph>
    <TTGlyph name="glyph182" xMin="-1500" yMin="-1200" xMax="-800" yMax="-697">
      <contour>
        <pt x="-1340" y="-862" on="1"/>
        <pt x="-1340" y="-831" on="1"/>
        <pt x="-1382" y="-851" on="0"/>
        <pt x="-1382" y="-862" on="1"/>
        <pt x="-1382" y="-864" on="0"/>
        <pt x="-1380" y="-866" on="1"/>
        <pt x="-1376" y="-871" on="0"/>
        <pt x="-1368" y="-871" on="1"/>
        <pt x="-1357" y="-871" on="0"/>
      </contour>
      <contour>
        <pt x="-1240" y="-1200" on="0"/>
        <pt x="-1290" y="-1166" on="1"/>
        <pt x="-1340" y="-1132" on="0"/>
        <pt x="-1340" y="-1098" on="1"/>
        <pt x="-1340" y="-926" on="1"/>
        <pt x="-1369" y="-936" on="0"/>
        <pt x="-1396" y="-936" on="1"/>
        <pt x="-1425" y="-936" on="0"/>
        <pt x="-1451" y="-923" on="1"/>
        <pt x="-1500" y="-899" on="0"/>
        <pt x="-1500" y="-865" on="1"/>
        <pt x="-1500" y="-832" on="0"/>
        <pt x="-1410" y="-764" on="1"/>
        <pt x="-1320" y="-697" on="0"/>
        <pt x="-1260" y="-697" on="1"/>
        <pt x="-1201" y="-697" on="0"/>
        <pt x="-1140" y="-737" on="1"/>
        <pt x="-1140" y="-1112" on="1"/>
        <pt x="-1060" y="-1098" on="0"/>
        <pt x="-1030" y="-1075" on="1"/>
        <pt x="-1000" y="-1051" on="0"/>
        <pt x="-1000" y="-997" on="1"/>
        <pt x="-1000" y="-963" on="0"/>
        <pt x="-1030" y="-929" on="1"/>
        <pt x="-1060" y="-895" on="0"/>
        <pt x="-1060" y="-832" on="1"/>
        <pt x="-1060" y="-794" on="0"/>
        <pt x="-1010" y="-760" on="1"/>
        <pt x="-961" y="-727" on="0"/>
        <pt x="-862" y="-700" on="1"/>
        <pt x="-930" y="-760" on="0"/>
        <pt x="-930" y="-797" on="1"/>
        <pt x="-930" y="-841" on="0"/>
        <pt x="-865" y="-882" on="1"/>
        <pt x="-800" y="-922" on="0"/>
        <pt x="-800" y="-997" on="1"/>
        <pt x="-800" y="-1044" on="0"/>
        <pt x="-959" y="-1122" on="1"/>
        <pt x="-1118" y="-1200" on="0"/>
        <pt x="-1189" y="-1200" on="1"/>
      </contour>
    </TTGlyph>
    <TTGlyph name="glyph183" xMin="-1578" yMin="-1200" xMax="-800" yMax="-697">
      <contour>
        <pt x="-1418" y="-862" on="1"/>
        <pt x="-1418" y="-831" on="1"/>
        <pt x="-1460" y="-851" on="0"/>
        <pt x="-1460" y="-862" on="1"/>
        <pt x="-1460" y="-864" on="0"/>
        <pt x="-1458" y="-866" on="1"/>
        <pt x="-1454" y="-871" on="0"/>
        <pt x="-1446" y="-871" on="1"/>
        <pt x="-1435" y="-871" on="0"/>
      </contour>
      <contour>
        <pt x="-1328" y="-1200" on="0"/>
        <pt x="-1418" y="-1132" on="0"/>
        <pt x="-1418" y="-1098" on="1"/>
        <pt x="-1418" y="-926" on="1"/>
        <pt x="-1447" y="-936" on="0"/>
        <pt x="-1474" y="-936" on="1"/>
        <pt x="-1503" y="-936" on="0"/>
        <pt x="-1529" y="-923" on="1"/>
        <pt x="-1578" y="-899" on="0"/>
        <pt x="-1578" y="-865" on="1"/>
        <pt x="-1578" y="-832" on="0"/>
        <pt x="-1488" y="-764" on="1"/>
        <pt x="-1398" y="-697" on="0"/>
        <pt x="-1338" y="-697" on="1"/>
        <pt x="-1299" y="-697" on="0"/>
        <pt x="-1238" y="-737" on="1"/>
        <pt x="-1238" y="-1058" on="1"/>
        <pt x="-1139" y="-979" on="1"/>
        <pt x="-972" y="-1091" on="1"/>
        <pt x="-950" y="-1078" on="0"/>
        <pt x="-950" y="-1034" on="1"/>
        <pt x="-950" y="-990" on="0"/>
        <pt x="-1005" y="-950" on="1"/>
        <pt x="-1060" y="-909" on="0"/>
        <pt x="-1060" y="-832" on="1"/>
        <pt x="-1060" y="-794" on="0"/>
        <pt x="-1010" y="-760" on="1"/>
        <pt x="-961" y="-727" on="0"/>
        <pt x="-862" y="-700" on="1"/>
        <pt x="-930" y="-760" on="0"/>
        <pt x="-930" y="-797" on="1"/>
        <pt x="-930" y="-841" on="0"/>
        <pt x="-865" y="-882" on="1"/>
        <pt x="-800" y="-922" on="0"/>
        <pt x="-800" y="-1004" on="1"/>
        <pt x="-800" y="-1085" on="0"/>
        <pt x="-881" y="-1142" on="1"/>
        <pt x="-962" y="-1200" on="0"/>
        <pt x="-1005" y="-1200" on="1"/>
        <pt x="-1048" y="-1200" on="0"/>
        <pt x="-1110" y="-1156" on="1"/>
        <pt x="-1173" y="-1113" on="1"/>
        <pt x="-1258" y="-1178" on="1"/>
        <pt x="-1287" y="-1200" on="0"/>
        <pt x="-1302" y="-1200" on="1"/>
      </contour>
    </TTGlyph>
    <TTGlyph name="glyph185" xMin="-501" yMin="-1200" xMax="498" yMax="2500">
      <contour>
        <pt x="-144" y="2138" on="1"/>
        <pt x="-133" y="2139" on="0"/>
        <pt x="-120" y="2139" on="1"/>
        <pt x="0" y="2139" on="0"/>
        <pt x="275" y="2071" on="1"/>
        <pt x="290" y="2087" on="1"/>
        <pt x="74" y="2165" on="1"/>
        <pt x="-35" y="2199" on="0"/>
        <pt x="-130" y="2199" on="1"/>
        <pt x="-150" y="2199" on="1"/>
        <pt x="-255" y="2196" on="0"/>
        <pt x="-357" y="2071" on="1"/>
        <pt x="-259" y="2131" on="0"/>
      </contour>
      <contour>
        <pt x="400" y="-900" on="1"/>
        <pt x="400" y="-1000" on="0"/>
        <pt x="225" y="-1100" on="1"/>
        <pt x="50" y="-1200" on="0"/>
        <pt x="0" y="-1200" on="1"/>
        <pt x="-50" y="-1200" on="0"/>
        <pt x="-159" y="-1137" on="1"/>
        <pt x="-400" y="-1000" on="0"/>
        <pt x="-400" y="-900" on="1"/>
        <pt x="-400" y="-800" on="1"/>
        <pt x="-287" y="-687" on="1"/>
        <pt x="-250" y="-650" on="0"/>
        <pt x="-225" y="-650" on="1"/>
        <pt x="-200" y="-650" on="0"/>
        <pt x="-200" y="-700" on="1"/>
        <pt x="-200" y="-850" on="1"/>
        <pt x="-200" y="-884" on="0"/>
        <pt x="-62" y="-964" on="1"/>
        <pt x="77" y="-1043" on="0"/>
        <pt x="114" y="-1043" on="1"/>
        <pt x="151" y="-1043" on="0"/>
        <pt x="175" y="-1028" on="1"/>
        <pt x="200" y="-1014" on="0"/>
        <pt x="200" y="-900" on="1"/>
        <pt x="200" y="1877" on="1"/>
        <pt x="200" y="1949" on="0"/>
        <pt x="75" y="1972" on="1"/>
        <pt x="-112" y="2009" on="0"/>
        <pt x="-256" y="2011" on="1"/>
        <pt x="-280" y="2011" on="1"/>
        <pt x="-408" y="2011" on="0"/>
        <pt x="-501" y="1981" on="1"/>
        <pt x="-465" y="2061" on="1"/>
        <pt x="-411" y="2182" on="0"/>
        <pt x="-339" y="2248" on="1"/>
        <pt x="-268" y="2315" on="0"/>
        <pt x="-178" y="2327" on="1"/>
        <pt x="-127" y="2334" on="0"/>
        <pt x="-76" y="2334" on="1"/>
        <pt x="-38" y="2334" on="0"/>
        <pt x="-1" y="2330" on="1"/>
        <pt x="73" y="2323" on="0"/>
        <pt x="176" y="2288" on="1"/>
        <pt x="198" y="2320" on="0"/>
        <pt x="198" y="2338" on="1"/>
        <pt x="198" y="2364" on="0"/>
        <pt x="156" y="2401" on="1"/>
        <pt x="250" y="2500" on="1"/>
        <pt x="274" y="2471" on="1"/>
        <pt x="298" y="2440" on="0"/>
        <pt x="298" y="2386" on="1"/>
        <pt x="298" y="2350" on="0"/>
        <pt x="228" y="2271" on="1"/>
        <pt x="343" y="2224" on="0"/>
        <pt x="361" y="2169" on="1"/>
        <pt x="398" y="2216" on="0"/>
        <pt x="398" y="2238" on="1"/>
        <pt x="398" y="2264" on="0"/>
        <pt x="356" y="2301" on="1"/>
        <pt x="450" y="2400" on="1"/>
        <pt x="474" y="2370" on="1"/>
        <pt x="498" y="2340" on="0"/>
        <pt x="498" y="2287" on="1"/>
        <pt x="498" y="2231" on="0"/>
        <pt x="424" y="2160" on="1"/>
        <pt x="322" y="2055" on="1"/>
        <pt x="400" y="2019" on="0"/>
        <pt x="400" y="1877" on="1"/>
      </contour>
    </TTGlyph>
    <TTGlyph name="glyph186" xMin="-400" yMin="-1200" xMax="570" yMax="2194">
      <contour>
        <pt x="400" y="-900" on="1"/>
        <pt x="400" y="-1000" on="0"/>
        <pt x="225" y="-1100" on="1"/>
        <pt x="50" y="-1200" on="0"/>
        <pt x="0" y="-1200" on="1"/>
        <pt x="-50" y="-1200" on="0"/>
        <pt x="-159" y="-1137" on="1"/>
        <pt x="-400" y="-1000" on="0"/>
        <pt x="-400" y="-900" on="1"/>
        <pt x="-400" y="-800" on="1"/>
        <pt x="-287" y="-687" on="1"/>
        <pt x="-250" y="-650" on="0"/>
        <pt x="-225" y="-650" on="1"/>
        <pt x="-200" y="-650" on="0"/>
        <pt x="-200" y="-700" on="1"/>
        <pt x="-200" y="-850" on="1"/>
        <pt x="-200" y="-884" on="0"/>
        <pt x="-62" y="-964" on="1"/>
        <pt x="77" y="-1043" on="0"/>
        <pt x="114" y="-1043" on="1"/>
        <pt x="151" y="-1043" on="0"/>
        <pt x="175" y="-1028" on="1"/>
        <pt x="200" y="-1014" on="0"/>
        <pt x="200" y="-900" on="1"/>
        <pt x="200" y="860" on="1"/>
        <pt x="200" y="920" on="0"/>
        <pt x="58" y="940" on="1"/>
        <pt x="10" y="946" on="0"/>
        <pt x="10" y="986" on="1"/>
        <pt x="10" y="1026" on="0"/>
        <pt x="35" y="1086" on="1"/>
        <pt x="200" y="1500" on="1"/>
        <pt x="350" y="1500" on="1"/>
        <pt x="395" y="1500" on="0"/>
        <pt x="418" y="1470" on="1"/>
        <pt x="440" y="1439" on="0"/>
        <pt x="440" y="1378" on="1"/>
        <pt x="481" y="1420" on="0"/>
        <pt x="487" y="1455" on="1"/>
        <pt x="487" y="1460" on="1"/>
        <pt x="487" y="1501" on="0"/>
        <pt x="382" y="1660" on="1"/>
        <pt x="270" y="1830" on="0"/>
        <pt x="270" y="1917" on="1"/>
        <pt x="270" y="2000" on="0"/>
        <pt x="326" y="2074" on="1"/>
        <pt x="382" y="2149" on="0"/>
        <pt x="514" y="2194" on="1"/>
        <pt x="435" y="2085" on="0"/>
        <pt x="435" y="1996" on="1"/>
        <pt x="436" y="1936" on="0"/>
        <pt x="503" y="1833" on="1"/>
        <pt x="570" y="1730" on="0"/>
        <pt x="570" y="1600" on="1"/>
        <pt x="570" y="1380" on="0"/>
        <pt x="486" y="1279" on="1"/>
        <pt x="416" y="1196" on="0"/>
        <pt x="356" y="1196" on="1"/>
        <pt x="344" y="1196" on="0"/>
        <pt x="331" y="1200" on="1"/>
        <pt x="344" y="1231" on="0"/>
        <pt x="349" y="1266" on="1"/>
        <pt x="349" y="1271" on="1"/>
        <pt x="349" y="1300" on="0"/>
        <pt x="311" y="1300" on="1"/>
        <pt x="217" y="1300" on="1"/>
        <pt x="148" y="1127" on="1"/>
        <pt x="274" y="1104" on="0"/>
        <pt x="337" y="1053" on="1"/>
        <pt x="400" y="1003" on="0"/>
        <pt x="400" y="924" on="1"/>
      </contour>
    </TTGlyph>
    <TTGlyph name="glyph187" xMin="-1049" yMin="-1200" xMax="500" yMax="1500">
      <contour>
        <pt x="400" y="-1042" on="1"/>
        <pt x="400" y="-1091" on="0"/>
        <pt x="48" y="-1200" on="0"/>
        <pt x="-1" y="-1200" on="1"/>
        <pt x="-50" y="-1200" on="0"/>
        <pt x="-158" y="-1167" on="1"/>
        <pt x="-233" y="-1145" on="0"/>
        <pt x="-285" y="-1125" on="1"/>
        <pt x="-316" y="-1137" on="0"/>
        <pt x="-356" y="-1149" on="1"/>
        <pt x="-529" y="-1200" on="0"/>
        <pt x="-578" y="-1200" on="1"/>
        <pt x="-627" y="-1200" on="0"/>
        <pt x="-735" y="-1167" on="1"/>
        <pt x="-853" y="-1133" on="0"/>
        <pt x="-913" y="-1103" on="1"/>
        <pt x="-972" y="-1074" on="0"/>
        <pt x="-1003" y="-1026" on="1"/>
        <pt x="-972" y="-1019" on="0"/>
        <pt x="-953" y="-999" on="0"/>
        <pt x="-953" y="-984" on="1"/>
        <pt x="-953" y="-864" on="1"/>
        <pt x="-813" y="-856" on="0"/>
        <pt x="-767" y="-828" on="1"/>
        <pt x="-722" y="-800" on="0"/>
        <pt x="-722" y="-790" on="1"/>
        <pt x="-722" y="-780" on="0"/>
        <pt x="-775" y="-759" on="0"/>
        <pt x="-809" y="-759" on="1"/>
        <pt x="-857" y="-759" on="0"/>
        <pt x="-857" y="-776" on="1"/>
        <pt x="-857" y="-799" on="0"/>
        <pt x="-799" y="-801" on="1"/>
        <pt x="-799" y="-830" on="0"/>
        <pt x="-915" y="-830" on="1"/>
        <pt x="-923" y="-830" on="1"/>
        <pt x="-1049" y="-829" on="0"/>
        <pt x="-1049" y="-774" on="1"/>
        <pt x="-1049" y="-749" on="0"/>
        <pt x="-991" y="-724" on="1"/>
        <pt x="-934" y="-700" on="0"/>
        <pt x="-857" y="-700" on="1"/>
        <pt x="-741" y="-700" on="0"/>
        <pt x="-616" y="-744" on="0"/>
        <pt x="-616" y="-784" on="1"/>
        <pt x="-616" y="-824" on="0"/>
        <pt x="-655" y="-869" on="1"/>
        <pt x="-693" y="-914" on="0"/>
        <pt x="-761" y="-950" on="1"/>
        <pt x="-761" y="-994" on="1"/>
        <pt x="-761" y="-1014" on="0"/>
        <pt x="-780" y="-1025" on="1"/>
        <pt x="-780" y="-1041" on="0"/>
        <pt x="-641" y="-1080" on="1"/>
        <pt x="-497" y="-1120" on="0"/>
        <pt x="-461" y="-1120" on="1"/>
        <pt x="-424" y="-1120" on="0"/>
        <pt x="-401" y="-1113" on="1"/>
        <pt x="-376" y="-1106" on="0"/>
        <pt x="-376" y="-1049" on="1"/>
        <pt x="-376" y="-969" on="1"/>
        <pt x="-376" y="-939" on="0"/>
        <pt x="-513" y="-929" on="1"/>
        <pt x="-559" y="-925" on="0"/>
        <pt x="-559" y="-905" on="1"/>
        <pt x="-559" y="-885" on="0"/>
        <pt x="-535" y="-856" on="1"/>
        <pt x="-405" y="-700" on="1"/>
        <pt x="-117" y="-700" on="1"/>
        <pt x="-117" y="-760" on="0"/>
        <pt x="-139" y="-795" on="0"/>
        <pt x="-199" y="-829" on="1"/>
        <pt x="-197" y="-824" on="0"/>
        <pt x="-197" y="-820" on="1"/>
        <pt x="-197" y="-799" on="0"/>
        <pt x="-261" y="-799" on="1"/>
        <pt x="-389" y="-799" on="1"/>
        <pt x="-426" y="-835" on="1"/>
        <pt x="-305" y="-846" on="0"/>
        <pt x="-245" y="-872" on="1"/>
        <pt x="-184" y="-897" on="0"/>
        <pt x="-184" y="-937" on="1"/>
        <pt x="-184" y="-1040" on="1"/>
        <pt x="-151" y="-1056" on="0"/>
        <pt x="-65" y="-1080" on="1"/>
        <pt x="79" y="-1120" on="0"/>
        <pt x="116" y="-1120" on="1"/>
        <pt x="152" y="-1120" on="0"/>
        <pt x="176" y="-1113" on="1"/>
        <pt x="200" y="-1106" on="0"/>
        <pt x="200" y="-1049" on="1"/>
        <pt x="200" y="860" on="1"/>
        <pt x="200" y="920" on="0"/>
        <pt x="58" y="940" on="1"/>
        <pt x="10" y="946" on="0"/>
        <pt x="10" y="986" on="1"/>
        <pt x="10" y="1026" on="0"/>
        <pt x="35" y="1086" on="1"/>
        <pt x="200" y="1500" on="1"/>
        <pt x="500" y="1500" on="1"/>
        <pt x="500" y="1378" on="0"/>
        <pt x="474" y="1293" on="1"/>
        <pt x="447" y="1207" on="0"/>
        <pt x="384" y="1170" on="1"/>
        <pt x="400" y="1231" on="0"/>
        <pt x="400" y="1266" on="1"/>
        <pt x="400" y="1300" on="0"/>
        <pt x="350" y="1300" on="1"/>
        <pt x="217" y="1300" on="1"/>
        <pt x="148" y="1127" on="1"/>
        <pt x="274" y="1104" on="0"/>
        <pt x="337" y="1053" on="1"/>
        <pt x="400" y="1003" on="0"/>
        <pt x="400" y="924" on="1"/>
      </contour>
    </TTGlyph>
    <TTGlyph name="glyph188" xMin="-1200" yMin="-1200" xMax="500" yMax="1500">
      <contour>
        <pt x="-925" y="-1105" on="1"/>
        <pt x="-859" y="-1081" on="0"/>
        <pt x="-859" y="-1059" on="1"/>
        <pt x="-859" y="-1040" on="0"/>
        <pt x="-889" y="-1040" on="1"/>
        <pt x="-925" y="-1040" on="1"/>
      </contour>
      <contour>
        <pt x="400" y="-985" on="1"/>
        <pt x="400" y="-1108" on="0"/>
        <pt x="255" y="-1154" on="1"/>
        <pt x="111" y="-1200" on="0"/>
        <pt x="72" y="-1200" on="1"/>
        <pt x="36" y="-1200" on="0"/>
        <pt x="-46" y="-1170" on="1"/>
        <pt x="-104" y="-1150" on="0"/>
        <pt x="-145" y="-1132" on="1"/>
        <pt x="-168" y="-1143" on="0"/>
        <pt x="-198" y="-1154" on="1"/>
        <pt x="-332" y="-1200" on="0"/>
        <pt x="-370" y="-1200" on="1"/>
        <pt x="-407" y="-1200" on="0"/>
        <pt x="-490" y="-1170" on="1"/>
        <pt x="-580" y="-1140" on="0"/>
        <pt x="-626" y="-1112" on="1"/>
        <pt x="-672" y="-1085" on="0"/>
        <pt x="-696" y="-1042" on="1"/>
        <pt x="-672" y="-1035" on="0"/>
        <pt x="-657" y="-1017" on="0"/>
        <pt x="-657" y="-1004" on="1"/>
        <pt x="-657" y="-790" on="1"/>
        <pt x="-1076" y="-790" on="1"/>
        <pt x="-1096" y="-828" on="1"/>
        <pt x="-1018" y="-838" on="0"/>
        <pt x="-972" y="-860" on="1"/>
        <pt x="-925" y="-885" on="0"/>
        <pt x="-925" y="-920" on="1"/>
        <pt x="-925" y="-971" on="1"/>
        <pt x="-889" y="-971" on="1"/>
        <pt x="-778" y="-971" on="0"/>
        <pt x="-778" y="-1040" on="1"/>
        <pt x="-778" y="-1110" on="0"/>
        <pt x="-965" y="-1200" on="1"/>
        <pt x="-1073" y="-1139" on="1"/>
        <pt x="-1073" y="-950" on="1"/>
        <pt x="-1073" y="-921" on="0"/>
        <pt x="-1163" y="-913" on="1"/>
        <pt x="-1200" y="-910" on="0"/>
        <pt x="-1200" y="-891" on="1"/>
        <pt x="-1200" y="-874" on="0"/>
        <pt x="-1180" y="-846" on="1"/>
        <pt x="-1087" y="-700" on="1"/>
        <pt x="-510" y="-700" on="1"/>
        <pt x="-510" y="-1013" on="1"/>
        <pt x="-510" y="-1030" on="0"/>
        <pt x="-524" y="-1040" on="1"/>
        <pt x="-524" y="-1055" on="0"/>
        <pt x="-418" y="-1091" on="1"/>
        <pt x="-307" y="-1128" on="0"/>
        <pt x="-279" y="-1128" on="1"/>
        <pt x="-251" y="-1128" on="0"/>
        <pt x="-233" y="-1120" on="1"/>
        <pt x="-214" y="-1115" on="0"/>
        <pt x="-214" y="-1063" on="1"/>
        <pt x="-214" y="-967" on="1"/>
        <pt x="-214" y="-940" on="0"/>
        <pt x="-319" y="-930" on="1"/>
        <pt x="-355" y="-928" on="0"/>
        <pt x="-355" y="-910" on="1"/>
        <pt x="-355" y="-891" on="0"/>
        <pt x="-335" y="-865" on="1"/>
        <pt x="-237" y="-700" on="1"/>
        <pt x="-14" y="-700" on="1"/>
        <pt x="-14" y="-755" on="0"/>
        <pt x="-34" y="-793" on="1"/>
        <pt x="-52" y="-827" on="0"/>
        <pt x="-67" y="-827" on="1"/>
        <pt x="-69" y="-827" on="0"/>
        <pt x="-71" y="-826" on="1"/>
        <pt x="-89" y="-821" on="0"/>
        <pt x="-89" y="-805" on="1"/>
        <pt x="-89" y="-790" on="0"/>
        <pt x="-126" y="-790" on="1"/>
        <pt x="-223" y="-790" on="1"/>
        <pt x="-252" y="-845" on="1"/>
        <pt x="-159" y="-856" on="0"/>
        <pt x="-113" y="-880" on="1"/>
        <pt x="-66" y="-902" on="0"/>
        <pt x="-66" y="-938" on="1"/>
        <pt x="-66" y="-1055" on="1"/>
        <pt x="-42" y="-1070" on="0"/>
        <pt x="25" y="-1091" on="1"/>
        <pt x="135" y="-1128" on="0"/>
        <pt x="162" y="-1128" on="1"/>
        <pt x="200" y="-1128" on="0"/>
        <pt x="200" y="-1020" on="1"/>
        <pt x="200" y="860" on="1"/>
        <pt x="200" y="920" on="0"/>
        <pt x="58" y="940" on="1"/>
        <pt x="10" y="946" on="0"/>
        <pt x="10" y="986" on="1"/>
        <pt x="10" y="1026" on="0"/>
        <pt x="35" y="1086" on="1"/>
        <pt x="200" y="1500" on="1"/>
        <pt x="500" y="1500" on="1"/>
        <pt x="500" y="1378" on="0"/>
        <pt x="474" y="1293" on="1"/>
        <pt x="447" y="1207" on="0"/>
        <pt x="384" y="1170" on="1"/>
        <pt x="400" y="1231" on="0"/>
        <pt x="400" y="1266" on="1"/>
        <pt x="400" y="1300" on="0"/>
        <pt x="350" y="1300" on="1"/>
        <pt x="217" y="1300" on="1"/>
        <pt x="148" y="1127" on="1"/>
        <pt x="274" y="1104" on="0"/>
        <pt x="337" y="1053" on="1"/>
        <pt x="400" y="1003" on="0"/>
        <pt x="400" y="924" on="1"/>
      </contour>
    </TTGlyph>
    <TTGlyph name="glyph189" xMin="-1000" yMin="-1200" xMax="500" yMax="1500">
      <contour>
        <pt x="-334" y="-1032" on="1"/>
        <pt x="-382" y="-1050" on="1"/>
        <pt x="-334" y="-1078" on="1"/>
      </contour>
      <contour>
        <pt x="-704" y="-1099" on="1"/>
        <pt x="-633" y="-1060" on="0"/>
        <pt x="-633" y="-1038" on="1"/>
        <pt x="-633" y="-1025" on="0"/>
        <pt x="-667" y="-1025" on="1"/>
        <pt x="-704" y="-1025" on="1"/>
      </contour>
      <contour>
        <pt x="200" y="860" on="1"/>
        <pt x="200" y="920" on="0"/>
        <pt x="58" y="940" on="1"/>
        <pt x="10" y="946" on="0"/>
        <pt x="10" y="986" on="1"/>
        <pt x="10" y="1026" on="0"/>
        <pt x="35" y="1086" on="1"/>
        <pt x="200" y="1500" on="1"/>
        <pt x="500" y="1500" on="1"/>
        <pt x="500" y="1378" on="0"/>
        <pt x="474" y="1293" on="1"/>
        <pt x="447" y="1207" on="0"/>
        <pt x="384" y="1170" on="1"/>
        <pt x="400" y="1231" on="0"/>
        <pt x="400" y="1266" on="1"/>
        <pt x="400" y="1300" on="0"/>
        <pt x="350" y="1300" on="1"/>
        <pt x="217" y="1300" on="1"/>
        <pt x="148" y="1127" on="1"/>
        <pt x="274" y="1104" on="0"/>
        <pt x="337" y="1053" on="1"/>
        <pt x="400" y="1003" on="0"/>
        <pt x="400" y="924" on="1"/>
        <pt x="400" y="-1020" on="1"/>
        <pt x="400" y="-1092" on="0"/>
        <pt x="282" y="-1200" on="0"/>
        <pt x="164" y="-1200" on="1"/>
        <pt x="66" y="-1200" on="0"/>
        <pt x="16" y="-1160" on="1"/>
        <pt x="-33" y="-1123" on="0"/>
        <pt x="-33" y="-1090" on="1"/>
        <pt x="-33" y="-1058" on="0"/>
        <pt x="-62" y="-1041" on="1"/>
        <pt x="-93" y="-1025" on="0"/>
        <pt x="-152" y="-1025" on="1"/>
        <pt x="-152" y="-1134" on="1"/>
        <pt x="-245" y="-1200" on="1"/>
        <pt x="-349" y="-1200" on="1"/>
        <pt x="-369" y="-1175" on="0"/>
        <pt x="-424" y="-1151" on="1"/>
        <pt x="-511" y="-1112" on="0"/>
        <pt x="-511" y="-1068" on="1"/>
        <pt x="-511" y="-1047" on="0"/>
        <pt x="-465" y="-1033" on="1"/>
        <pt x="-336" y="-990" on="1"/>
        <pt x="-336" y="-785" on="1"/>
        <pt x="-428" y="-785" on="1"/>
        <pt x="-510" y="-785" on="0"/>
        <pt x="-620" y="-856" on="1"/>
        <pt x="-613" y="-839" on="1"/>
        <pt x="-608" y="-825" on="0"/>
        <pt x="-608" y="-815" on="1"/>
        <pt x="-608" y="-785" on="0"/>
        <pt x="-649" y="-785" on="1"/>
        <pt x="-891" y="-785" on="1"/>
        <pt x="-918" y="-822" on="1"/>
        <pt x="-820" y="-831" on="0"/>
        <pt x="-762" y="-854" on="1"/>
        <pt x="-704" y="-876" on="0"/>
        <pt x="-704" y="-910" on="1"/>
        <pt x="-704" y="-960" on="1"/>
        <pt x="-667" y="-960" on="1"/>
        <pt x="-598" y="-960" on="0"/>
        <pt x="-564" y="-974" on="1"/>
        <pt x="-529" y="-988" on="0"/>
        <pt x="-529" y="-1016" on="1"/>
        <pt x="-529" y="-1068" on="0"/>
        <pt x="-646" y="-1134" on="1"/>
        <pt x="-765" y="-1200" on="1"/>
        <pt x="-793" y="-1200" on="1"/>
        <pt x="-888" y="-1155" on="1"/>
        <pt x="-888" y="-938" on="1"/>
        <pt x="-888" y="-911" on="0"/>
        <pt x="-999" y="-903" on="1"/>
        <pt x="-1000" y="-813" on="1"/>
        <pt x="-907" y="-700" on="1"/>
        <pt x="-612" y="-700" on="1"/>
        <pt x="-548" y="-700" on="0"/>
        <pt x="-548" y="-755" on="1"/>
        <pt x="-479" y="-700" on="0"/>
        <pt x="-401" y="-700" on="1"/>
        <pt x="-152" y="-700" on="1"/>
        <pt x="-152" y="-982" on="1"/>
        <pt x="-25" y="-982" on="0"/>
        <pt x="37" y="-1008" on="1"/>
        <pt x="100" y="-1036" on="0"/>
        <pt x="100" y="-1076" on="1"/>
        <pt x="100" y="-1112" on="0"/>
        <pt x="150" y="-1112" on="1"/>
        <pt x="200" y="-1112" on="0"/>
        <pt x="200" y="-1056" on="1"/>
      </contour>
    </TTGlyph>
    <TTGlyph name="glyph190" xMin="-400" yMin="-1200" xMax="500" yMax="1500">
      <contour>
        <pt x="-200" y="-863" on="1"/>
        <pt x="-150" y="-841" on="0"/>
        <pt x="-150" y="-805" on="1"/>
        <pt x="-150" y="-784" on="0"/>
        <pt x="-169" y="-784" on="1"/>
        <pt x="-181" y="-784" on="0"/>
        <pt x="-200" y="-792" on="1"/>
      </contour>
      <contour>
        <pt x="200" y="860" on="1"/>
        <pt x="200" y="920" on="0"/>
        <pt x="58" y="940" on="1"/>
        <pt x="10" y="946" on="0"/>
        <pt x="10" y="986" on="1"/>
        <pt x="10" y="1026" on="0"/>
        <pt x="35" y="1086" on="1"/>
        <pt x="200" y="1500" on="1"/>
        <pt x="500" y="1500" on="1"/>
        <pt x="500" y="1378" on="0"/>
        <pt x="474" y="1293" on="1"/>
        <pt x="447" y="1207" on="0"/>
        <pt x="384" y="1170" on="1"/>
        <pt x="400" y="1231" on="0"/>
        <pt x="400" y="1266" on="1"/>
        <pt x="400" y="1300" on="0"/>
        <pt x="350" y="1300" on="1"/>
        <pt x="217" y="1300" on="1"/>
        <pt x="148" y="1127" on="1"/>
        <pt x="274" y="1104" on="0"/>
        <pt x="337" y="1053" on="1"/>
        <pt x="400" y="1003" on="0"/>
        <pt x="400" y="924" on="1"/>
        <pt x="400" y="-1115" on="1"/>
        <pt x="247" y="-1200" on="1"/>
        <pt x="120" y="-1200" on="1"/>
        <pt x="-74" y="-1048" on="1"/>
        <pt x="-269" y="-1200" on="1"/>
        <pt x="-294" y="-1200" on="1"/>
        <pt x="-400" y="-1131" on="1"/>
        <pt x="-400" y="-833" on="1"/>
        <pt x="-400" y="-800" on="0"/>
        <pt x="-299" y="-750" on="1"/>
        <pt x="-198" y="-700" on="0"/>
        <pt x="-129" y="-700" on="1"/>
        <pt x="-64" y="-700" on="0"/>
        <pt x="-32" y="-723" on="1"/>
        <pt x="0" y="-747" on="0"/>
        <pt x="0" y="-796" on="1"/>
        <pt x="0" y="-830" on="0"/>
        <pt x="-50" y="-865" on="1"/>
        <pt x="-100" y="-900" on="0"/>
        <pt x="-200" y="-933" on="1"/>
        <pt x="-200" y="-1060" on="1"/>
        <pt x="0" y="-900" on="1"/>
        <pt x="200" y="-1060" on="1"/>
      </contour>
    </TTGlyph>
    <TTGlyph name="glyph191" xMin="-400" yMin="-1200" xMax="500" yMax="1500">
      <contour>
        <pt x="-200" y="-863" on="1"/>
        <pt x="-150" y="-841" on="0"/>
        <pt x="-150" y="-805" on="1"/>
        <pt x="-150" y="-784" on="0"/>
        <pt x="-169" y="-784" on="1"/>
        <pt x="-181" y="-784" on="0"/>
        <pt x="-200" y="-792" on="1"/>
      </contour>
      <contour>
        <pt x="200" y="860" on="1"/>
        <pt x="200" y="920" on="0"/>
        <pt x="58" y="940" on="1"/>
        <pt x="10" y="946" on="0"/>
        <pt x="10" y="986" on="1"/>
        <pt x="10" y="1026" on="0"/>
        <pt x="35" y="1086" on="1"/>
        <pt x="200" y="1500" on="1"/>
        <pt x="500" y="1500" on="1"/>
        <pt x="500" y="1378" on="0"/>
        <pt x="474" y="1293" on="1"/>
        <pt x="447" y="1207" on="0"/>
        <pt x="384" y="1170" on="1"/>
        <pt x="400" y="1231" on="0"/>
        <pt x="400" y="1266" on="1"/>
        <pt x="400" y="1300" on="0"/>
        <pt x="350" y="1300" on="1"/>
        <pt x="217" y="1300" on="1"/>
        <pt x="148" y="1127" on="1"/>
        <pt x="274" y="1104" on="0"/>
        <pt x="337" y="1053" on="1"/>
        <pt x="400" y="1003" on="0"/>
        <pt x="400" y="924" on="1"/>
        <pt x="400" y="-1000" on="1"/>
        <pt x="400" y="-1066" on="0"/>
        <pt x="225" y="-1133" on="1"/>
        <pt x="50" y="-1200" on="0"/>
        <pt x="0" y="-1200" on="1"/>
        <pt x="-50" y="-1200" on="0"/>
        <pt x="-159" y="-1157" on="1"/>
        <pt x="-400" y="-1066" on="0"/>
        <pt x="-400" y="-1000" on="1"/>
        <pt x="-400" y="-833" on="1"/>
        <pt x="-400" y="-800" on="0"/>
        <pt x="-299" y="-750" on="1"/>
        <pt x="-198" y="-700" on="0"/>
        <pt x="-129" y="-700" on="1"/>
        <pt x="-64" y="-700" on="0"/>
        <pt x="-32" y="-723" on="1"/>
        <pt x="0" y="-747" on="0"/>
        <pt x="0" y="-796" on="1"/>
        <pt x="0" y="-830" on="0"/>
        <pt x="-50" y="-865" on="1"/>
        <pt x="-100" y="-900" on="0"/>
        <pt x="-200" y="-933" on="1"/>
        <pt x="-200" y="-966" on="1"/>
        <pt x="-200" y="-989" on="0"/>
        <pt x="-62" y="-1042" on="1"/>
        <pt x="77" y="-1095" on="0"/>
        <pt x="114" y="-1095" on="1"/>
        <pt x="151" y="-1095" on="0"/>
        <pt x="175" y="-1085" on="1"/>
        <pt x="200" y="-1075" on="0"/>
        <pt x="200" y="-1000" on="1"/>
      </contour>
    </TTGlyph>
    <TTGlyph name="glyph192" xMin="10" yMin="-1200" xMax="1000" yMax="1500">
      <contour>
        <pt x="400" y="-908" on="1"/>
        <pt x="400" y="-936" on="0"/>
        <pt x="538" y="-1003" on="1"/>
        <pt x="677" y="-1069" on="0"/>
        <pt x="714" y="-1069" on="1"/>
        <pt x="751" y="-1069" on="0"/>
        <pt x="775" y="-1056" on="1"/>
        <pt x="800" y="-1045" on="0"/>
        <pt x="800" y="-950" on="1"/>
        <pt x="800" y="-825" on="1"/>
        <pt x="913" y="-730" on="1"/>
        <pt x="950" y="-700" on="0"/>
        <pt x="975" y="-700" on="1"/>
        <pt x="1000" y="-700" on="0"/>
        <pt x="1000" y="-741" on="1"/>
        <pt x="1000" y="-950" on="1"/>
        <pt x="1000" y="-1033" on="0"/>
        <pt x="825" y="-1116" on="1"/>
        <pt x="650" y="-1200" on="0"/>
        <pt x="600" y="-1200" on="1"/>
        <pt x="550" y="-1200" on="0"/>
        <pt x="441" y="-1147" on="1"/>
        <pt x="200" y="-1033" on="0"/>
        <pt x="200" y="-950" on="1"/>
        <pt x="200" y="860" on="1"/>
        <pt x="200" y="920" on="0"/>
        <pt x="58" y="940" on="1"/>
        <pt x="10" y="946" on="0"/>
        <pt x="10" y="986" on="1"/>
        <pt x="10" y="1026" on="0"/>
        <pt x="35" y="1086" on="1"/>
        <pt x="200" y="1500" on="1"/>
        <pt x="500" y="1500" on="1"/>
        <pt x="500" y="1378" on="0"/>
        <pt x="474" y="1293" on="1"/>
        <pt x="447" y="1207" on="0"/>
        <pt x="384" y="1170" on="1"/>
        <pt x="400" y="1231" on="0"/>
        <pt x="400" y="1266" on="1"/>
        <pt x="400" y="1300" on="0"/>
        <pt x="350" y="1300" on="1"/>
        <pt x="217" y="1300" on="1"/>
        <pt x="148" y="1127" on="1"/>
        <pt x="274" y="1104" on="0"/>
        <pt x="337" y="1053" on="1"/>
        <pt x="400" y="1003" on="0"/>
        <pt x="400" y="924" on="1"/>
      </contour>
    </TTGlyph>
    <TTGlyph name="glyph193" xMin="-560" yMin="-1200" xMax="575" yMax="1500">
      <contour>
        <pt x="-400" y="-875" on="1"/>
        <pt x="-400" y="-841" on="1"/>
        <pt x="-442" y="-863" on="0"/>
        <pt x="-442" y="-875" on="1"/>
        <pt x="-442" y="-877" on="0"/>
        <pt x="-440" y="-879" on="1"/>
        <pt x="-436" y="-884" on="0"/>
        <pt x="-428" y="-884" on="1"/>
        <pt x="-417" y="-884" on="0"/>
      </contour>
      <contour>
        <pt x="200" y="5" on="1"/>
        <pt x="123" y="15" on="0"/>
        <pt x="30" y="46" on="1"/>
        <pt x="142" y="259" on="1"/>
        <pt x="171" y="232" on="0"/>
        <pt x="200" y="211" on="1"/>
        <pt x="200" y="860" on="1"/>
        <pt x="200" y="920" on="0"/>
        <pt x="58" y="940" on="1"/>
        <pt x="10" y="946" on="0"/>
        <pt x="10" y="986" on="1"/>
        <pt x="10" y="1026" on="0"/>
        <pt x="35" y="1086" on="1"/>
        <pt x="200" y="1500" on="1"/>
        <pt x="500" y="1500" on="1"/>
        <pt x="500" y="1378" on="0"/>
        <pt x="474" y="1293" on="1"/>
        <pt x="447" y="1207" on="0"/>
        <pt x="384" y="1170" on="1"/>
        <pt x="400" y="1231" on="0"/>
        <pt x="400" y="1266" on="1"/>
        <pt x="400" y="1300" on="0"/>
        <pt x="350" y="1300" on="1"/>
        <pt x="217" y="1300" on="1"/>
        <pt x="148" y="1127" on="1"/>
        <pt x="274" y="1104" on="0"/>
        <pt x="337" y="1053" on="1"/>
        <pt x="400" y="1003" on="0"/>
        <pt x="400" y="924" on="1"/>
        <pt x="400" y="126" on="1"/>
        <pt x="422" y="124" on="0"/>
        <pt x="446" y="124" on="1"/>
        <pt x="503" y="124" on="0"/>
        <pt x="575" y="136" on="1"/>
        <pt x="482" y="57" on="0"/>
        <pt x="400" y="24" on="1"/>
        <pt x="400" y="-985" on="1"/>
        <pt x="400" y="-1056" on="0"/>
        <pt x="225" y="-1128" on="1"/>
        <pt x="50" y="-1200" on="0"/>
        <pt x="0" y="-1200" on="1"/>
        <pt x="-50" y="-1200" on="0"/>
        <pt x="-159" y="-1155" on="1"/>
        <pt x="-400" y="-1056" on="0"/>
        <pt x="-400" y="-985" on="1"/>
        <pt x="-400" y="-942" on="1"/>
        <pt x="-430" y="-953" on="0"/>
        <pt x="-456" y="-953" on="1"/>
        <pt x="-486" y="-953" on="0"/>
        <pt x="-511" y="-939" on="1"/>
        <pt x="-560" y="-914" on="0"/>
        <pt x="-560" y="-878" on="1"/>
        <pt x="-560" y="-842" on="0"/>
        <pt x="-470" y="-770" on="1"/>
        <pt x="-380" y="-700" on="0"/>
        <pt x="-320" y="-700" on="1"/>
        <pt x="-261" y="-700" on="0"/>
        <pt x="-200" y="-742" on="1"/>
        <pt x="-200" y="-950" on="1"/>
        <pt x="-200" y="-974" on="0"/>
        <pt x="-62" y="-1030" on="1"/>
        <pt x="77" y="-1087" on="0"/>
        <pt x="114" y="-1087" on="1"/>
        <pt x="151" y="-1087" on="0"/>
        <pt x="175" y="-1076" on="1"/>
        <pt x="200" y="-1066" on="0"/>
        <pt x="200" y="-985" on="1"/>
      </contour>
    </TTGlyph>
    <TTGlyph name="glyph194" xMin="-800" yMin="1700" xMax="67" yMax="2238">
      <contour>
        <pt x="-558" y="1955" on="0"/>
        <pt x="-443" y="1966" on="1"/>
        <pt x="-433" y="1967" on="0"/>
        <pt x="-422" y="1967" on="1"/>
        <pt x="-302" y="1967" on="0"/>
        <pt x="-24" y="1871" on="1"/>
        <pt x="-9" y="1893" on="1"/>
        <pt x="-225" y="2003" on="1"/>
        <pt x="-334" y="2050" on="0"/>
        <pt x="-431" y="2050" on="1"/>
        <pt x="-449" y="2050" on="1"/>
        <pt x="-554" y="2046" on="0"/>
        <pt x="-656" y="1872" on="1"/>
      </contour>
      <contour>
        <pt x="-764" y="1858" on="1"/>
        <pt x="-710" y="2026" on="0"/>
        <pt x="-638" y="2119" on="1"/>
        <pt x="-567" y="2212" on="0"/>
        <pt x="-477" y="2229" on="1"/>
        <pt x="-425" y="2238" on="0"/>
        <pt x="-375" y="2238" on="1"/>
        <pt x="-337" y="2238" on="0"/>
        <pt x="-300" y="2233" on="1"/>
        <pt x="-213" y="2221" on="0"/>
        <pt x="-85" y="2157" on="1"/>
        <pt x="42" y="2088" on="0"/>
        <pt x="62" y="2008" on="1"/>
        <pt x="67" y="1988" on="0"/>
        <pt x="67" y="1969" on="1"/>
        <pt x="67" y="1912" on="0"/>
        <pt x="22" y="1862" on="1"/>
        <pt x="-99" y="1700" on="1"/>
        <pt x="-224" y="1734" on="1"/>
        <pt x="-411" y="1785" on="0"/>
        <pt x="-555" y="1788" on="1"/>
        <pt x="-572" y="1788" on="1"/>
        <pt x="-705" y="1788" on="0"/>
        <pt x="-800" y="1745" on="1"/>
      </contour>
    </TTGlyph>
    <TTGlyph name="glyph195" xMin="-800" yMin="1700" xMax="199" yMax="2330">
      <contour>
        <pt x="-558" y="1955" on="0"/>
        <pt x="-443" y="1966" on="1"/>
        <pt x="-433" y="1967" on="0"/>
        <pt x="-422" y="1967" on="1"/>
        <pt x="-302" y="1967" on="0"/>
        <pt x="-24" y="1871" on="1"/>
        <pt x="-9" y="1893" on="1"/>
        <pt x="-225" y="2003" on="1"/>
        <pt x="-334" y="2050" on="0"/>
        <pt x="-431" y="2050" on="1"/>
        <pt x="-449" y="2050" on="1"/>
        <pt x="-554" y="2046" on="0"/>
        <pt x="-656" y="1872" on="1"/>
      </contour>
      <contour>
        <pt x="50" y="1898" on="1"/>
        <pt x="-99" y="1700" on="1"/>
        <pt x="-224" y="1734" on="1"/>
        <pt x="-411" y="1785" on="0"/>
        <pt x="-555" y="1788" on="1"/>
        <pt x="-572" y="1788" on="1"/>
        <pt x="-705" y="1788" on="0"/>
        <pt x="-800" y="1745" on="1"/>
        <pt x="-764" y="1858" on="1"/>
        <pt x="-710" y="2026" on="0"/>
        <pt x="-638" y="2119" on="1"/>
        <pt x="-567" y="2212" on="0"/>
        <pt x="-477" y="2229" on="1"/>
        <pt x="-426" y="2238" on="0"/>
        <pt x="-375" y="2238" on="1"/>
        <pt x="-337" y="2238" on="0"/>
        <pt x="-300" y="2233" on="1"/>
        <pt x="-213" y="2221" on="0"/>
        <pt x="-85" y="2157" on="1"/>
        <pt x="42" y="2088" on="0"/>
        <pt x="62" y="2008" on="1"/>
        <pt x="99" y="2073" on="0"/>
        <pt x="99" y="2104" on="1"/>
        <pt x="99" y="2140" on="0"/>
        <pt x="57" y="2192" on="1"/>
        <pt x="151" y="2330" on="1"/>
        <pt x="175" y="2289" on="1"/>
        <pt x="199" y="2247" on="0"/>
        <pt x="199" y="2172" on="1"/>
        <pt x="199" y="2096" on="0"/>
      </contour>
    </TTGlyph>
    <TTGlyph name="glyph196" xMin="-800" yMin="1700" xMax="199" yMax="2453">
      <contour>
        <pt x="-558" y="1955" on="0"/>
        <pt x="-443" y="1966" on="1"/>
        <pt x="-433" y="1967" on="0"/>
        <pt x="-422" y="1967" on="1"/>
        <pt x="-302" y="1967" on="0"/>
        <pt x="-24" y="1871" on="1"/>
        <pt x="-9" y="1893" on="1"/>
        <pt x="-225" y="2003" on="1"/>
        <pt x="-334" y="2050" on="0"/>
        <pt x="-431" y="2050" on="1"/>
        <pt x="-449" y="2050" on="1"/>
        <pt x="-554" y="2046" on="0"/>
        <pt x="-656" y="1872" on="1"/>
      </contour>
      <contour>
        <pt x="65" y="1998" on="1"/>
        <pt x="68" y="1983" on="0"/>
        <pt x="68" y="1969" on="1"/>
        <pt x="68" y="1912" on="0"/>
        <pt x="22" y="1862" on="1"/>
        <pt x="-99" y="1700" on="1"/>
        <pt x="-224" y="1734" on="1"/>
        <pt x="-411" y="1785" on="0"/>
        <pt x="-555" y="1788" on="1"/>
        <pt x="-572" y="1788" on="1"/>
        <pt x="-705" y="1788" on="0"/>
        <pt x="-800" y="1745" on="1"/>
        <pt x="-764" y="1858" on="1"/>
        <pt x="-710" y="2026" on="0"/>
        <pt x="-638" y="2119" on="1"/>
        <pt x="-567" y="2212" on="0"/>
        <pt x="-477" y="2229" on="1"/>
        <pt x="-426" y="2238" on="0"/>
        <pt x="-375" y="2238" on="1"/>
        <pt x="-337" y="2238" on="0"/>
        <pt x="-300" y="2233" on="1"/>
        <pt x="-295" y="2232" on="0"/>
        <pt x="-291" y="2232" on="1"/>
        <pt x="-286" y="2284" on="0"/>
        <pt x="-258" y="2333" on="1"/>
        <pt x="-225" y="2391" on="0"/>
        <pt x="-108" y="2453" on="0"/>
        <pt x="-46" y="2453" on="1"/>
        <pt x="15" y="2453" on="0"/>
        <pt x="132" y="2391" on="0"/>
        <pt x="199" y="2275" on="0"/>
        <pt x="199" y="2212" on="1"/>
        <pt x="199" y="2150" on="0"/>
        <pt x="134" y="2036" on="0"/>
        <pt x="76" y="2005" on="1"/>
        <pt x="71" y="2001" on="0"/>
      </contour>
      <contour>
        <pt x="-59" y="2322" on="0"/>
        <pt x="-105" y="2335" on="1"/>
        <pt x="-121" y="2340" on="0"/>
        <pt x="-135" y="2340" on="1"/>
        <pt x="-160" y="2340" on="0"/>
        <pt x="-178" y="2323" on="1"/>
        <pt x="-193" y="2307" on="0"/>
        <pt x="-193" y="2288" on="1"/>
        <pt x="-193" y="2273" on="0"/>
        <pt x="-185" y="2257" on="1"/>
        <pt x="-166" y="2217" on="0"/>
        <pt x="-100" y="2163" on="1"/>
        <pt x="-33" y="2109" on="0"/>
        <pt x="12" y="2096" on="1"/>
        <pt x="28" y="2091" on="0"/>
        <pt x="42" y="2091" on="1"/>
        <pt x="67" y="2091" on="0"/>
        <pt x="85" y="2108" on="1"/>
        <pt x="100" y="2123" on="0"/>
        <pt x="100" y="2143" on="1"/>
        <pt x="100" y="2157" on="0"/>
        <pt x="92" y="2174" on="1"/>
        <pt x="73" y="2213" on="0"/>
        <pt x="7" y="2267" on="1"/>
      </contour>
    </TTGlyph>
    <TTGlyph name="glyph197" xMin="-800" yMin="1700" xMax="199" yMax="2470">
      <contour>
        <pt x="-558" y="1955" on="0"/>
        <pt x="-443" y="1966" on="1"/>
        <pt x="-433" y="1967" on="0"/>
        <pt x="-422" y="1967" on="1"/>
        <pt x="-302" y="1967" on="0"/>
        <pt x="-24" y="1871" on="1"/>
        <pt x="-9" y="1893" on="1"/>
        <pt x="-225" y="2003" on="1"/>
        <pt x="-334" y="2050" on="0"/>
        <pt x="-431" y="2050" on="1"/>
        <pt x="-449" y="2050" on="1"/>
        <pt x="-554" y="2046" on="0"/>
        <pt x="-656" y="1872" on="1"/>
      </contour>
      <contour>
        <pt x="-71" y="2150" on="1"/>
        <pt x="44" y="2084" on="0"/>
        <pt x="62" y="2008" on="1"/>
        <pt x="99" y="2073" on="0"/>
        <pt x="99" y="2104" on="1"/>
        <pt x="99" y="2140" on="0"/>
        <pt x="57" y="2192" on="1"/>
        <pt x="151" y="2330" on="1"/>
        <pt x="175" y="2289" on="1"/>
        <pt x="199" y="2247" on="0"/>
        <pt x="199" y="2172" on="1"/>
        <pt x="199" y="2096" on="0"/>
        <pt x="50" y="1898" on="1"/>
        <pt x="-99" y="1700" on="1"/>
        <pt x="-224" y="1734" on="1"/>
        <pt x="-411" y="1785" on="0"/>
        <pt x="-555" y="1788" on="1"/>
        <pt x="-572" y="1788" on="1"/>
        <pt x="-705" y="1788" on="0"/>
        <pt x="-800" y="1745" on="1"/>
        <pt x="-764" y="1858" on="1"/>
        <pt x="-710" y="2026" on="0"/>
        <pt x="-638" y="2119" on="1"/>
        <pt x="-567" y="2212" on="0"/>
        <pt x="-477" y="2229" on="1"/>
        <pt x="-426" y="2238" on="0"/>
        <pt x="-375" y="2238" on="1"/>
        <pt x="-337" y="2238" on="0"/>
        <pt x="-300" y="2233" on="1"/>
        <pt x="-226" y="2223" on="0"/>
        <pt x="-123" y="2175" on="1"/>
        <pt x="-101" y="2220" on="0"/>
        <pt x="-101" y="2244" on="1"/>
        <pt x="-101" y="2280" on="0"/>
        <pt x="-143" y="2332" on="1"/>
        <pt x="-49" y="2470" on="1"/>
        <pt x="-25" y="2429" on="1"/>
        <pt x="-1" y="2387" on="0"/>
        <pt x="-1" y="2312" on="1"/>
        <pt x="-1" y="2260" on="0"/>
      </contour>
    </TTGlyph>
    <TTGlyph name="glyph198" xMin="-619" yMin="1599" xMax="-70" yMax="2198">
      <contour>
        <pt x="-359" y="2034" on="0"/>
        <pt x="-410" y="2051" on="1"/>
        <pt x="-427" y="2057" on="0"/>
        <pt x="-442" y="2057" on="1"/>
        <pt x="-471" y="2057" on="0"/>
        <pt x="-491" y="2035" on="1"/>
        <pt x="-508" y="2017" on="0"/>
        <pt x="-508" y="1992" on="1"/>
        <pt x="-508" y="1974" on="0"/>
        <pt x="-499" y="1953" on="1"/>
        <pt x="-478" y="1904" on="0"/>
        <pt x="-404" y="1837" on="1"/>
        <pt x="-330" y="1769" on="0"/>
        <pt x="-279" y="1752" on="1"/>
        <pt x="-262" y="1746" on="0"/>
        <pt x="-247" y="1746" on="1"/>
        <pt x="-218" y="1746" on="0"/>
        <pt x="-198" y="1768" on="1"/>
        <pt x="-181" y="1786" on="0"/>
        <pt x="-181" y="1811" on="1"/>
        <pt x="-181" y="1829" on="0"/>
        <pt x="-190" y="1850" on="1"/>
        <pt x="-211" y="1899" on="0"/>
        <pt x="-285" y="1966" on="1"/>
      </contour>
      <contour>
        <pt x="-345" y="2198" on="1"/>
        <pt x="-276" y="2198" on="0"/>
        <pt x="-145" y="2120" on="0"/>
        <pt x="-70" y="1976" on="0"/>
        <pt x="-70" y="1897" on="1"/>
        <pt x="-70" y="1820" on="0"/>
        <pt x="-143" y="1678" on="0"/>
        <pt x="-273" y="1599" on="0"/>
        <pt x="-345" y="1599" on="1"/>
        <pt x="-416" y="1599" on="0"/>
        <pt x="-547" y="1678" on="0"/>
        <pt x="-619" y="1820" on="0"/>
        <pt x="-619" y="1897" on="1"/>
        <pt x="-619" y="1976" on="0"/>
        <pt x="-545" y="2120" on="0"/>
        <pt x="-414" y="2198" on="0"/>
      </contour>
    </TTGlyph>
    <TTGlyph name="glyph199" xMin="-645" yMin="1600" xMax="-45" yMax="2350">
      <contour>
        <pt x="-245" y="1600" on="1"/>
        <pt x="-245" y="2150" on="1"/>
        <pt x="-45" y="2350" on="1"/>
        <pt x="-45" y="1800" on="1"/>
      </contour>
      <contour>
        <pt x="-645" y="1600" on="1"/>
        <pt x="-645" y="2150" on="1"/>
        <pt x="-445" y="2350" on="1"/>
        <pt x="-445" y="1800" on="1"/>
      </contour>
    </TTGlyph>
    <TTGlyph name="glyph200" xMin="-800" yMin="1599" xMax="297" yMax="2400">
      <contour>
        <pt x="-366" y="1599" on="1"/>
        <pt x="-455" y="1600" on="1"/>
        <pt x="-614" y="1600" on="0"/>
        <pt x="-707" y="1657" on="1"/>
        <pt x="-800" y="1714" on="0"/>
        <pt x="-800" y="1780" on="1"/>
        <pt x="-800" y="1781" on="1"/>
        <pt x="-800" y="1847" on="0"/>
        <pt x="-677" y="2001" on="1"/>
        <pt x="-593" y="2101" on="0"/>
        <pt x="-501" y="2120" on="1"/>
        <pt x="-481" y="2124" on="0"/>
        <pt x="-460" y="2124" on="1"/>
        <pt x="-387" y="2124" on="0"/>
        <pt x="-309" y="2075" on="1"/>
        <pt x="-183" y="1993" on="0"/>
        <pt x="-149" y="1867" on="1"/>
        <pt x="-123" y="1868" on="0"/>
        <pt x="-51" y="2134" on="1"/>
        <pt x="-15" y="2267" on="0"/>
        <pt x="49" y="2333" on="1"/>
        <pt x="113" y="2400" on="0"/>
        <pt x="206" y="2400" on="1"/>
        <pt x="297" y="2400" on="1"/>
        <pt x="206" y="2200" on="1"/>
        <pt x="68" y="2200" on="0"/>
        <pt x="31" y="2075" on="1"/>
        <pt x="-6" y="1950" on="1"/>
        <pt x="-80" y="1700" on="0"/>
        <pt x="-154" y="1700" on="1"/>
        <pt x="-246" y="1806" on="0"/>
        <pt x="-396" y="1900" on="1"/>
        <pt x="-497" y="1962" on="0"/>
        <pt x="-559" y="1962" on="1"/>
        <pt x="-598" y="1962" on="0"/>
        <pt x="-622" y="1937" on="1"/>
        <pt x="-649" y="1907" on="0"/>
        <pt x="-649" y="1882" on="1"/>
        <pt x="-649" y="1850" on="0"/>
        <pt x="-608" y="1823" on="1"/>
        <pt x="-407" y="1700" on="0"/>
        <pt x="-302" y="1700" on="1"/>
      </contour>
    </TTGlyph>
    <TTGlyph name="glyph201" xMin="-800" yMin="1605" xMax="395" yMax="2490">
      <contour>
        <pt x="-606" y="1851" on="0"/>
        <pt x="-514" y="1862" on="1"/>
        <pt x="-506" y="1863" on="0"/>
        <pt x="-496" y="1863" on="1"/>
        <pt x="-400" y="1863" on="0"/>
        <pt x="-180" y="1770" on="1"/>
        <pt x="-168" y="1791" on="1"/>
        <pt x="-340" y="1898" on="1"/>
        <pt x="-427" y="1943" on="0"/>
        <pt x="-504" y="1943" on="1"/>
        <pt x="-519" y="1943" on="1"/>
        <pt x="-603" y="1939" on="0"/>
        <pt x="-684" y="1771" on="1"/>
      </contour>
      <contour>
        <pt x="-112" y="1824" on="1"/>
        <pt x="-121" y="1791" on="0"/>
        <pt x="-143" y="1762" on="1"/>
        <pt x="-240" y="1605" on="1"/>
        <pt x="-339" y="1638" on="1"/>
        <pt x="-489" y="1687" on="0"/>
        <pt x="-604" y="1690" on="1"/>
        <pt x="-618" y="1690" on="1"/>
        <pt x="-724" y="1690" on="0"/>
        <pt x="-800" y="1648" on="1"/>
        <pt x="-771" y="1758" on="1"/>
        <pt x="-728" y="1920" on="0"/>
        <pt x="-670" y="2010" on="1"/>
        <pt x="-613" y="2100" on="0"/>
        <pt x="-541" y="2116" on="1"/>
        <pt x="-500" y="2125" on="0"/>
        <pt x="-460" y="2125" on="1"/>
        <pt x="-430" y="2125" on="0"/>
        <pt x="-400" y="2120" on="1"/>
        <pt x="-351" y="2112" on="0"/>
        <pt x="-286" y="2079" on="1"/>
        <pt x="-268" y="2114" on="0"/>
        <pt x="-240" y="2158" on="1"/>
        <pt x="-185" y="2241" on="0"/>
        <pt x="-125" y="2256" on="1"/>
        <pt x="-111" y="2260" on="0"/>
        <pt x="-97" y="2260" on="1"/>
        <pt x="-50" y="2260" on="0"/>
        <pt x="-1" y="2219" on="1"/>
        <pt x="82" y="2151" on="0"/>
        <pt x="104" y="2046" on="1"/>
        <pt x="122" y="2047" on="0"/>
        <pt x="168" y="2269" on="1"/>
        <pt x="192" y="2379" on="0"/>
        <pt x="233" y="2434" on="1"/>
        <pt x="276" y="2490" on="0"/>
        <pt x="336" y="2490" on="1"/>
        <pt x="395" y="2490" on="1"/>
        <pt x="336" y="2323" on="1"/>
        <pt x="246" y="2323" on="0"/>
        <pt x="222" y="2219" on="1"/>
        <pt x="197" y="2115" on="1"/>
        <pt x="149" y="1906" on="0"/>
        <pt x="101" y="1906" on="1"/>
        <pt x="41" y="1995" on="0"/>
        <pt x="-57" y="2074" on="1"/>
        <pt x="-122" y="2126" on="0"/>
        <pt x="-163" y="2126" on="1"/>
        <pt x="-188" y="2126" on="0"/>
        <pt x="-204" y="2105" on="1"/>
        <pt x="-221" y="2080" on="0"/>
        <pt x="-221" y="2058" on="1"/>
        <pt x="-221" y="2049" on="0"/>
        <pt x="-218" y="2040" on="1"/>
        <pt x="-170" y="2007" on="0"/>
        <pt x="-143" y="1971" on="1"/>
        <pt x="-50" y="1906" on="0"/>
        <pt x="4" y="1906" on="1"/>
        <pt x="-37" y="1822" on="1"/>
        <pt x="-95" y="1823" on="1"/>
      </contour>
    </TTGlyph>
    <TTGlyph name="glyph202" xMin="-745" yMin="-650" xMax="55" yMax="-50">
      <contour>
        <pt x="-745" y="-650" on="1"/>
        <pt x="-745" y="-274" on="1"/>
        <pt x="-745" y="-200" on="0"/>
        <pt x="-570" y="-124" on="1"/>
        <pt x="-395" y="-50" on="0"/>
        <pt x="-345" y="-50" on="1"/>
        <pt x="-295" y="-50" on="0"/>
        <pt x="-186" y="-97" on="1"/>
        <pt x="55" y="-200" on="0"/>
        <pt x="55" y="-274" on="1"/>
        <pt x="55" y="-521" on="1"/>
        <pt x="-145" y="-650" on="1"/>
        <pt x="-145" y="-312" on="1"/>
        <pt x="-145" y="-286" on="0"/>
        <pt x="-283" y="-226" on="1"/>
        <pt x="-422" y="-167" on="0"/>
        <pt x="-459" y="-167" on="1"/>
        <pt x="-496" y="-167" on="0"/>
        <pt x="-520" y="-178" on="1"/>
        <pt x="-545" y="-188" on="0"/>
        <pt x="-545" y="-274" on="1"/>
        <pt x="-545" y="-521" on="1"/>
      </contour>
    </TTGlyph>
    <TTGlyph name="glyph203" xMin="-745" yMin="-650" xMax="55" yMax="-50">
      <contour>
        <pt x="-745" y="-362" on="0"/>
        <pt x="-745" y="-320" on="1"/>
        <pt x="-745" y="-206" on="1"/>
        <pt x="-745" y="-153" on="0"/>
        <pt x="-570" y="-101" on="1"/>
        <pt x="-395" y="-50" on="0"/>
        <pt x="-345" y="-50" on="1"/>
        <pt x="-295" y="-50" on="0"/>
        <pt x="-186" y="-82" on="1"/>
        <pt x="55" y="-153" on="0"/>
        <pt x="55" y="-253" on="1"/>
        <pt x="55" y="-278" on="0"/>
        <pt x="-245" y="-386" on="1"/>
        <pt x="-545" y="-493" on="1"/>
        <pt x="-545" y="-535" on="0"/>
        <pt x="-520" y="-542" on="1"/>
        <pt x="-496" y="-550" on="0"/>
        <pt x="-459" y="-550" on="1"/>
        <pt x="-422" y="-550" on="0"/>
        <pt x="-283" y="-518" on="1"/>
        <pt x="-145" y="-484" on="0"/>
        <pt x="-145" y="-466" on="1"/>
        <pt x="-145" y="-440" on="1"/>
        <pt x="55" y="-336" on="1"/>
        <pt x="55" y="-493" on="1"/>
        <pt x="55" y="-545" on="0"/>
        <pt x="-186" y="-616" on="1"/>
        <pt x="-295" y="-650" on="0"/>
        <pt x="-345" y="-650" on="1"/>
        <pt x="-395" y="-650" on="0"/>
        <pt x="-570" y="-597" on="1"/>
        <pt x="-745" y="-545" on="0"/>
        <pt x="-745" y="-493" on="1"/>
        <pt x="-745" y="-425" on="1"/>
        <pt x="-545" y="-425" on="0"/>
        <pt x="-345" y="-352" on="1"/>
        <pt x="-145" y="-278" on="0"/>
        <pt x="-145" y="-253" on="1"/>
        <pt x="-145" y="-214" on="0"/>
        <pt x="-283" y="-180" on="1"/>
        <pt x="-422" y="-146" on="0"/>
        <pt x="-459" y="-146" on="1"/>
        <pt x="-496" y="-146" on="0"/>
        <pt x="-520" y="-154" on="1"/>
        <pt x="-545" y="-162" on="0"/>
        <pt x="-545" y="-221" on="1"/>
        <pt x="-445" y="-221" on="0"/>
        <pt x="-445" y="-245" on="1"/>
        <pt x="-445" y="-270" on="0"/>
        <pt x="-645" y="-362" on="0"/>
        <pt x="-700" y="-362" on="1"/>
      </contour>
    </TTGlyph>
    <TTGlyph name="glyph204" xMin="-745" yMin="-650" xMax="55" yMax="-50">
      <contour>
        <pt x="-745" y="-274" on="1"/>
        <pt x="-745" y="-200" on="0"/>
        <pt x="-570" y="-124" on="1"/>
        <pt x="-395" y="-50" on="0"/>
        <pt x="-345" y="-50" on="1"/>
        <pt x="-295" y="-50" on="0"/>
        <pt x="-186" y="-97" on="1"/>
        <pt x="55" y="-200" on="0"/>
        <pt x="55" y="-274" on="1"/>
        <pt x="55" y="-521" on="1"/>
        <pt x="-145" y="-650" on="1"/>
        <pt x="-145" y="-312" on="1"/>
        <pt x="-145" y="-286" on="0"/>
        <pt x="-283" y="-226" on="1"/>
        <pt x="-422" y="-167" on="0"/>
        <pt x="-459" y="-167" on="1"/>
        <pt x="-496" y="-167" on="0"/>
        <pt x="-520" y="-178" on="1"/>
        <pt x="-545" y="-188" on="0"/>
        <pt x="-545" y="-274" on="1"/>
        <pt x="-545" y="-479" on="1"/>
        <pt x="-480" y="-350" on="0"/>
        <pt x="-383" y="-350" on="1"/>
        <pt x="-340" y="-350" on="0"/>
        <pt x="-292" y="-380" on="1"/>
        <pt x="-245" y="-410" on="0"/>
        <pt x="-245" y="-465" on="1"/>
        <pt x="-245" y="-521" on="0"/>
        <pt x="-345" y="-560" on="1"/>
        <pt x="-363" y="-521" on="0"/>
        <pt x="-420" y="-521" on="1"/>
        <pt x="-478" y="-521" on="0"/>
        <pt x="-545" y="-572" on="1"/>
        <pt x="-645" y="-650" on="1"/>
        <pt x="-745" y="-564" on="1"/>
      </contour>
    </TTGlyph>
    <TTGlyph name="glyph205" xMin="-795" yMin="-650" xMax="105" yMax="-50">
      <contour>
        <pt x="-401" y="-202" on="1"/>
        <pt x="-406" y="-202" on="1"/>
        <pt x="-540" y="-202" on="0"/>
        <pt x="-578" y="-251" on="1"/>
        <pt x="-617" y="-302" on="1"/>
        <pt x="-674" y="-377" on="0"/>
        <pt x="-674" y="-409" on="1"/>
        <pt x="-674" y="-421" on="0"/>
        <pt x="-667" y="-427" on="1"/>
        <pt x="-639" y="-450" on="0"/>
        <pt x="-545" y="-450" on="1"/>
        <pt x="-468" y="-450" on="0"/>
        <pt x="-382" y="-350" on="1"/>
        <pt x="-296" y="-250" on="1"/>
        <pt x="-125" y="-50" on="0"/>
        <pt x="-25" y="-50" on="1"/>
        <pt x="75" y="-50" on="0"/>
        <pt x="105" y="-150" on="1"/>
        <pt x="48" y="-150" on="0"/>
        <pt x="-144" y="-372" on="1"/>
        <pt x="-238" y="-476" on="1"/>
        <pt x="-395" y="-650" on="0"/>
        <pt x="-545" y="-650" on="1"/>
        <pt x="-595" y="-650" on="0"/>
        <pt x="-695" y="-554" on="1"/>
        <pt x="-795" y="-458" on="0"/>
        <pt x="-795" y="-331" on="1"/>
        <pt x="-795" y="-204" on="0"/>
        <pt x="-745" y="-147" on="1"/>
        <pt x="-695" y="-90" on="0"/>
        <pt x="-615" y="-90" on="1"/>
        <pt x="-487" y="-90" on="0"/>
      </contour>
    </TTGlyph>
    <TTGlyph name="glyph206" xMin="-784" yMin="-650" xMax="95" yMax="-50">
      <contour>
        <pt x="-113" y="-326" on="0"/>
        <pt x="-113" y="-290" on="1"/>
        <pt x="-113" y="-289" on="1"/>
        <pt x="-113" y="-250" on="0"/>
        <pt x="-165" y="-250" on="1"/>
        <pt x="-239" y="-250" on="0"/>
        <pt x="-239" y="-305" on="1"/>
        <pt x="-239" y="-341" on="0"/>
        <pt x="-163" y="-377" on="1"/>
      </contour>
      <contour>
        <pt x="-66" y="-413" on="1"/>
        <pt x="-62" y="-414" on="0"/>
        <pt x="-58" y="-416" on="1"/>
        <pt x="33" y="-444" on="1"/>
        <pt x="95" y="-463" on="0"/>
        <pt x="95" y="-504" on="1"/>
        <pt x="95" y="-523" on="0"/>
        <pt x="81" y="-548" on="1"/>
        <pt x="49" y="-606" on="0"/>
        <pt x="-4" y="-606" on="1"/>
        <pt x="-22" y="-606" on="0"/>
        <pt x="-41" y="-600" on="1"/>
        <pt x="-140" y="-569" on="0"/>
        <pt x="-205" y="-539" on="1"/>
        <pt x="-248" y="-569" on="0"/>
        <pt x="-295" y="-592" on="1"/>
        <pt x="-414" y="-650" on="0"/>
        <pt x="-507" y="-650" on="1"/>
        <pt x="-601" y="-650" on="0"/>
        <pt x="-692" y="-597" on="1"/>
        <pt x="-784" y="-545" on="0"/>
        <pt x="-784" y="-400" on="1"/>
        <pt x="-784" y="-310" on="0"/>
        <pt x="-634" y="-180" on="1"/>
        <pt x="-484" y="-50" on="1"/>
        <pt x="-434" y="-50" on="0"/>
        <pt x="-434" y="-90" on="1"/>
        <pt x="-434" y="-130" on="0"/>
        <pt x="-484" y="-210" on="1"/>
        <pt x="-584" y="-368" on="0"/>
        <pt x="-584" y="-399" on="1"/>
        <pt x="-584" y="-400" on="1"/>
        <pt x="-584" y="-455" on="0"/>
        <pt x="-547" y="-476" on="1"/>
        <pt x="-532" y="-485" on="0"/>
        <pt x="-497" y="-485" on="1"/>
        <pt x="-451" y="-485" on="0"/>
        <pt x="-370" y="-469" on="1"/>
        <pt x="-342" y="-463" on="0"/>
        <pt x="-318" y="-457" on="1"/>
        <pt x="-319" y="-456" on="0"/>
        <pt x="-320" y="-455" on="1"/>
        <pt x="-362" y="-382" on="0"/>
        <pt x="-363" y="-291" on="1"/>
        <pt x="-363" y="-288" on="1"/>
        <pt x="-363" y="-199" on="0"/>
        <pt x="-306" y="-125" on="1"/>
        <pt x="-248" y="-50" on="0"/>
        <pt x="-166" y="-50" on="1"/>
        <pt x="16" y="-50" on="0"/>
        <pt x="16" y="-187" on="1"/>
        <pt x="16" y="-314" on="0"/>
      </contour>
    </TTGlyph>
    <TTGlyph name="glyph207" xMin="-840" yMin="-650" xMax="150" yMax="-50">
      <contour>
        <pt x="-50" y="-185" on="1"/>
        <pt x="-120" y="-197" on="0"/>
        <pt x="-120" y="-220" on="1"/>
        <pt x="-120" y="-244" on="0"/>
        <pt x="-80" y="-244" on="1"/>
        <pt x="-50" y="-244" on="1"/>
      </contour>
      <contour>
        <pt x="-647" y="-418" on="1"/>
        <pt x="-700" y="-446" on="1"/>
        <pt x="-647" y="-486" on="1"/>
      </contour>
      <contour>
        <pt x="-672" y="-608" on="0"/>
        <pt x="-745" y="-578" on="1"/>
        <pt x="-840" y="-538" on="0"/>
        <pt x="-840" y="-473" on="1"/>
        <pt x="-840" y="-440" on="0"/>
        <pt x="-790" y="-418" on="1"/>
        <pt x="-650" y="-356" on="1"/>
        <pt x="-650" y="-223" on="1"/>
        <pt x="-650" y="-184" on="0"/>
        <pt x="-772" y="-171" on="1"/>
        <pt x="-820" y="-167" on="0"/>
        <pt x="-820" y="-141" on="1"/>
        <pt x="-820" y="-115" on="0"/>
        <pt x="-795" y="-76" on="1"/>
        <pt x="-682" y="-50" on="1"/>
        <pt x="-576" y="-64" on="0"/>
        <pt x="-513" y="-97" on="1"/>
        <pt x="-450" y="-130" on="0"/>
        <pt x="-450" y="-182" on="1"/>
        <pt x="-450" y="-343" on="1"/>
        <pt x="-312" y="-343" on="0"/>
        <pt x="-244" y="-383" on="1"/>
        <pt x="-175" y="-424" on="0"/>
        <pt x="-175" y="-479" on="1"/>
        <pt x="-175" y="-518" on="0"/>
        <pt x="-105" y="-518" on="1"/>
        <pt x="-50" y="-518" on="0"/>
        <pt x="-50" y="-479" on="1"/>
        <pt x="-50" y="-343" on="1"/>
        <pt x="-80" y="-343" on="1"/>
        <pt x="-127" y="-343" on="0"/>
        <pt x="-161" y="-336" on="1"/>
        <pt x="-194" y="-329" on="0"/>
        <pt x="-212" y="-316" on="1"/>
        <pt x="-250" y="-290" on="0"/>
        <pt x="-250" y="-245" on="1"/>
        <pt x="-250" y="-179" on="0"/>
        <pt x="-1" y="-50" on="0"/>
        <pt x="45" y="-50" on="1"/>
        <pt x="150" y="-50" on="0"/>
        <pt x="150" y="-115" on="1"/>
        <pt x="150" y="-479" on="1"/>
        <pt x="150" y="-551" on="0"/>
        <pt x="86" y="-600" on="1"/>
        <pt x="23" y="-649" on="0"/>
        <pt x="-105" y="-649" on="1"/>
        <pt x="-212" y="-649" on="0"/>
        <pt x="-266" y="-591" on="1"/>
        <pt x="-320" y="-535" on="0"/>
        <pt x="-320" y="-479" on="1"/>
        <pt x="-320" y="-457" on="0"/>
        <pt x="-352" y="-432" on="1"/>
        <pt x="-385" y="-408" on="0"/>
        <pt x="-450" y="-408" on="1"/>
        <pt x="-450" y="-596" on="1"/>
        <pt x="-527" y="-649" on="1"/>
        <pt x="-655" y="-650" on="1"/>
      </contour>
    </TTGlyph>
    <TTGlyph name="glyph208" xMin="-795" yMin="-650" xMax="105" yMax="-50">
      <contour>
        <pt x="-195" y="-238" on="1"/>
        <pt x="-195" y="-177" on="1"/>
        <pt x="-195" y="-150" on="0"/>
        <pt x="-235" y="-150" on="1"/>
        <pt x="-275" y="-151" on="0"/>
        <pt x="-275" y="-187" on="1"/>
        <pt x="-275" y="-220" on="0"/>
      </contour>
      <contour>
        <pt x="5" y="-267" on="1"/>
        <pt x="105" y="-296" on="0"/>
        <pt x="105" y="-377" on="1"/>
        <pt x="54" y="-355" on="0"/>
        <pt x="5" y="-340" on="1"/>
        <pt x="5" y="-521" on="1"/>
        <pt x="5" y="-567" on="0"/>
        <pt x="-46" y="-608" on="1"/>
        <pt x="-97" y="-650" on="0"/>
        <pt x="-195" y="-650" on="1"/>
        <pt x="-312" y="-650" on="0"/>
        <pt x="-351" y="-612" on="1"/>
        <pt x="-469" y="-500" on="1"/>
        <pt x="-548" y="-574" on="1"/>
        <pt x="-627" y="-650" on="0"/>
        <pt x="-661" y="-650" on="1"/>
        <pt x="-695" y="-650" on="0"/>
        <pt x="-745" y="-609" on="1"/>
        <pt x="-795" y="-569" on="0"/>
        <pt x="-795" y="-521" on="1"/>
        <pt x="-795" y="-210" on="1"/>
        <pt x="-595" y="-50" on="1"/>
        <pt x="-595" y="-514" on="1"/>
        <pt x="-395" y="-323" on="1"/>
        <pt x="-195" y="-514" on="1"/>
        <pt x="-195" y="-310" on="1"/>
        <pt x="-445" y="-284" on="0"/>
        <pt x="-445" y="-185" on="1"/>
        <pt x="-445" y="-50" on="0"/>
        <pt x="-220" y="-50" on="1"/>
        <pt x="-95" y="-50" on="0"/>
        <pt x="5" y="-129" on="0"/>
        <pt x="5" y="-174" on="1"/>
      </contour>
    </TTGlyph>
    <TTGlyph name="glyph209" xMin="-796" yMin="-600" xMax="106" yMax="-180">
      <contour>
        <pt x="-784" y="-499" on="1"/>
        <pt x="-796" y="-481" on="0"/>
        <pt x="-796" y="-452" on="1"/>
        <pt x="-796" y="-442" on="0"/>
        <pt x="-795" y="-431" on="1"/>
        <pt x="-790" y="-388" on="0"/>
        <pt x="-762" y="-325" on="1"/>
        <pt x="-707" y="-200" on="0"/>
        <pt x="-568" y="-200" on="1"/>
        <pt x="-446" y="-200" on="0"/>
        <pt x="-153" y="-500" on="0"/>
        <pt x="-73" y="-500" on="1"/>
        <pt x="-19" y="-500" on="0"/>
        <pt x="-19" y="-455" on="1"/>
        <pt x="-19" y="-410" on="0"/>
        <pt x="-52" y="-370" on="1"/>
        <pt x="-87" y="-331" on="0"/>
        <pt x="-169" y="-330" on="1"/>
        <pt x="-44" y="-180" on="1"/>
        <pt x="106" y="-240" on="0"/>
        <pt x="106" y="-360" on="1"/>
        <pt x="106" y="-480" on="0"/>
        <pt x="53" y="-540" on="1"/>
        <pt x="0" y="-600" on="0"/>
        <pt x="-72" y="-600" on="1"/>
        <pt x="-325" y="-600" on="0"/>
        <pt x="-597" y="-320" on="0"/>
        <pt x="-657" y="-320" on="1"/>
        <pt x="-718" y="-320" on="0"/>
      </contour>
    </TTGlyph>
    <TTGlyph name="glyph210" xMin="-745" yMin="-650" xMax="55" yMax="-50">
      <contour>
        <pt x="-545" y="-440" on="1"/>
        <pt x="-545" y="-479" on="1"/>
        <pt x="-503" y="-453" on="0"/>
        <pt x="-503" y="-439" on="1"/>
        <pt x="-503" y="-436" on="0"/>
        <pt x="-505" y="-434" on="1"/>
        <pt x="-509" y="-429" on="0"/>
        <pt x="-516" y="-429" on="1"/>
        <pt x="-527" y="-429" on="0"/>
      </contour>
      <contour>
        <pt x="-745" y="-274" on="1"/>
        <pt x="-745" y="-200" on="0"/>
        <pt x="-570" y="-124" on="1"/>
        <pt x="-395" y="-50" on="0"/>
        <pt x="-345" y="-50" on="1"/>
        <pt x="-295" y="-50" on="0"/>
        <pt x="-186" y="-97" on="1"/>
        <pt x="55" y="-200" on="0"/>
        <pt x="55" y="-274" on="1"/>
        <pt x="55" y="-521" on="1"/>
        <pt x="-145" y="-650" on="1"/>
        <pt x="-145" y="-312" on="1"/>
        <pt x="-145" y="-286" on="0"/>
        <pt x="-283" y="-226" on="1"/>
        <pt x="-422" y="-167" on="0"/>
        <pt x="-459" y="-167" on="1"/>
        <pt x="-496" y="-167" on="0"/>
        <pt x="-520" y="-178" on="1"/>
        <pt x="-545" y="-188" on="0"/>
        <pt x="-545" y="-274" on="1"/>
        <pt x="-545" y="-358" on="1"/>
        <pt x="-516" y="-346" on="0"/>
        <pt x="-490" y="-346" on="1"/>
        <pt x="-460" y="-346" on="0"/>
        <pt x="-434" y="-362" on="1"/>
        <pt x="-385" y="-392" on="0"/>
        <pt x="-385" y="-435" on="1"/>
        <pt x="-385" y="-478" on="0"/>
        <pt x="-475" y="-564" on="1"/>
        <pt x="-565" y="-650" on="0"/>
        <pt x="-625" y="-650" on="1"/>
        <pt x="-684" y="-650" on="0"/>
        <pt x="-745" y="-598" on="1"/>
      </contour>
    </TTGlyph>
    <TTGlyph name="glyph211" xMin="-795" yMin="-650" xMax="105" yMax="-50">
      <contour>
        <pt x="-171" y="-250" on="1"/>
        <pt x="-595" y="-250" on="1"/>
        <pt x="-595" y="-492" on="1"/>
        <pt x="-395" y="-299" on="1"/>
        <pt x="-265" y="-450" on="1"/>
        <pt x="-215" y="-450" on="0"/>
        <pt x="-190" y="-370" on="1"/>
        <pt x="-177" y="-330" on="0"/>
      </contour>
      <contour>
        <pt x="-65" y="-150" on="1"/>
        <pt x="55" y="-150" on="1"/>
        <pt x="105" y="-150" on="0"/>
        <pt x="105" y="-225" on="1"/>
        <pt x="105" y="-300" on="0"/>
        <pt x="55" y="-320" on="1"/>
        <pt x="55" y="-250" on="0"/>
        <pt x="5" y="-250" on="1"/>
        <pt x="-67" y="-249" on="1"/>
        <pt x="-75" y="-426" on="0"/>
        <pt x="-115" y="-525" on="1"/>
        <pt x="-165" y="-650" on="0"/>
        <pt x="-215" y="-650" on="1"/>
        <pt x="-265" y="-650" on="1"/>
        <pt x="-342" y="-650" on="0"/>
        <pt x="-381" y="-606" on="1"/>
        <pt x="-469" y="-505" on="1"/>
        <pt x="-548" y="-577" on="1"/>
        <pt x="-627" y="-650" on="0"/>
        <pt x="-661" y="-650" on="1"/>
        <pt x="-695" y="-650" on="0"/>
        <pt x="-745" y="-603" on="1"/>
        <pt x="-795" y="-556" on="0"/>
        <pt x="-795" y="-500" on="1"/>
        <pt x="-795" y="-300" on="1"/>
        <pt x="-795" y="-250" on="0"/>
        <pt x="-745" y="-200" on="1"/>
        <pt x="-695" y="-150" on="0"/>
        <pt x="-645" y="-150" on="1"/>
        <pt x="-166" y="-150" on="1"/>
        <pt x="-165" y="-104" on="0"/>
        <pt x="-165" y="-50" on="1"/>
        <pt x="-65" y="-50" on="0"/>
      </contour>
    </TTGlyph>
    <TTGlyph name="glyph212" xMin="-745" yMin="-650" xMax="55" yMax="-50">
      <contour>
        <pt x="-145" y="-136" on="1"/>
        <pt x="-205" y="-136" on="1"/>
        <pt x="-294" y="-136" on="0"/>
        <pt x="-413" y="-206" on="1"/>
        <pt x="-406" y="-188" on="1"/>
        <pt x="-401" y="-175" on="0"/>
        <pt x="-401" y="-164" on="1"/>
        <pt x="-401" y="-136" on="0"/>
        <pt x="-445" y="-136" on="1"/>
        <pt x="-627" y="-136" on="1"/>
        <pt x="-645" y="-154" on="0"/>
        <pt x="-645" y="-167" on="1"/>
        <pt x="-645" y="-179" on="0"/>
        <pt x="-630" y="-188" on="1"/>
        <pt x="-600" y="-206" on="0"/>
        <pt x="-417" y="-232" on="1"/>
        <pt x="-458" y="-279" on="0"/>
        <pt x="-547" y="-305" on="1"/>
        <pt x="-659" y="-294" on="0"/>
        <pt x="-702" y="-282" on="1"/>
        <pt x="-745" y="-268" on="0"/>
        <pt x="-745" y="-206" on="1"/>
        <pt x="-745" y="-145" on="0"/>
        <pt x="-695" y="-98" on="1"/>
        <pt x="-645" y="-50" on="1"/>
        <pt x="-405" y="-50" on="1"/>
        <pt x="-335" y="-50" on="0"/>
        <pt x="-335" y="-106" on="1"/>
        <pt x="-260" y="-50" on="0"/>
        <pt x="-175" y="-50" on="1"/>
        <pt x="55" y="-50" on="1"/>
        <pt x="55" y="-227" on="1"/>
        <pt x="55" y="-266" on="0"/>
        <pt x="-545" y="-395" on="1"/>
        <pt x="-545" y="-429" on="1"/>
        <pt x="-385" y="-490" on="0"/>
        <pt x="-292" y="-490" on="1"/>
        <pt x="-262" y="-490" on="0"/>
        <pt x="-239" y="-484" on="1"/>
        <pt x="-145" y="-460" on="1"/>
        <pt x="-145" y="-391" on="1"/>
        <pt x="55" y="-305" on="1"/>
        <pt x="55" y="-551" on="1"/>
        <pt x="55" y="-571" on="0"/>
        <pt x="-146" y="-620" on="1"/>
        <pt x="-246" y="-645" on="0"/>
        <pt x="-331" y="-650" on="1"/>
        <pt x="-361" y="-650" on="1"/>
        <pt x="-395" y="-650" on="0"/>
        <pt x="-427" y="-646" on="1"/>
        <pt x="-543" y="-604" on="1"/>
        <pt x="-395" y="-564" on="1"/>
        <pt x="-271" y="-591" on="0"/>
        <pt x="-216" y="-591" on="1"/>
        <pt x="-199" y="-591" on="0"/>
        <pt x="-188" y="-588" on="1"/>
        <pt x="-144" y="-577" on="0"/>
        <pt x="-144" y="-547" on="1"/>
        <pt x="-144" y="-508" on="1"/>
        <pt x="-186" y="-520" on="1"/>
        <pt x="-295" y="-547" on="0"/>
        <pt x="-345" y="-547" on="1"/>
        <pt x="-395" y="-547" on="0"/>
        <pt x="-745" y="-481" on="0"/>
        <pt x="-745" y="-438" on="1"/>
        <pt x="-745" y="-343" on="1"/>
        <pt x="-545" y="-343" on="0"/>
        <pt x="-145" y="-266" on="0"/>
        <pt x="-145" y="-227" on="1"/>
      </contour>
    </TTGlyph>
    <TTGlyph name="glyph213" xMin="-745" yMin="-650" xMax="55" yMax="-50">
      <contour>
        <pt x="-545" y="-440" on="1"/>
        <pt x="-545" y="-479" on="1"/>
        <pt x="-503" y="-453" on="0"/>
        <pt x="-503" y="-439" on="1"/>
        <pt x="-503" y="-436" on="0"/>
        <pt x="-505" y="-434" on="1"/>
        <pt x="-509" y="-429" on="0"/>
        <pt x="-516" y="-429" on="1"/>
        <pt x="-527" y="-429" on="0"/>
      </contour>
      <contour>
        <pt x="-745" y="-274" on="1"/>
        <pt x="-745" y="-200" on="0"/>
        <pt x="-570" y="-124" on="1"/>
        <pt x="-395" y="-50" on="0"/>
        <pt x="-345" y="-50" on="1"/>
        <pt x="-295" y="-50" on="0"/>
        <pt x="-186" y="-97" on="1"/>
        <pt x="55" y="-200" on="0"/>
        <pt x="55" y="-274" on="1"/>
        <pt x="55" y="-521" on="1"/>
        <pt x="-145" y="-650" on="1"/>
        <pt x="-145" y="-312" on="1"/>
        <pt x="-145" y="-286" on="0"/>
        <pt x="-283" y="-226" on="1"/>
        <pt x="-422" y="-167" on="0"/>
        <pt x="-459" y="-167" on="1"/>
        <pt x="-496" y="-167" on="0"/>
        <pt x="-520" y="-178" on="1"/>
        <pt x="-545" y="-188" on="0"/>
        <pt x="-545" y="-274" on="1"/>
        <pt x="-545" y="-358" on="1"/>
        <pt x="-516" y="-346" on="0"/>
        <pt x="-490" y="-346" on="1"/>
        <pt x="-460" y="-346" on="0"/>
        <pt x="-434" y="-362" on="1"/>
        <pt x="-385" y="-392" on="0"/>
        <pt x="-385" y="-435" on="1"/>
        <pt x="-385" y="-478" on="0"/>
        <pt x="-475" y="-564" on="1"/>
        <pt x="-565" y="-650" on="0"/>
        <pt x="-625" y="-650" on="1"/>
        <pt x="-684" y="-650" on="0"/>
        <pt x="-745" y="-598" on="1"/>
      </contour>
    </TTGlyph>
    <TTGlyph name="glyph214" xMin="-800" yMin="-639" xMax="111" yMax="-100">
      <contour>
        <pt x="-476" y="-630" on="0"/>
        <pt x="-603" y="-638" on="1"/>
        <pt x="-616" y="-638" on="1"/>
        <pt x="-688" y="-638" on="0"/>
        <pt x="-742" y="-590" on="1"/>
        <pt x="-800" y="-536" on="0"/>
        <pt x="-800" y="-413" on="1"/>
        <pt x="-800" y="-409" on="1"/>
        <pt x="-800" y="-283" on="0"/>
        <pt x="-709" y="-195" on="1"/>
        <pt x="-618" y="-108" on="0"/>
        <pt x="-508" y="-101" on="1"/>
        <pt x="-501" y="-100" on="0"/>
        <pt x="-495" y="-100" on="1"/>
        <pt x="-390" y="-100" on="0"/>
        <pt x="-253" y="-228" on="1"/>
        <pt x="-152" y="-326" on="1"/>
        <pt x="50" y="-531" on="0"/>
        <pt x="109" y="-531" on="1"/>
        <pt x="111" y="-531" on="1"/>
        <pt x="88" y="-633" on="0"/>
        <pt x="-12" y="-639" on="1"/>
        <pt x="-19" y="-639" on="1"/>
        <pt x="-118" y="-639" on="0"/>
        <pt x="-296" y="-457" on="1"/>
        <pt x="-388" y="-363" on="1"/>
        <pt x="-480" y="-269" on="0"/>
        <pt x="-598" y="-267" on="1"/>
        <pt x="-602" y="-267" on="1"/>
        <pt x="-688" y="-267" on="0"/>
        <pt x="-693" y="-349" on="1"/>
        <pt x="-693" y="-356" on="1"/>
        <pt x="-693" y="-436" on="0"/>
        <pt x="-601" y="-478" on="1"/>
        <pt x="-518" y="-515" on="0"/>
        <pt x="-422" y="-515" on="1"/>
        <pt x="-407" y="-515" on="0"/>
        <pt x="-391" y="-514" on="1"/>
      </contour>
    </TTGlyph>
    <TTGlyph name="glyph215" xMin="-745" yMin="-650" xMax="55" yMax="-50">
      <contour>
        <pt x="-245" y="-50" on="0"/>
        <pt x="-195" y="-70" on="1"/>
        <pt x="-145" y="-91" on="0"/>
        <pt x="-145" y="-150" on="1"/>
        <pt x="-145" y="-210" on="0"/>
        <pt x="-344" y="-280" on="1"/>
        <pt x="-544" y="-350" on="0"/>
        <pt x="-544" y="-415" on="1"/>
        <pt x="-543" y="-456" on="0"/>
        <pt x="-487" y="-481" on="1"/>
        <pt x="-473" y="-487" on="0"/>
        <pt x="-454" y="-487" on="1"/>
        <pt x="-395" y="-487" on="0"/>
        <pt x="-287" y="-428" on="1"/>
        <pt x="-145" y="-350" on="0"/>
        <pt x="-145" y="-290" on="1"/>
        <pt x="55" y="-130" on="1"/>
        <pt x="55" y="-490" on="1"/>
        <pt x="-145" y="-650" on="1"/>
        <pt x="-145" y="-426" on="1"/>
        <pt x="-265" y="-518" on="1"/>
        <pt x="-385" y="-610" on="0"/>
        <pt x="-471" y="-610" on="1"/>
        <pt x="-557" y="-610" on="0"/>
        <pt x="-651" y="-556" on="1"/>
        <pt x="-745" y="-502" on="0"/>
        <pt x="-745" y="-421" on="1"/>
        <pt x="-745" y="-284" on="0"/>
        <pt x="-531" y="-256" on="1"/>
        <pt x="-318" y="-228" on="0"/>
        <pt x="-318" y="-50" on="1"/>
      </contour>
    </TTGlyph>
    <TTGlyph name="glyph216" xMin="-745" yMin="-650" xMax="55" yMax="-50">
      <contour>
        <pt x="-266" y="-344" on="1"/>
        <pt x="-395" y="-393" on="0"/>
        <pt x="-549" y="-410" on="1"/>
        <pt x="-477" y="-505" on="0"/>
        <pt x="-391" y="-505" on="1"/>
        <pt x="-389" y="-505" on="1"/>
        <pt x="-302" y="-504" on="0"/>
        <pt x="-277" y="-392" on="1"/>
      </contour>
      <contour>
        <pt x="-215" y="-324" on="1"/>
        <pt x="-187" y="-357" on="1"/>
        <pt x="-130" y="-423" on="0"/>
        <pt x="-94" y="-423" on="1"/>
        <pt x="-88" y="-423" on="0"/>
        <pt x="-83" y="-421" on="1"/>
        <pt x="-45" y="-410" on="0"/>
        <pt x="-45" y="-307" on="1"/>
        <pt x="-45" y="-224" on="1"/>
        <pt x="-123" y="-283" on="0"/>
      </contour>
      <contour>
        <pt x="30" y="-160" on="1"/>
        <pt x="55" y="-190" on="0"/>
        <pt x="55" y="-221" on="1"/>
        <pt x="55" y="-534" on="0"/>
        <pt x="-48" y="-564" on="1"/>
        <pt x="-78" y="-573" on="0"/>
        <pt x="-106" y="-573" on="1"/>
        <pt x="-176" y="-573" on="0"/>
        <pt x="-234" y="-518" on="1"/>
        <pt x="-336" y="-650" on="0"/>
        <pt x="-472" y="-650" on="1"/>
        <pt x="-609" y="-650" on="0"/>
        <pt x="-677" y="-579" on="1"/>
        <pt x="-745" y="-510" on="0"/>
        <pt x="-745" y="-421" on="1"/>
        <pt x="-745" y="-332" on="0"/>
        <pt x="-617" y="-317" on="1"/>
        <pt x="-426" y="-295" on="0"/>
        <pt x="-283" y="-228" on="1"/>
        <pt x="-140" y="-161" on="0"/>
        <pt x="-45" y="-50" on="1"/>
        <pt x="55" y="-135" on="1"/>
        <pt x="43" y="-147" on="0"/>
      </contour>
    </TTGlyph>
    <TTGlyph name="glyph217" xMin="-820" yMin="-650" xMax="130" yMax="-100">
      <contour>
        <pt x="-220" y="-194" on="1"/>
        <pt x="-470" y="-194" on="1"/>
        <pt x="-620" y="-194" on="0"/>
        <pt x="-620" y="-289" on="1"/>
        <pt x="-620" y="-403" on="0"/>
        <pt x="-520" y="-403" on="1"/>
        <pt x="-407" y="-403" on="0"/>
        <pt x="-303" y="-346" on="1"/>
        <pt x="-262" y="-323" on="0"/>
        <pt x="-220" y="-309" on="1"/>
      </contour>
      <contour>
        <pt x="-20" y="-479" on="1"/>
        <pt x="6" y="-431" on="1"/>
        <pt x="-20" y="-431" on="1"/>
      </contour>
      <contour>
        <pt x="-20" y="-289" on="1"/>
        <pt x="15" y="-289" on="1"/>
        <pt x="80" y="-289" on="0"/>
        <pt x="80" y="-413" on="1"/>
        <pt x="80" y="-539" on="0"/>
        <pt x="16" y="-594" on="1"/>
        <pt x="-49" y="-650" on="1"/>
        <pt x="-220" y="-574" on="1"/>
        <pt x="-219" y="-436" on="1"/>
        <pt x="-342" y="-446" on="0"/>
        <pt x="-392" y="-479" on="1"/>
        <pt x="-465" y="-526" on="0"/>
        <pt x="-520" y="-526" on="1"/>
        <pt x="-670" y="-526" on="0"/>
        <pt x="-745" y="-466" on="1"/>
        <pt x="-820" y="-408" on="0"/>
        <pt x="-820" y="-289" on="1"/>
        <pt x="-820" y="-194" on="0"/>
        <pt x="-732" y="-147" on="1"/>
        <pt x="-645" y="-100" on="0"/>
        <pt x="-470" y="-100" on="1"/>
        <pt x="130" y="-100" on="1"/>
        <pt x="80" y="-194" on="1"/>
        <pt x="-20" y="-194" on="1"/>
      </contour>
    </TTGlyph>
    <TTGlyph name="glyph218" xMin="-745" yMin="-650" xMax="55" yMax="-50">
      <contour>
        <pt x="-145" y="-221" on="1"/>
        <pt x="-145" y="-177" on="1"/>
        <pt x="-145" y="-150" on="0"/>
        <pt x="-170" y="-150" on="1"/>
        <pt x="-220" y="-150" on="0"/>
        <pt x="-220" y="-187" on="1"/>
        <pt x="-220" y="-221" on="0"/>
      </contour>
      <contour>
        <pt x="55" y="-521" on="1"/>
        <pt x="55" y="-567" on="0"/>
        <pt x="4" y="-608" on="1"/>
        <pt x="-47" y="-650" on="0"/>
        <pt x="-145" y="-650" on="1"/>
        <pt x="-262" y="-650" on="0"/>
        <pt x="-301" y="-612" on="1"/>
        <pt x="-419" y="-500" on="1"/>
        <pt x="-498" y="-574" on="1"/>
        <pt x="-577" y="-650" on="0"/>
        <pt x="-611" y="-650" on="1"/>
        <pt x="-645" y="-650" on="0"/>
        <pt x="-695" y="-609" on="1"/>
        <pt x="-745" y="-569" on="0"/>
        <pt x="-745" y="-521" on="1"/>
        <pt x="-745" y="-210" on="1"/>
        <pt x="-545" y="-50" on="1"/>
        <pt x="-545" y="-514" on="1"/>
        <pt x="-345" y="-323" on="1"/>
        <pt x="-145" y="-514" on="1"/>
        <pt x="-145" y="-307" on="1"/>
        <pt x="-245" y="-307" on="0"/>
        <pt x="-295" y="-276" on="1"/>
        <pt x="-345" y="-246" on="0"/>
        <pt x="-345" y="-185" on="1"/>
        <pt x="-345" y="-117" on="0"/>
        <pt x="-301" y="-83" on="1"/>
        <pt x="-257" y="-50" on="0"/>
        <pt x="-170" y="-50" on="1"/>
        <pt x="-45" y="-50" on="0"/>
        <pt x="5" y="-89" on="1"/>
        <pt x="55" y="-129" on="0"/>
        <pt x="55" y="-174" on="1"/>
      </contour>
    </TTGlyph>
    <TTGlyph name="glyph219" xMin="-745" yMin="-650" xMax="55" yMax="-50">
      <contour>
        <pt x="-445" y="-530" on="1"/>
        <pt x="-378" y="-483" on="0"/>
        <pt x="-378" y="-457" on="1"/>
        <pt x="-378" y="-440" on="0"/>
        <pt x="-412" y="-440" on="1"/>
        <pt x="-445" y="-440" on="1"/>
      </contour>
      <contour>
        <pt x="55" y="-571" on="1"/>
        <pt x="-38" y="-650" on="1"/>
        <pt x="-145" y="-650" on="1"/>
        <pt x="-145" y="-154" on="1"/>
        <pt x="-193" y="-154" on="1"/>
        <pt x="-275" y="-154" on="0"/>
        <pt x="-385" y="-239" on="1"/>
        <pt x="-378" y="-218" on="1"/>
        <pt x="-373" y="-202" on="0"/>
        <pt x="-373" y="-189" on="1"/>
        <pt x="-373" y="-154" on="0"/>
        <pt x="-414" y="-154" on="1"/>
        <pt x="-636" y="-154" on="1"/>
        <pt x="-663" y="-198" on="1"/>
        <pt x="-565" y="-209" on="0"/>
        <pt x="-507" y="-236" on="1"/>
        <pt x="-445" y="-262" on="0"/>
        <pt x="-445" y="-303" on="1"/>
        <pt x="-445" y="-362" on="1"/>
        <pt x="-412" y="-362" on="1"/>
        <pt x="-343" y="-362" on="0"/>
        <pt x="-309" y="-380" on="1"/>
        <pt x="-274" y="-397" on="0"/>
        <pt x="-274" y="-430" on="1"/>
        <pt x="-274" y="-493" on="0"/>
        <pt x="-391" y="-571" on="1"/>
        <pt x="-510" y="-650" on="1"/>
        <pt x="-538" y="-650" on="1"/>
        <pt x="-645" y="-596" on="1"/>
        <pt x="-645" y="-337" on="1"/>
        <pt x="-645" y="-305" on="0"/>
        <pt x="-745" y="-295" on="1"/>
        <pt x="-745" y="-187" on="1"/>
        <pt x="-652" y="-50" on="1"/>
        <pt x="-377" y="-50" on="1"/>
        <pt x="-313" y="-50" on="0"/>
        <pt x="-313" y="-118" on="1"/>
        <pt x="-244" y="-50" on="0"/>
        <pt x="-186" y="-50" on="1"/>
        <pt x="55" y="-50" on="1"/>
      </contour>
    </TTGlyph>
    <TTGlyph name="glyph220" xMin="-745" yMin="-650" xMax="55" yMax="-50">
      <contour>
        <pt x="-542" y="-650" on="0"/>
        <pt x="-643" y="-616" on="1"/>
        <pt x="-745" y="-583" on="0"/>
        <pt x="-745" y="-502" on="1"/>
        <pt x="-745" y="-438" on="0"/>
        <pt x="-645" y="-415" on="1"/>
        <pt x="-645" y="-485" on="0"/>
        <pt x="-545" y="-518" on="1"/>
        <pt x="-488" y="-536" on="0"/>
        <pt x="-454" y="-536" on="1"/>
        <pt x="-437" y="-536" on="0"/>
        <pt x="-426" y="-531" on="1"/>
        <pt x="-395" y="-518" on="0"/>
        <pt x="-395" y="-489" on="1"/>
        <pt x="-395" y="-463" on="0"/>
        <pt x="-439" y="-427" on="1"/>
        <pt x="-482" y="-390" on="0"/>
        <pt x="-570" y="-362" on="1"/>
        <pt x="-657" y="-332" on="0"/>
        <pt x="-701" y="-287" on="1"/>
        <pt x="-745" y="-242" on="0"/>
        <pt x="-745" y="-192" on="1"/>
        <pt x="-745" y="-164" on="0"/>
        <pt x="-570" y="-106" on="1"/>
        <pt x="-395" y="-50" on="0"/>
        <pt x="-345" y="-50" on="1"/>
        <pt x="-295" y="-50" on="0"/>
        <pt x="-186" y="-86" on="1"/>
        <pt x="55" y="-164" on="0"/>
        <pt x="55" y="-221" on="1"/>
        <pt x="55" y="-478" on="1"/>
        <pt x="-145" y="-650" on="1"/>
        <pt x="-145" y="-249" on="1"/>
        <pt x="-145" y="-230" on="0"/>
        <pt x="-283" y="-184" on="1"/>
        <pt x="-422" y="-139" on="0"/>
        <pt x="-459" y="-139" on="1"/>
        <pt x="-496" y="-139" on="0"/>
        <pt x="-520" y="-147" on="1"/>
        <pt x="-545" y="-156" on="0"/>
        <pt x="-545" y="-192" on="1"/>
        <pt x="-545" y="-238" on="0"/>
        <pt x="-482" y="-259" on="1"/>
        <pt x="-389" y="-289" on="0"/>
        <pt x="-342" y="-338" on="1"/>
        <pt x="-295" y="-387" on="0"/>
        <pt x="-295" y="-455" on="1"/>
        <pt x="-295" y="-489" on="1"/>
        <pt x="-295" y="-552" on="0"/>
        <pt x="-360" y="-601" on="1"/>
        <pt x="-425" y="-650" on="0"/>
        <pt x="-483" y="-650" on="1"/>
      </contour>
    </TTGlyph>
    <TTGlyph name="glyph221" xMin="-845" yMin="-650" xMax="155" yMax="-100">
      <contour>
        <pt x="55" y="-470" on="1"/>
        <pt x="82" y="-450" on="1"/>
        <pt x="55" y="-450" on="1"/>
      </contour>
      <contour>
        <pt x="-145" y="-200" on="1"/>
        <pt x="-95" y="-150" on="1"/>
        <pt x="-45" y="-100" on="0"/>
        <pt x="5" y="-100" on="1"/>
        <pt x="55" y="-100" on="0"/>
        <pt x="55" y="-150" on="1"/>
        <pt x="55" y="-300" on="1"/>
        <pt x="155" y="-300" on="1"/>
        <pt x="155" y="-450" on="1"/>
        <pt x="155" y="-533" on="0"/>
        <pt x="92" y="-591" on="1"/>
        <pt x="27" y="-650" on="1"/>
        <pt x="-145" y="-550" on="1"/>
        <pt x="-145" y="-450" on="1"/>
        <pt x="-245" y="-450" on="1"/>
        <pt x="-345" y="-450" on="0"/>
        <pt x="-409" y="-550" on="1"/>
        <pt x="-473" y="-650" on="0"/>
        <pt x="-520" y="-650" on="1"/>
        <pt x="-568" y="-650" on="0"/>
        <pt x="-627" y="-577" on="1"/>
        <pt x="-686" y="-504" on="0"/>
        <pt x="-765" y="-462" on="1"/>
        <pt x="-845" y="-421" on="0"/>
        <pt x="-845" y="-384" on="1"/>
        <pt x="-645" y="-250" on="0"/>
        <pt x="-543" y="-250" on="1"/>
        <pt x="-625" y="-316" on="0"/>
        <pt x="-625" y="-343" on="1"/>
        <pt x="-625" y="-370" on="0"/>
        <pt x="-501" y="-480" on="0"/>
        <pt x="-474" y="-480" on="1"/>
        <pt x="-448" y="-480" on="0"/>
        <pt x="-386" y="-390" on="1"/>
        <pt x="-325" y="-300" on="0"/>
        <pt x="-245" y="-300" on="1"/>
        <pt x="-145" y="-300" on="1"/>
      </contour>
    </TTGlyph>
    <TTGlyph name="glyph222" xMin="-845" yMin="-647" xMax="155" yMax="-60">
      <contour>
        <pt x="98" y="-400" on="1"/>
        <pt x="40" y="-540" on="0"/>
        <pt x="-75" y="-621" on="1"/>
        <pt x="-108" y="-644" on="0"/>
        <pt x="-159" y="-647" on="1"/>
        <pt x="-165" y="-647" on="1"/>
        <pt x="-251" y="-647" on="0"/>
        <pt x="-406" y="-465" on="1"/>
        <pt x="-486" y="-371" on="1"/>
        <pt x="-566" y="-277" on="0"/>
        <pt x="-669" y="-275" on="1"/>
        <pt x="-673" y="-275" on="1"/>
        <pt x="-747" y="-275" on="0"/>
        <pt x="-751" y="-357" on="1"/>
        <pt x="-751" y="-365" on="1"/>
        <pt x="-751" y="-444" on="0"/>
        <pt x="-671" y="-486" on="1"/>
        <pt x="-600" y="-523" on="0"/>
        <pt x="-516" y="-523" on="1"/>
        <pt x="-503" y="-523" on="0"/>
        <pt x="-489" y="-522" on="1"/>
        <pt x="-563" y="-638" on="0"/>
        <pt x="-673" y="-646" on="1"/>
        <pt x="-684" y="-646" on="1"/>
        <pt x="-747" y="-646" on="0"/>
        <pt x="-794" y="-598" on="1"/>
        <pt x="-845" y="-544" on="0"/>
        <pt x="-845" y="-417" on="1"/>
        <pt x="-845" y="-291" on="0"/>
        <pt x="-765" y="-203" on="1"/>
        <pt x="-686" y="-116" on="0"/>
        <pt x="-591" y="-109" on="1"/>
        <pt x="-580" y="-109" on="1"/>
        <pt x="-489" y="-109" on="0"/>
        <pt x="-369" y="-236" on="1"/>
        <pt x="-281" y="-334" on="1"/>
        <pt x="-202" y="-426" on="0"/>
        <pt x="-148" y="-477" on="1"/>
        <pt x="-67" y="-470" on="0"/>
        <pt x="-34" y="-431" on="1"/>
        <pt x="5" y="-385" on="0"/>
        <pt x="5" y="-311" on="1"/>
        <pt x="5" y="-237" on="0"/>
        <pt x="-40" y="-161" on="1"/>
        <pt x="155" y="-60" on="1"/>
        <pt x="155" y="-259" on="0"/>
      </contour>
    </TTGlyph>
    <TTGlyph name="glyph223" xMin="-745" yMin="-650" xMax="55" yMax="-50">
      <contour>
        <pt x="-497" y="-255" on="1"/>
        <pt x="-440" y="-271" on="0"/>
        <pt x="-387" y="-271" on="1"/>
        <pt x="-346" y="-271" on="0"/>
        <pt x="-308" y="-261" on="1"/>
        <pt x="-220" y="-240" on="0"/>
        <pt x="-145" y="-143" on="1"/>
        <pt x="55" y="-50" on="1"/>
        <pt x="55" y="-310" on="0"/>
        <pt x="-89" y="-480" on="1"/>
        <pt x="-233" y="-650" on="0"/>
        <pt x="-383" y="-650" on="1"/>
        <pt x="-534" y="-650" on="0"/>
        <pt x="-639" y="-588" on="1"/>
        <pt x="-745" y="-526" on="0"/>
        <pt x="-745" y="-461" on="1"/>
        <pt x="-745" y="-396" on="0"/>
        <pt x="-671" y="-312" on="1"/>
        <pt x="-616" y="-248" on="0"/>
        <pt x="-544" y="-248" on="1"/>
        <pt x="-522" y="-248" on="0"/>
      </contour>
      <contour>
        <pt x="-644" y="-374" on="1"/>
        <pt x="-649" y="-379" on="0"/>
        <pt x="-649" y="-385" on="1"/>
        <pt x="-649" y="-409" on="0"/>
        <pt x="-563" y="-441" on="1"/>
        <pt x="-457" y="-481" on="0"/>
        <pt x="-354" y="-481" on="1"/>
        <pt x="-252" y="-481" on="0"/>
        <pt x="-176" y="-422" on="1"/>
        <pt x="-113" y="-375" on="0"/>
        <pt x="-113" y="-305" on="1"/>
        <pt x="-113" y="-290" on="0"/>
        <pt x="-116" y="-274" on="1"/>
        <pt x="-172" y="-328" on="0"/>
        <pt x="-279" y="-368" on="1"/>
        <pt x="-340" y="-390" on="0"/>
        <pt x="-404" y="-390" on="1"/>
        <pt x="-453" y="-390" on="0"/>
        <pt x="-503" y="-377" on="1"/>
        <pt x="-565" y="-361" on="0"/>
        <pt x="-600" y="-361" on="1"/>
        <pt x="-633" y="-361" on="0"/>
      </contour>
    </TTGlyph>
    <TTGlyph name="glyph224" xMin="-845" yMin="-650" xMax="156" yMax="-50">
      <contour>
        <pt x="-729" y="-50" on="0"/>
        <pt x="-683" y="-74" on="1"/>
        <pt x="-636" y="-100" on="0"/>
        <pt x="-636" y="-153" on="1"/>
        <pt x="-636" y="-389" on="1"/>
        <pt x="-636" y="-416" on="0"/>
        <pt x="-653" y="-430" on="1"/>
        <pt x="-653" y="-452" on="0"/>
        <pt x="-574" y="-491" on="1"/>
        <pt x="-449" y="-544" on="0"/>
        <pt x="-417" y="-544" on="1"/>
        <pt x="-386" y="-544" on="0"/>
        <pt x="-366" y="-535" on="1"/>
        <pt x="-344" y="-525" on="0"/>
        <pt x="-344" y="-449" on="1"/>
        <pt x="-344" y="-382" on="1"/>
        <pt x="-344" y="-342" on="0"/>
        <pt x="-446" y="-329" on="1"/>
        <pt x="-486" y="-325" on="0"/>
        <pt x="-486" y="-299" on="1"/>
        <pt x="-486" y="-272" on="0"/>
        <pt x="-465" y="-232" on="1"/>
        <pt x="-369" y="-50" on="1"/>
        <pt x="156" y="-50" on="1"/>
        <pt x="156" y="-549" on="1"/>
        <pt x="31" y="-650" on="1"/>
        <pt x="-10" y="-650" on="1"/>
        <pt x="-10" y="-182" on="1"/>
        <pt x="-355" y="-182" on="1"/>
        <pt x="-371" y="-204" on="1"/>
        <pt x="-282" y="-220" on="0"/>
        <pt x="-230" y="-253" on="1"/>
        <pt x="-177" y="-287" on="0"/>
        <pt x="-177" y="-340" on="1"/>
        <pt x="-177" y="-449" on="1"/>
        <pt x="-177" y="-516" on="0"/>
        <pt x="-326" y="-583" on="1"/>
        <pt x="-477" y="-650" on="0"/>
        <pt x="-519" y="-650" on="1"/>
        <pt x="-562" y="-650" on="0"/>
        <pt x="-655" y="-607" on="1"/>
        <pt x="-716" y="-574" on="0"/>
        <pt x="-768" y="-535" on="1"/>
        <pt x="-819" y="-495" on="0"/>
        <pt x="-845" y="-432" on="1"/>
        <pt x="-819" y="-423" on="0"/>
        <pt x="-803" y="-396" on="0"/>
        <pt x="-803" y="-376" on="1"/>
        <pt x="-803" y="-196" on="1"/>
        <pt x="-803" y="-161" on="0"/>
        <pt x="-845" y="-146" on="1"/>
        <pt x="-845" y="-97" on="1"/>
        <pt x="-845" y="-50" on="0"/>
        <pt x="-787" y="-50" on="1"/>
      </contour>
    </TTGlyph>
    <TTGlyph name="glyph225" xMin="-795" yMin="-650" xMax="105" yMax="-50">
      <contour>
        <pt x="-619" y="-445" on="1"/>
        <pt x="-667" y="-472" on="1"/>
        <pt x="-619" y="-513" on="1"/>
      </contour>
      <contour>
        <pt x="-74" y="-445" on="1"/>
        <pt x="-122" y="-472" on="1"/>
        <pt x="-74" y="-513" on="1"/>
      </contour>
      <contour>
        <pt x="-676" y="-650" on="1"/>
        <pt x="-690" y="-633" on="0"/>
        <pt x="-708" y="-622" on="1"/>
        <pt x="-795" y="-563" on="0"/>
        <pt x="-795" y="-499" on="1"/>
        <pt x="-795" y="-466" on="0"/>
        <pt x="-749" y="-446" on="1"/>
        <pt x="-622" y="-383" on="1"/>
        <pt x="-622" y="-203" on="1"/>
        <pt x="-622" y="-164" on="0"/>
        <pt x="-751" y="-151" on="1"/>
        <pt x="-795" y="-148" on="0"/>
        <pt x="-795" y="-121" on="1"/>
        <pt x="-795" y="-96" on="0"/>
        <pt x="-772" y="-57" on="1"/>
        <pt x="-767" y="-50" on="1"/>
        <pt x="-574" y="-50" on="1"/>
        <pt x="-527" y="-61" on="0"/>
        <pt x="-497" y="-79" on="1"/>
        <pt x="-440" y="-111" on="0"/>
        <pt x="-440" y="-162" on="1"/>
        <pt x="-440" y="-278" on="1"/>
        <pt x="-347" y="-197" on="1"/>
        <pt x="-298" y="-264" on="0"/>
        <pt x="-234" y="-285" on="1"/>
        <pt x="-175" y="-303" on="0"/>
        <pt x="-76" y="-305" on="1"/>
        <pt x="-76" y="-203" on="1"/>
        <pt x="-76" y="-164" on="0"/>
        <pt x="-205" y="-151" on="1"/>
        <pt x="-249" y="-148" on="0"/>
        <pt x="-249" y="-121" on="1"/>
        <pt x="-249" y="-96" on="0"/>
        <pt x="-226" y="-57" on="1"/>
        <pt x="-222" y="-50" on="1"/>
        <pt x="-28" y="-50" on="1"/>
        <pt x="18" y="-61" on="0"/>
        <pt x="48" y="-79" on="1"/>
        <pt x="105" y="-111" on="0"/>
        <pt x="105" y="-162" on="1"/>
        <pt x="105" y="-531" on="1"/>
        <pt x="40" y="-650" on="0"/>
        <pt x="-131" y="-650" on="1"/>
        <pt x="-145" y="-633" on="0"/>
        <pt x="-163" y="-622" on="1"/>
        <pt x="-249" y="-563" on="0"/>
        <pt x="-249" y="-499" on="1"/>
        <pt x="-249" y="-466" on="0"/>
        <pt x="-204" y="-446" on="1"/>
        <pt x="-76" y="-383" on="1"/>
        <pt x="-76" y="-317" on="1"/>
        <pt x="-177" y="-364" on="0"/>
        <pt x="-253" y="-364" on="1"/>
        <pt x="-262" y="-364" on="1"/>
        <pt x="-338" y="-363" on="0"/>
        <pt x="-440" y="-323" on="1"/>
        <pt x="-440" y="-520" on="1"/>
        <pt x="-495" y="-650" on="0"/>
      </contour>
    </TTGlyph>
    <TTGlyph name="glyph226" xMin="-1600" yMin="-650" xMax="-800" yMax="-50">
      <contour>
        <pt x="-1600" y="-650" on="1"/>
        <pt x="-1600" y="-274" on="1"/>
        <pt x="-1600" y="-200" on="0"/>
        <pt x="-1425" y="-124" on="1"/>
        <pt x="-1250" y="-50" on="0"/>
        <pt x="-1200" y="-50" on="1"/>
        <pt x="-1150" y="-50" on="0"/>
        <pt x="-1041" y="-97" on="1"/>
        <pt x="-800" y="-200" on="0"/>
        <pt x="-800" y="-274" on="1"/>
        <pt x="-800" y="-521" on="1"/>
        <pt x="-1000" y="-650" on="1"/>
        <pt x="-1000" y="-312" on="1"/>
        <pt x="-1000" y="-286" on="0"/>
        <pt x="-1138" y="-226" on="1"/>
        <pt x="-1277" y="-167" on="0"/>
        <pt x="-1314" y="-167" on="1"/>
        <pt x="-1351" y="-167" on="0"/>
        <pt x="-1375" y="-178" on="1"/>
        <pt x="-1400" y="-188" on="0"/>
        <pt x="-1400" y="-274" on="1"/>
        <pt x="-1400" y="-521" on="1"/>
      </contour>
    </TTGlyph>
    <TTGlyph name="glyph227" xMin="-1600" yMin="-650" xMax="-800" yMax="-50">
      <contour>
        <pt x="-1600" y="-362" on="0"/>
        <pt x="-1600" y="-320" on="1"/>
        <pt x="-1600" y="-206" on="1"/>
        <pt x="-1600" y="-153" on="0"/>
        <pt x="-1425" y="-101" on="1"/>
        <pt x="-1250" y="-50" on="0"/>
        <pt x="-1200" y="-50" on="1"/>
        <pt x="-1150" y="-50" on="0"/>
        <pt x="-1041" y="-82" on="1"/>
        <pt x="-800" y="-153" on="0"/>
        <pt x="-800" y="-253" on="1"/>
        <pt x="-800" y="-278" on="0"/>
        <pt x="-1100" y="-386" on="1"/>
        <pt x="-1400" y="-493" on="1"/>
        <pt x="-1400" y="-535" on="0"/>
        <pt x="-1375" y="-542" on="1"/>
        <pt x="-1351" y="-550" on="0"/>
        <pt x="-1314" y="-550" on="1"/>
        <pt x="-1277" y="-550" on="0"/>
        <pt x="-1138" y="-518" on="1"/>
        <pt x="-1000" y="-484" on="0"/>
        <pt x="-1000" y="-466" on="1"/>
        <pt x="-1000" y="-440" on="1"/>
        <pt x="-800" y="-336" on="1"/>
        <pt x="-800" y="-493" on="1"/>
        <pt x="-800" y="-545" on="0"/>
        <pt x="-1041" y="-616" on="1"/>
        <pt x="-1150" y="-650" on="0"/>
        <pt x="-1200" y="-650" on="1"/>
        <pt x="-1250" y="-650" on="0"/>
        <pt x="-1425" y="-597" on="1"/>
        <pt x="-1600" y="-545" on="0"/>
        <pt x="-1600" y="-493" on="1"/>
        <pt x="-1600" y="-425" on="1"/>
        <pt x="-1400" y="-425" on="0"/>
        <pt x="-1200" y="-352" on="1"/>
        <pt x="-1000" y="-278" on="0"/>
        <pt x="-1000" y="-253" on="1"/>
        <pt x="-1000" y="-214" on="0"/>
        <pt x="-1138" y="-180" on="1"/>
        <pt x="-1277" y="-146" on="0"/>
        <pt x="-1314" y="-146" on="1"/>
        <pt x="-1351" y="-146" on="0"/>
        <pt x="-1375" y="-154" on="1"/>
        <pt x="-1400" y="-162" on="0"/>
        <pt x="-1400" y="-221" on="1"/>
        <pt x="-1300" y="-221" on="0"/>
        <pt x="-1300" y="-245" on="1"/>
        <pt x="-1300" y="-270" on="0"/>
        <pt x="-1500" y="-362" on="0"/>
        <pt x="-1555" y="-362" on="1"/>
      </contour>
    </TTGlyph>
    <TTGlyph name="glyph228" xMin="-1600" yMin="-650" xMax="-800" yMax="-50">
      <contour>
        <pt x="-1600" y="-274" on="1"/>
        <pt x="-1600" y="-200" on="0"/>
        <pt x="-1425" y="-124" on="1"/>
        <pt x="-1250" y="-50" on="0"/>
        <pt x="-1200" y="-50" on="1"/>
        <pt x="-1150" y="-50" on="0"/>
        <pt x="-1041" y="-97" on="1"/>
        <pt x="-800" y="-200" on="0"/>
        <pt x="-800" y="-274" on="1"/>
        <pt x="-800" y="-521" on="1"/>
        <pt x="-1000" y="-650" on="1"/>
        <pt x="-1000" y="-312" on="1"/>
        <pt x="-1000" y="-286" on="0"/>
        <pt x="-1138" y="-226" on="1"/>
        <pt x="-1277" y="-167" on="0"/>
        <pt x="-1314" y="-167" on="1"/>
        <pt x="-1351" y="-167" on="0"/>
        <pt x="-1375" y="-178" on="1"/>
        <pt x="-1400" y="-188" on="0"/>
        <pt x="-1400" y="-274" on="1"/>
        <pt x="-1400" y="-479" on="1"/>
        <pt x="-1335" y="-350" on="0"/>
        <pt x="-1238" y="-350" on="1"/>
        <pt x="-1195" y="-350" on="0"/>
        <pt x="-1147" y="-380" on="1"/>
        <pt x="-1100" y="-410" on="0"/>
        <pt x="-1100" y="-465" on="1"/>
        <pt x="-1100" y="-521" on="0"/>
        <pt x="-1200" y="-560" on="1"/>
        <pt x="-1218" y="-521" on="0"/>
        <pt x="-1275" y="-521" on="1"/>
        <pt x="-1333" y="-521" on="0"/>
        <pt x="-1400" y="-572" on="1"/>
        <pt x="-1500" y="-650" on="1"/>
        <pt x="-1600" y="-564" on="1"/>
      </contour>
    </TTGlyph>
    <TTGlyph name="glyph229" xMin="-1600" yMin="-650" xMax="-700" yMax="-50">
      <contour>
        <pt x="-1206" y="-202" on="1"/>
        <pt x="-1211" y="-202" on="1"/>
        <pt x="-1345" y="-202" on="0"/>
        <pt x="-1383" y="-251" on="1"/>
        <pt x="-1422" y="-302" on="1"/>
        <pt x="-1479" y="-377" on="0"/>
        <pt x="-1479" y="-409" on="1"/>
        <pt x="-1479" y="-421" on="0"/>
        <pt x="-1472" y="-427" on="1"/>
        <pt x="-1444" y="-450" on="0"/>
        <pt x="-1350" y="-450" on="1"/>
        <pt x="-1273" y="-450" on="0"/>
        <pt x="-1187" y="-350" on="1"/>
        <pt x="-1101" y="-250" on="1"/>
        <pt x="-930" y="-50" on="0"/>
        <pt x="-830" y="-50" on="1"/>
        <pt x="-730" y="-50" on="0"/>
        <pt x="-700" y="-150" on="1"/>
        <pt x="-757" y="-150" on="0"/>
        <pt x="-949" y="-372" on="1"/>
        <pt x="-1043" y="-476" on="1"/>
        <pt x="-1200" y="-650" on="0"/>
        <pt x="-1350" y="-650" on="1"/>
        <pt x="-1400" y="-650" on="0"/>
        <pt x="-1500" y="-554" on="1"/>
        <pt x="-1600" y="-458" on="0"/>
        <pt x="-1600" y="-331" on="1"/>
        <pt x="-1600" y="-204" on="0"/>
        <pt x="-1550" y="-147" on="1"/>
        <pt x="-1500" y="-90" on="0"/>
        <pt x="-1420" y="-90" on="1"/>
        <pt x="-1292" y="-90" on="0"/>
      </contour>
    </TTGlyph>
    <TTGlyph name="glyph230" xMin="-1600" yMin="-650" xMax="-721" yMax="-50">
      <contour>
        <pt x="-929" y="-326" on="0"/>
        <pt x="-929" y="-290" on="1"/>
        <pt x="-929" y="-289" on="1"/>
        <pt x="-929" y="-250" on="0"/>
        <pt x="-981" y="-250" on="1"/>
        <pt x="-1055" y="-250" on="0"/>
        <pt x="-1055" y="-305" on="1"/>
        <pt x="-1055" y="-341" on="0"/>
        <pt x="-979" y="-377" on="1"/>
      </contour>
      <contour>
        <pt x="-882" y="-413" on="1"/>
        <pt x="-878" y="-414" on="0"/>
        <pt x="-874" y="-416" on="1"/>
        <pt x="-783" y="-444" on="1"/>
        <pt x="-721" y="-463" on="0"/>
        <pt x="-721" y="-504" on="1"/>
        <pt x="-721" y="-523" on="0"/>
        <pt x="-735" y="-548" on="1"/>
        <pt x="-767" y="-606" on="0"/>
        <pt x="-820" y="-606" on="1"/>
        <pt x="-838" y="-606" on="0"/>
        <pt x="-857" y="-600" on="1"/>
        <pt x="-956" y="-569" on="0"/>
        <pt x="-1021" y="-539" on="1"/>
        <pt x="-1064" y="-569" on="0"/>
        <pt x="-1111" y="-592" on="1"/>
        <pt x="-1230" y="-650" on="0"/>
        <pt x="-1323" y="-650" on="1"/>
        <pt x="-1417" y="-650" on="0"/>
        <pt x="-1508" y="-597" on="1"/>
        <pt x="-1600" y="-545" on="0"/>
        <pt x="-1600" y="-400" on="1"/>
        <pt x="-1600" y="-310" on="0"/>
        <pt x="-1450" y="-180" on="1"/>
        <pt x="-1300" y="-50" on="1"/>
        <pt x="-1250" y="-50" on="0"/>
        <pt x="-1250" y="-90" on="1"/>
        <pt x="-1250" y="-130" on="0"/>
        <pt x="-1300" y="-210" on="1"/>
        <pt x="-1400" y="-368" on="0"/>
        <pt x="-1400" y="-399" on="1"/>
        <pt x="-1400" y="-400" on="1"/>
        <pt x="-1400" y="-455" on="0"/>
        <pt x="-1363" y="-476" on="1"/>
        <pt x="-1348" y="-485" on="0"/>
        <pt x="-1313" y="-485" on="1"/>
        <pt x="-1267" y="-485" on="0"/>
        <pt x="-1186" y="-469" on="1"/>
        <pt x="-1158" y="-463" on="0"/>
        <pt x="-1134" y="-457" on="1"/>
        <pt x="-1135" y="-456" on="0"/>
        <pt x="-1136" y="-455" on="1"/>
        <pt x="-1178" y="-382" on="0"/>
        <pt x="-1179" y="-291" on="1"/>
        <pt x="-1179" y="-288" on="1"/>
        <pt x="-1179" y="-199" on="0"/>
        <pt x="-1122" y="-125" on="1"/>
        <pt x="-1064" y="-50" on="0"/>
        <pt x="-982" y="-50" on="1"/>
        <pt x="-800" y="-50" on="0"/>
        <pt x="-800" y="-187" on="1"/>
        <pt x="-800" y="-314" on="0"/>
      </contour>
    </TTGlyph>
    <TTGlyph name="glyph231" xMin="-1790" yMin="-650" xMax="-800" yMax="-50">
      <contour>
        <pt x="-1000" y="-185" on="1"/>
        <pt x="-1070" y="-197" on="0"/>
        <pt x="-1070" y="-220" on="1"/>
        <pt x="-1070" y="-244" on="0"/>
        <pt x="-1030" y="-244" on="1"/>
        <pt x="-1000" y="-244" on="1"/>
      </contour>
      <contour>
        <pt x="-1597" y="-418" on="1"/>
        <pt x="-1650" y="-446" on="1"/>
        <pt x="-1597" y="-486" on="1"/>
      </contour>
      <contour>
        <pt x="-1622" y="-608" on="0"/>
        <pt x="-1695" y="-578" on="1"/>
        <pt x="-1790" y="-538" on="0"/>
        <pt x="-1790" y="-473" on="1"/>
        <pt x="-1790" y="-440" on="0"/>
        <pt x="-1740" y="-418" on="1"/>
        <pt x="-1600" y="-356" on="1"/>
        <pt x="-1600" y="-223" on="1"/>
        <pt x="-1600" y="-184" on="0"/>
        <pt x="-1722" y="-171" on="1"/>
        <pt x="-1770" y="-167" on="0"/>
        <pt x="-1770" y="-141" on="1"/>
        <pt x="-1770" y="-115" on="0"/>
        <pt x="-1745" y="-76" on="1"/>
        <pt x="-1632" y="-50" on="1"/>
        <pt x="-1526" y="-64" on="0"/>
        <pt x="-1463" y="-97" on="1"/>
        <pt x="-1400" y="-130" on="0"/>
        <pt x="-1400" y="-182" on="1"/>
        <pt x="-1400" y="-343" on="1"/>
        <pt x="-1262" y="-343" on="0"/>
        <pt x="-1194" y="-383" on="1"/>
        <pt x="-1125" y="-424" on="0"/>
        <pt x="-1125" y="-479" on="1"/>
        <pt x="-1125" y="-518" on="0"/>
        <pt x="-1055" y="-518" on="1"/>
        <pt x="-1000" y="-518" on="0"/>
        <pt x="-1000" y="-479" on="1"/>
        <pt x="-1000" y="-343" on="1"/>
        <pt x="-1030" y="-343" on="1"/>
        <pt x="-1077" y="-343" on="0"/>
        <pt x="-1111" y="-336" on="1"/>
        <pt x="-1144" y="-329" on="0"/>
        <pt x="-1162" y="-316" on="1"/>
        <pt x="-1200" y="-290" on="0"/>
        <pt x="-1200" y="-245" on="1"/>
        <pt x="-1200" y="-179" on="0"/>
        <pt x="-951" y="-50" on="0"/>
        <pt x="-905" y="-50" on="1"/>
        <pt x="-800" y="-50" on="0"/>
        <pt x="-800" y="-115" on="1"/>
        <pt x="-800" y="-479" on="1"/>
        <pt x="-800" y="-551" on="0"/>
        <pt x="-864" y="-600" on="1"/>
        <pt x="-927" y="-649" on="0"/>
        <pt x="-1055" y="-649" on="1"/>
        <pt x="-1162" y="-649" on="0"/>
        <pt x="-1216" y="-591" on="1"/>
        <pt x="-1270" y="-535" on="0"/>
        <pt x="-1270" y="-479" on="1"/>
        <pt x="-1270" y="-457" on="0"/>
        <pt x="-1302" y="-432" on="1"/>
        <pt x="-1335" y="-408" on="0"/>
        <pt x="-1400" y="-408" on="1"/>
        <pt x="-1400" y="-596" on="1"/>
        <pt x="-1477" y="-649" on="1"/>
        <pt x="-1605" y="-650" on="1"/>
      </contour>
    </TTGlyph>
    <TTGlyph name="glyph232" xMin="-1600" yMin="-650" xMax="-700" yMax="-50">
      <contour>
        <pt x="-1000" y="-238" on="1"/>
        <pt x="-1000" y="-177" on="1"/>
        <pt x="-1000" y="-150" on="0"/>
        <pt x="-1040" y="-150" on="1"/>
        <pt x="-1080" y="-151" on="0"/>
        <pt x="-1080" y="-187" on="1"/>
        <pt x="-1080" y="-220" on="0"/>
      </contour>
      <contour>
        <pt x="-800" y="-267" on="1"/>
        <pt x="-700" y="-296" on="0"/>
        <pt x="-700" y="-377" on="1"/>
        <pt x="-751" y="-355" on="0"/>
        <pt x="-800" y="-340" on="1"/>
        <pt x="-800" y="-521" on="1"/>
        <pt x="-800" y="-567" on="0"/>
        <pt x="-851" y="-608" on="1"/>
        <pt x="-902" y="-650" on="0"/>
        <pt x="-1000" y="-650" on="1"/>
        <pt x="-1117" y="-650" on="0"/>
        <pt x="-1156" y="-612" on="1"/>
        <pt x="-1274" y="-500" on="1"/>
        <pt x="-1353" y="-574" on="1"/>
        <pt x="-1432" y="-650" on="0"/>
        <pt x="-1466" y="-650" on="1"/>
        <pt x="-1500" y="-650" on="0"/>
        <pt x="-1550" y="-609" on="1"/>
        <pt x="-1600" y="-569" on="0"/>
        <pt x="-1600" y="-521" on="1"/>
        <pt x="-1600" y="-210" on="1"/>
        <pt x="-1400" y="-50" on="1"/>
        <pt x="-1400" y="-514" on="1"/>
        <pt x="-1200" y="-323" on="1"/>
        <pt x="-1000" y="-514" on="1"/>
        <pt x="-1000" y="-310" on="1"/>
        <pt x="-1250" y="-284" on="0"/>
        <pt x="-1250" y="-185" on="1"/>
        <pt x="-1250" y="-50" on="0"/>
        <pt x="-1025" y="-50" on="1"/>
        <pt x="-900" y="-50" on="0"/>
        <pt x="-800" y="-129" on="0"/>
        <pt x="-800" y="-174" on="1"/>
      </contour>
    </TTGlyph>
    <TTGlyph name="glyph233" xMin="-1651" yMin="-600" xMax="-749" yMax="-180">
      <contour>
        <pt x="-1639" y="-499" on="1"/>
        <pt x="-1651" y="-481" on="0"/>
        <pt x="-1651" y="-452" on="1"/>
        <pt x="-1651" y="-442" on="0"/>
        <pt x="-1650" y="-431" on="1"/>
        <pt x="-1645" y="-388" on="0"/>
        <pt x="-1617" y="-325" on="1"/>
        <pt x="-1562" y="-200" on="0"/>
        <pt x="-1423" y="-200" on="1"/>
        <pt x="-1301" y="-200" on="0"/>
        <pt x="-1008" y="-500" on="0"/>
        <pt x="-928" y="-500" on="1"/>
        <pt x="-874" y="-500" on="0"/>
        <pt x="-874" y="-455" on="1"/>
        <pt x="-874" y="-410" on="0"/>
        <pt x="-907" y="-370" on="1"/>
        <pt x="-942" y="-331" on="0"/>
        <pt x="-1024" y="-330" on="1"/>
        <pt x="-899" y="-180" on="1"/>
        <pt x="-749" y="-240" on="0"/>
        <pt x="-749" y="-360" on="1"/>
        <pt x="-749" y="-480" on="0"/>
        <pt x="-802" y="-540" on="1"/>
        <pt x="-855" y="-600" on="0"/>
        <pt x="-927" y="-600" on="1"/>
        <pt x="-1180" y="-600" on="0"/>
        <pt x="-1452" y="-320" on="0"/>
        <pt x="-1512" y="-320" on="1"/>
        <pt x="-1573" y="-320" on="0"/>
      </contour>
    </TTGlyph>
    <TTGlyph name="glyph234" xMin="-1600" yMin="-650" xMax="-800" yMax="-50">
      <contour>
        <pt x="-1400" y="-440" on="1"/>
        <pt x="-1400" y="-479" on="1"/>
        <pt x="-1358" y="-453" on="0"/>
        <pt x="-1358" y="-439" on="1"/>
        <pt x="-1358" y="-436" on="0"/>
        <pt x="-1360" y="-434" on="1"/>
        <pt x="-1364" y="-429" on="0"/>
        <pt x="-1371" y="-429" on="1"/>
        <pt x="-1382" y="-429" on="0"/>
      </contour>
      <contour>
        <pt x="-1600" y="-274" on="1"/>
        <pt x="-1600" y="-200" on="0"/>
        <pt x="-1425" y="-124" on="1"/>
        <pt x="-1250" y="-50" on="0"/>
        <pt x="-1200" y="-50" on="1"/>
        <pt x="-1150" y="-50" on="0"/>
        <pt x="-1041" y="-97" on="1"/>
        <pt x="-800" y="-200" on="0"/>
        <pt x="-800" y="-274" on="1"/>
        <pt x="-800" y="-521" on="1"/>
        <pt x="-1000" y="-650" on="1"/>
        <pt x="-1000" y="-312" on="1"/>
        <pt x="-1000" y="-286" on="0"/>
        <pt x="-1138" y="-226" on="1"/>
        <pt x="-1277" y="-167" on="0"/>
        <pt x="-1314" y="-167" on="1"/>
        <pt x="-1351" y="-167" on="0"/>
        <pt x="-1375" y="-178" on="1"/>
        <pt x="-1400" y="-188" on="0"/>
        <pt x="-1400" y="-274" on="1"/>
        <pt x="-1400" y="-358" on="1"/>
        <pt x="-1371" y="-346" on="0"/>
        <pt x="-1345" y="-346" on="1"/>
        <pt x="-1315" y="-346" on="0"/>
        <pt x="-1289" y="-362" on="1"/>
        <pt x="-1240" y="-392" on="0"/>
        <pt x="-1240" y="-435" on="1"/>
        <pt x="-1240" y="-478" on="0"/>
        <pt x="-1330" y="-564" on="1"/>
        <pt x="-1420" y="-650" on="0"/>
        <pt x="-1480" y="-650" on="1"/>
        <pt x="-1539" y="-650" on="0"/>
        <pt x="-1600" y="-598" on="1"/>
      </contour>
    </TTGlyph>
    <TTGlyph name="glyph235" xMin="-1600" yMin="-650" xMax="-700" yMax="-50">
      <contour>
        <pt x="-976" y="-250" on="1"/>
        <pt x="-1400" y="-250" on="1"/>
        <pt x="-1400" y="-492" on="1"/>
        <pt x="-1200" y="-299" on="1"/>
        <pt x="-1070" y="-450" on="1"/>
        <pt x="-1020" y="-450" on="0"/>
        <pt x="-995" y="-370" on="1"/>
        <pt x="-982" y="-330" on="0"/>
      </contour>
      <contour>
        <pt x="-870" y="-150" on="1"/>
        <pt x="-750" y="-150" on="1"/>
        <pt x="-700" y="-150" on="0"/>
        <pt x="-700" y="-225" on="1"/>
        <pt x="-700" y="-300" on="0"/>
        <pt x="-750" y="-320" on="1"/>
        <pt x="-750" y="-250" on="0"/>
        <pt x="-800" y="-250" on="1"/>
        <pt x="-872" y="-249" on="1"/>
        <pt x="-880" y="-426" on="0"/>
        <pt x="-920" y="-525" on="1"/>
        <pt x="-970" y="-650" on="0"/>
        <pt x="-1020" y="-650" on="1"/>
        <pt x="-1070" y="-650" on="1"/>
        <pt x="-1147" y="-650" on="0"/>
        <pt x="-1186" y="-606" on="1"/>
        <pt x="-1274" y="-505" on="1"/>
        <pt x="-1353" y="-577" on="1"/>
        <pt x="-1432" y="-650" on="0"/>
        <pt x="-1466" y="-650" on="1"/>
        <pt x="-1500" y="-650" on="0"/>
        <pt x="-1550" y="-603" on="1"/>
        <pt x="-1600" y="-556" on="0"/>
        <pt x="-1600" y="-500" on="1"/>
        <pt x="-1600" y="-300" on="1"/>
        <pt x="-1600" y="-250" on="0"/>
        <pt x="-1550" y="-200" on="1"/>
        <pt x="-1500" y="-150" on="0"/>
        <pt x="-1450" y="-150" on="1"/>
        <pt x="-971" y="-150" on="1"/>
        <pt x="-970" y="-104" on="0"/>
        <pt x="-970" y="-50" on="1"/>
        <pt x="-870" y="-50" on="0"/>
      </contour>
    </TTGlyph>
    <TTGlyph name="glyph236" xMin="-1600" yMin="-650" xMax="-800" yMax="-50">
      <contour>
        <pt x="-1000" y="-136" on="1"/>
        <pt x="-1060" y="-136" on="1"/>
        <pt x="-1149" y="-136" on="0"/>
        <pt x="-1268" y="-206" on="1"/>
        <pt x="-1261" y="-188" on="1"/>
        <pt x="-1256" y="-175" on="0"/>
        <pt x="-1256" y="-164" on="1"/>
        <pt x="-1256" y="-136" on="0"/>
        <pt x="-1300" y="-136" on="1"/>
        <pt x="-1482" y="-136" on="1"/>
        <pt x="-1500" y="-154" on="0"/>
        <pt x="-1500" y="-167" on="1"/>
        <pt x="-1500" y="-179" on="0"/>
        <pt x="-1485" y="-188" on="1"/>
        <pt x="-1455" y="-206" on="0"/>
        <pt x="-1272" y="-232" on="1"/>
        <pt x="-1313" y="-279" on="0"/>
        <pt x="-1402" y="-305" on="1"/>
        <pt x="-1514" y="-294" on="0"/>
        <pt x="-1557" y="-282" on="1"/>
        <pt x="-1600" y="-268" on="0"/>
        <pt x="-1600" y="-206" on="1"/>
        <pt x="-1600" y="-145" on="0"/>
        <pt x="-1550" y="-98" on="1"/>
        <pt x="-1500" y="-50" on="1"/>
        <pt x="-1260" y="-50" on="1"/>
        <pt x="-1190" y="-50" on="0"/>
        <pt x="-1190" y="-106" on="1"/>
        <pt x="-1115" y="-50" on="0"/>
        <pt x="-1030" y="-50" on="1"/>
        <pt x="-800" y="-50" on="1"/>
        <pt x="-800" y="-227" on="1"/>
        <pt x="-800" y="-266" on="0"/>
        <pt x="-1400" y="-395" on="1"/>
        <pt x="-1400" y="-429" on="1"/>
        <pt x="-1240" y="-490" on="0"/>
        <pt x="-1147" y="-490" on="1"/>
        <pt x="-1117" y="-490" on="0"/>
        <pt x="-1094" y="-484" on="1"/>
        <pt x="-1000" y="-460" on="1"/>
        <pt x="-1000" y="-391" on="1"/>
        <pt x="-800" y="-305" on="1"/>
        <pt x="-800" y="-551" on="1"/>
        <pt x="-800" y="-571" on="0"/>
        <pt x="-1001" y="-620" on="1"/>
        <pt x="-1101" y="-645" on="0"/>
        <pt x="-1186" y="-650" on="1"/>
        <pt x="-1216" y="-650" on="1"/>
        <pt x="-1250" y="-650" on="0"/>
        <pt x="-1282" y="-646" on="1"/>
        <pt x="-1398" y="-604" on="1"/>
        <pt x="-1250" y="-564" on="1"/>
        <pt x="-1126" y="-591" on="0"/>
        <pt x="-1071" y="-591" on="1"/>
        <pt x="-1054" y="-591" on="0"/>
        <pt x="-1043" y="-588" on="1"/>
        <pt x="-999" y="-577" on="0"/>
        <pt x="-999" y="-547" on="1"/>
        <pt x="-999" y="-508" on="1"/>
        <pt x="-1041" y="-520" on="1"/>
        <pt x="-1150" y="-547" on="0"/>
        <pt x="-1200" y="-547" on="1"/>
        <pt x="-1250" y="-547" on="0"/>
        <pt x="-1600" y="-481" on="0"/>
        <pt x="-1600" y="-438" on="1"/>
        <pt x="-1600" y="-343" on="1"/>
        <pt x="-1400" y="-343" on="0"/>
        <pt x="-1000" y="-266" on="0"/>
        <pt x="-1000" y="-227" on="1"/>
      </contour>
    </TTGlyph>
    <TTGlyph name="glyph237" xMin="-1600" yMin="-650" xMax="-800" yMax="-50">
      <contour>
        <pt x="-1400" y="-440" on="1"/>
        <pt x="-1400" y="-479" on="1"/>
        <pt x="-1358" y="-453" on="0"/>
        <pt x="-1358" y="-439" on="1"/>
        <pt x="-1358" y="-436" on="0"/>
        <pt x="-1360" y="-434" on="1"/>
        <pt x="-1364" y="-429" on="0"/>
        <pt x="-1371" y="-429" on="1"/>
        <pt x="-1382" y="-429" on="0"/>
      </contour>
      <contour>
        <pt x="-1600" y="-274" on="1"/>
        <pt x="-1600" y="-200" on="0"/>
        <pt x="-1425" y="-124" on="1"/>
        <pt x="-1250" y="-50" on="0"/>
        <pt x="-1200" y="-50" on="1"/>
        <pt x="-1150" y="-50" on="0"/>
        <pt x="-1041" y="-97" on="1"/>
        <pt x="-800" y="-200" on="0"/>
        <pt x="-800" y="-274" on="1"/>
        <pt x="-800" y="-521" on="1"/>
        <pt x="-1000" y="-650" on="1"/>
        <pt x="-1000" y="-312" on="1"/>
        <pt x="-1000" y="-286" on="0"/>
        <pt x="-1138" y="-226" on="1"/>
        <pt x="-1277" y="-167" on="0"/>
        <pt x="-1314" y="-167" on="1"/>
        <pt x="-1351" y="-167" on="0"/>
        <pt x="-1375" y="-178" on="1"/>
        <pt x="-1400" y="-188" on="0"/>
        <pt x="-1400" y="-274" on="1"/>
        <pt x="-1400" y="-358" on="1"/>
        <pt x="-1371" y="-346" on="0"/>
        <pt x="-1345" y="-346" on="1"/>
        <pt x="-1315" y="-346" on="0"/>
        <pt x="-1289" y="-362" on="1"/>
        <pt x="-1240" y="-392" on="0"/>
        <pt x="-1240" y="-435" on="1"/>
        <pt x="-1240" y="-478" on="0"/>
        <pt x="-1330" y="-564" on="1"/>
        <pt x="-1420" y="-650" on="0"/>
        <pt x="-1480" y="-650" on="1"/>
        <pt x="-1539" y="-650" on="0"/>
        <pt x="-1600" y="-598" on="1"/>
      </contour>
    </TTGlyph>
    <TTGlyph name="glyph238" xMin="-1600" yMin="-639" xMax="-689" yMax="-100">
      <contour>
        <pt x="-1276" y="-630" on="0"/>
        <pt x="-1403" y="-638" on="1"/>
        <pt x="-1416" y="-638" on="1"/>
        <pt x="-1488" y="-638" on="0"/>
        <pt x="-1542" y="-590" on="1"/>
        <pt x="-1600" y="-536" on="0"/>
        <pt x="-1600" y="-413" on="1"/>
        <pt x="-1600" y="-409" on="1"/>
        <pt x="-1600" y="-283" on="0"/>
        <pt x="-1509" y="-195" on="1"/>
        <pt x="-1418" y="-108" on="0"/>
        <pt x="-1308" y="-101" on="1"/>
        <pt x="-1301" y="-100" on="0"/>
        <pt x="-1295" y="-100" on="1"/>
        <pt x="-1190" y="-100" on="0"/>
        <pt x="-1053" y="-228" on="1"/>
        <pt x="-952" y="-326" on="1"/>
        <pt x="-750" y="-531" on="0"/>
        <pt x="-691" y="-531" on="1"/>
        <pt x="-689" y="-531" on="1"/>
        <pt x="-712" y="-633" on="0"/>
        <pt x="-812" y="-639" on="1"/>
        <pt x="-819" y="-639" on="1"/>
        <pt x="-918" y="-639" on="0"/>
        <pt x="-1096" y="-457" on="1"/>
        <pt x="-1188" y="-363" on="1"/>
        <pt x="-1280" y="-269" on="0"/>
        <pt x="-1398" y="-267" on="1"/>
        <pt x="-1402" y="-267" on="1"/>
        <pt x="-1488" y="-267" on="0"/>
        <pt x="-1493" y="-349" on="1"/>
        <pt x="-1493" y="-356" on="1"/>
        <pt x="-1493" y="-436" on="0"/>
        <pt x="-1401" y="-478" on="1"/>
        <pt x="-1318" y="-515" on="0"/>
        <pt x="-1222" y="-515" on="1"/>
        <pt x="-1207" y="-515" on="0"/>
        <pt x="-1191" y="-514" on="1"/>
      </contour>
    </TTGlyph>
    <TTGlyph name="glyph239" xMin="-1600" yMin="-650" xMax="-800" yMax="-50">
      <contour>
        <pt x="-1100" y="-50" on="0"/>
        <pt x="-1050" y="-70" on="1"/>
        <pt x="-1000" y="-91" on="0"/>
        <pt x="-1000" y="-150" on="1"/>
        <pt x="-1000" y="-210" on="0"/>
        <pt x="-1199" y="-280" on="1"/>
        <pt x="-1399" y="-350" on="0"/>
        <pt x="-1399" y="-415" on="1"/>
        <pt x="-1398" y="-456" on="0"/>
        <pt x="-1342" y="-481" on="1"/>
        <pt x="-1328" y="-487" on="0"/>
        <pt x="-1309" y="-487" on="1"/>
        <pt x="-1250" y="-487" on="0"/>
        <pt x="-1142" y="-428" on="1"/>
        <pt x="-1000" y="-350" on="0"/>
        <pt x="-1000" y="-290" on="1"/>
        <pt x="-800" y="-130" on="1"/>
        <pt x="-800" y="-490" on="1"/>
        <pt x="-1000" y="-650" on="1"/>
        <pt x="-1000" y="-426" on="1"/>
        <pt x="-1120" y="-518" on="1"/>
        <pt x="-1240" y="-610" on="0"/>
        <pt x="-1326" y="-610" on="1"/>
        <pt x="-1412" y="-610" on="0"/>
        <pt x="-1506" y="-556" on="1"/>
        <pt x="-1600" y="-502" on="0"/>
        <pt x="-1600" y="-421" on="1"/>
        <pt x="-1600" y="-284" on="0"/>
        <pt x="-1386" y="-256" on="1"/>
        <pt x="-1173" y="-228" on="0"/>
        <pt x="-1173" y="-50" on="1"/>
      </contour>
    </TTGlyph>
    <TTGlyph name="glyph240" xMin="-1600" yMin="-650" xMax="-800" yMax="-50">
      <contour>
        <pt x="-1121" y="-344" on="1"/>
        <pt x="-1250" y="-393" on="0"/>
        <pt x="-1404" y="-410" on="1"/>
        <pt x="-1332" y="-505" on="0"/>
        <pt x="-1246" y="-505" on="1"/>
        <pt x="-1244" y="-505" on="1"/>
        <pt x="-1157" y="-504" on="0"/>
        <pt x="-1132" y="-392" on="1"/>
      </contour>
      <contour>
        <pt x="-1070" y="-324" on="1"/>
        <pt x="-1042" y="-357" on="1"/>
        <pt x="-985" y="-423" on="0"/>
        <pt x="-949" y="-423" on="1"/>
        <pt x="-943" y="-423" on="0"/>
        <pt x="-938" y="-421" on="1"/>
        <pt x="-900" y="-410" on="0"/>
        <pt x="-900" y="-307" on="1"/>
        <pt x="-900" y="-224" on="1"/>
        <pt x="-978" y="-283" on="0"/>
      </contour>
      <contour>
        <pt x="-825" y="-160" on="1"/>
        <pt x="-800" y="-190" on="0"/>
        <pt x="-800" y="-221" on="1"/>
        <pt x="-800" y="-534" on="0"/>
        <pt x="-903" y="-564" on="1"/>
        <pt x="-933" y="-573" on="0"/>
        <pt x="-961" y="-573" on="1"/>
        <pt x="-1031" y="-573" on="0"/>
        <pt x="-1089" y="-518" on="1"/>
        <pt x="-1191" y="-650" on="0"/>
        <pt x="-1327" y="-650" on="1"/>
        <pt x="-1464" y="-650" on="0"/>
        <pt x="-1532" y="-579" on="1"/>
        <pt x="-1600" y="-510" on="0"/>
        <pt x="-1600" y="-421" on="1"/>
        <pt x="-1600" y="-332" on="0"/>
        <pt x="-1472" y="-317" on="1"/>
        <pt x="-1281" y="-295" on="0"/>
        <pt x="-1138" y="-228" on="1"/>
        <pt x="-995" y="-161" on="0"/>
        <pt x="-900" y="-50" on="1"/>
        <pt x="-800" y="-135" on="1"/>
        <pt x="-812" y="-147" on="0"/>
      </contour>
    </TTGlyph>
    <TTGlyph name="glyph241" xMin="-1600" yMin="-650" xMax="-650" yMax="-100">
      <contour>
        <pt x="-1000" y="-194" on="1"/>
        <pt x="-1250" y="-194" on="1"/>
        <pt x="-1400" y="-194" on="0"/>
        <pt x="-1400" y="-289" on="1"/>
        <pt x="-1400" y="-403" on="0"/>
        <pt x="-1300" y="-403" on="1"/>
        <pt x="-1187" y="-403" on="0"/>
        <pt x="-1083" y="-346" on="1"/>
        <pt x="-1042" y="-323" on="0"/>
        <pt x="-1000" y="-309" on="1"/>
      </contour>
      <contour>
        <pt x="-800" y="-479" on="1"/>
        <pt x="-774" y="-431" on="1"/>
        <pt x="-800" y="-431" on="1"/>
      </contour>
      <contour>
        <pt x="-800" y="-289" on="1"/>
        <pt x="-765" y="-289" on="1"/>
        <pt x="-700" y="-289" on="0"/>
        <pt x="-700" y="-413" on="1"/>
        <pt x="-700" y="-539" on="0"/>
        <pt x="-764" y="-594" on="1"/>
        <pt x="-829" y="-650" on="1"/>
        <pt x="-1000" y="-574" on="1"/>
        <pt x="-999" y="-436" on="1"/>
        <pt x="-1122" y="-446" on="0"/>
        <pt x="-1172" y="-479" on="1"/>
        <pt x="-1245" y="-526" on="0"/>
        <pt x="-1300" y="-526" on="1"/>
        <pt x="-1450" y="-526" on="0"/>
        <pt x="-1525" y="-466" on="1"/>
        <pt x="-1600" y="-408" on="0"/>
        <pt x="-1600" y="-289" on="1"/>
        <pt x="-1600" y="-194" on="0"/>
        <pt x="-1512" y="-147" on="1"/>
        <pt x="-1425" y="-100" on="0"/>
        <pt x="-1250" y="-100" on="1"/>
        <pt x="-650" y="-100" on="1"/>
        <pt x="-700" y="-194" on="1"/>
        <pt x="-800" y="-194" on="1"/>
      </contour>
    </TTGlyph>
    <TTGlyph name="glyph242" xMin="-1600" yMin="-650" xMax="-800" yMax="-50">
      <contour>
        <pt x="-1000" y="-221" on="1"/>
        <pt x="-1000" y="-177" on="1"/>
        <pt x="-1000" y="-150" on="0"/>
        <pt x="-1025" y="-150" on="1"/>
        <pt x="-1075" y="-150" on="0"/>
        <pt x="-1075" y="-187" on="1"/>
        <pt x="-1075" y="-221" on="0"/>
      </contour>
      <contour>
        <pt x="-800" y="-521" on="1"/>
        <pt x="-800" y="-567" on="0"/>
        <pt x="-851" y="-608" on="1"/>
        <pt x="-902" y="-650" on="0"/>
        <pt x="-1000" y="-650" on="1"/>
        <pt x="-1117" y="-650" on="0"/>
        <pt x="-1156" y="-612" on="1"/>
        <pt x="-1274" y="-500" on="1"/>
        <pt x="-1353" y="-574" on="1"/>
        <pt x="-1432" y="-650" on="0"/>
        <pt x="-1466" y="-650" on="1"/>
        <pt x="-1500" y="-650" on="0"/>
        <pt x="-1550" y="-609" on="1"/>
        <pt x="-1600" y="-569" on="0"/>
        <pt x="-1600" y="-521" on="1"/>
        <pt x="-1600" y="-210" on="1"/>
        <pt x="-1400" y="-50" on="1"/>
        <pt x="-1400" y="-514" on="1"/>
        <pt x="-1200" y="-323" on="1"/>
        <pt x="-1000" y="-514" on="1"/>
        <pt x="-1000" y="-307" on="1"/>
        <pt x="-1100" y="-307" on="0"/>
        <pt x="-1150" y="-276" on="1"/>
        <pt x="-1200" y="-246" on="0"/>
        <pt x="-1200" y="-185" on="1"/>
        <pt x="-1200" y="-117" on="0"/>
        <pt x="-1156" y="-83" on="1"/>
        <pt x="-1112" y="-50" on="0"/>
        <pt x="-1025" y="-50" on="1"/>
        <pt x="-900" y="-50" on="0"/>
        <pt x="-850" y="-89" on="1"/>
        <pt x="-800" y="-129" on="0"/>
        <pt x="-800" y="-174" on="1"/>
      </contour>
    </TTGlyph>
    <TTGlyph name="glyph243" xMin="-1600" yMin="-650" xMax="-800" yMax="-50">
      <contour>
        <pt x="-1300" y="-530" on="1"/>
        <pt x="-1233" y="-483" on="0"/>
        <pt x="-1233" y="-457" on="1"/>
        <pt x="-1233" y="-440" on="0"/>
        <pt x="-1267" y="-440" on="1"/>
        <pt x="-1300" y="-440" on="1"/>
      </contour>
      <contour>
        <pt x="-800" y="-571" on="1"/>
        <pt x="-893" y="-650" on="1"/>
        <pt x="-1000" y="-650" on="1"/>
        <pt x="-1000" y="-154" on="1"/>
        <pt x="-1048" y="-154" on="1"/>
        <pt x="-1130" y="-154" on="0"/>
        <pt x="-1240" y="-239" on="1"/>
        <pt x="-1233" y="-218" on="1"/>
        <pt x="-1228" y="-202" on="0"/>
        <pt x="-1228" y="-189" on="1"/>
        <pt x="-1228" y="-154" on="0"/>
        <pt x="-1269" y="-154" on="1"/>
        <pt x="-1491" y="-154" on="1"/>
        <pt x="-1518" y="-198" on="1"/>
        <pt x="-1420" y="-209" on="0"/>
        <pt x="-1362" y="-236" on="1"/>
        <pt x="-1300" y="-262" on="0"/>
        <pt x="-1300" y="-303" on="1"/>
        <pt x="-1300" y="-362" on="1"/>
        <pt x="-1267" y="-362" on="1"/>
        <pt x="-1198" y="-362" on="0"/>
        <pt x="-1164" y="-380" on="1"/>
        <pt x="-1129" y="-397" on="0"/>
        <pt x="-1129" y="-430" on="1"/>
        <pt x="-1129" y="-493" on="0"/>
        <pt x="-1246" y="-571" on="1"/>
        <pt x="-1365" y="-650" on="1"/>
        <pt x="-1393" y="-650" on="1"/>
        <pt x="-1500" y="-596" on="1"/>
        <pt x="-1500" y="-337" on="1"/>
        <pt x="-1500" y="-305" on="0"/>
        <pt x="-1600" y="-295" on="1"/>
        <pt x="-1600" y="-187" on="1"/>
        <pt x="-1507" y="-50" on="1"/>
        <pt x="-1232" y="-50" on="1"/>
        <pt x="-1168" y="-50" on="0"/>
        <pt x="-1168" y="-118" on="1"/>
        <pt x="-1099" y="-50" on="0"/>
        <pt x="-1041" y="-50" on="1"/>
        <pt x="-800" y="-50" on="1"/>
      </contour>
    </TTGlyph>
    <TTGlyph name="glyph244" xMin="-1600" yMin="-650" xMax="-800" yMax="-50">
      <contour>
        <pt x="-1397" y="-650" on="0"/>
        <pt x="-1498" y="-616" on="1"/>
        <pt x="-1600" y="-583" on="0"/>
        <pt x="-1600" y="-502" on="1"/>
        <pt x="-1600" y="-438" on="0"/>
        <pt x="-1500" y="-415" on="1"/>
        <pt x="-1500" y="-485" on="0"/>
        <pt x="-1400" y="-518" on="1"/>
        <pt x="-1343" y="-536" on="0"/>
        <pt x="-1309" y="-536" on="1"/>
        <pt x="-1292" y="-536" on="0"/>
        <pt x="-1281" y="-531" on="1"/>
        <pt x="-1250" y="-518" on="0"/>
        <pt x="-1250" y="-489" on="1"/>
        <pt x="-1250" y="-463" on="0"/>
        <pt x="-1294" y="-427" on="1"/>
        <pt x="-1337" y="-390" on="0"/>
        <pt x="-1425" y="-362" on="1"/>
        <pt x="-1512" y="-332" on="0"/>
        <pt x="-1556" y="-287" on="1"/>
        <pt x="-1600" y="-242" on="0"/>
        <pt x="-1600" y="-192" on="1"/>
        <pt x="-1600" y="-164" on="0"/>
        <pt x="-1425" y="-106" on="1"/>
        <pt x="-1250" y="-50" on="0"/>
        <pt x="-1200" y="-50" on="1"/>
        <pt x="-1150" y="-50" on="0"/>
        <pt x="-1041" y="-86" on="1"/>
        <pt x="-800" y="-164" on="0"/>
        <pt x="-800" y="-221" on="1"/>
        <pt x="-800" y="-478" on="1"/>
        <pt x="-1000" y="-650" on="1"/>
        <pt x="-1000" y="-249" on="1"/>
        <pt x="-1000" y="-230" on="0"/>
        <pt x="-1138" y="-184" on="1"/>
        <pt x="-1277" y="-139" on="0"/>
        <pt x="-1314" y="-139" on="1"/>
        <pt x="-1351" y="-139" on="0"/>
        <pt x="-1375" y="-147" on="1"/>
        <pt x="-1400" y="-156" on="0"/>
        <pt x="-1400" y="-192" on="1"/>
        <pt x="-1400" y="-238" on="0"/>
        <pt x="-1337" y="-259" on="1"/>
        <pt x="-1244" y="-289" on="0"/>
        <pt x="-1197" y="-338" on="1"/>
        <pt x="-1150" y="-387" on="0"/>
        <pt x="-1150" y="-455" on="1"/>
        <pt x="-1150" y="-489" on="1"/>
        <pt x="-1150" y="-552" on="0"/>
        <pt x="-1215" y="-601" on="1"/>
        <pt x="-1280" y="-650" on="0"/>
        <pt x="-1338" y="-650" on="1"/>
      </contour>
    </TTGlyph>
    <TTGlyph name="glyph245" xMin="-1700" yMin="-650" xMax="-700" yMax="-100">
      <contour>
        <pt x="-800" y="-470" on="1"/>
        <pt x="-773" y="-450" on="1"/>
        <pt x="-800" y="-450" on="1"/>
      </contour>
      <contour>
        <pt x="-1000" y="-200" on="1"/>
        <pt x="-950" y="-150" on="1"/>
        <pt x="-900" y="-100" on="0"/>
        <pt x="-850" y="-100" on="1"/>
        <pt x="-800" y="-100" on="0"/>
        <pt x="-800" y="-150" on="1"/>
        <pt x="-800" y="-300" on="1"/>
        <pt x="-700" y="-300" on="1"/>
        <pt x="-700" y="-450" on="1"/>
        <pt x="-700" y="-533" on="0"/>
        <pt x="-763" y="-591" on="1"/>
        <pt x="-828" y="-650" on="1"/>
        <pt x="-1000" y="-550" on="1"/>
        <pt x="-1000" y="-450" on="1"/>
        <pt x="-1100" y="-450" on="1"/>
        <pt x="-1200" y="-450" on="0"/>
        <pt x="-1264" y="-550" on="1"/>
        <pt x="-1328" y="-650" on="0"/>
        <pt x="-1375" y="-650" on="1"/>
        <pt x="-1423" y="-650" on="0"/>
        <pt x="-1482" y="-577" on="1"/>
        <pt x="-1541" y="-504" on="0"/>
        <pt x="-1620" y="-462" on="1"/>
        <pt x="-1700" y="-421" on="0"/>
        <pt x="-1700" y="-384" on="1"/>
        <pt x="-1500" y="-250" on="0"/>
        <pt x="-1398" y="-250" on="1"/>
        <pt x="-1480" y="-316" on="0"/>
        <pt x="-1480" y="-343" on="1"/>
        <pt x="-1480" y="-370" on="0"/>
        <pt x="-1356" y="-480" on="0"/>
        <pt x="-1329" y="-480" on="1"/>
        <pt x="-1303" y="-480" on="0"/>
        <pt x="-1241" y="-390" on="1"/>
        <pt x="-1180" y="-300" on="0"/>
        <pt x="-1100" y="-300" on="1"/>
        <pt x="-1000" y="-300" on="1"/>
      </contour>
    </TTGlyph>
    <TTGlyph name="glyph246" xMin="-1700" yMin="-647" xMax="-700" yMax="-60">
      <contour>
        <pt x="-757" y="-400" on="1"/>
        <pt x="-815" y="-540" on="0"/>
        <pt x="-930" y="-621" on="1"/>
        <pt x="-963" y="-644" on="0"/>
        <pt x="-1014" y="-647" on="1"/>
        <pt x="-1020" y="-647" on="1"/>
        <pt x="-1106" y="-647" on="0"/>
        <pt x="-1261" y="-465" on="1"/>
        <pt x="-1341" y="-371" on="1"/>
        <pt x="-1421" y="-277" on="0"/>
        <pt x="-1524" y="-275" on="1"/>
        <pt x="-1528" y="-275" on="1"/>
        <pt x="-1602" y="-275" on="0"/>
        <pt x="-1606" y="-357" on="1"/>
        <pt x="-1606" y="-365" on="1"/>
        <pt x="-1606" y="-444" on="0"/>
        <pt x="-1526" y="-486" on="1"/>
        <pt x="-1455" y="-523" on="0"/>
        <pt x="-1371" y="-523" on="1"/>
        <pt x="-1358" y="-523" on="0"/>
        <pt x="-1344" y="-522" on="1"/>
        <pt x="-1418" y="-638" on="0"/>
        <pt x="-1528" y="-646" on="1"/>
        <pt x="-1539" y="-646" on="1"/>
        <pt x="-1602" y="-646" on="0"/>
        <pt x="-1649" y="-598" on="1"/>
        <pt x="-1700" y="-544" on="0"/>
        <pt x="-1700" y="-417" on="1"/>
        <pt x="-1700" y="-291" on="0"/>
        <pt x="-1620" y="-203" on="1"/>
        <pt x="-1541" y="-116" on="0"/>
        <pt x="-1446" y="-109" on="1"/>
        <pt x="-1435" y="-109" on="1"/>
        <pt x="-1344" y="-109" on="0"/>
        <pt x="-1224" y="-236" on="1"/>
        <pt x="-1136" y="-334" on="1"/>
        <pt x="-1057" y="-426" on="0"/>
        <pt x="-1003" y="-477" on="1"/>
        <pt x="-922" y="-470" on="0"/>
        <pt x="-889" y="-431" on="1"/>
        <pt x="-850" y="-385" on="0"/>
        <pt x="-850" y="-311" on="1"/>
        <pt x="-850" y="-237" on="0"/>
        <pt x="-895" y="-161" on="1"/>
        <pt x="-700" y="-60" on="1"/>
        <pt x="-700" y="-259" on="0"/>
      </contour>
    </TTGlyph>
    <TTGlyph name="glyph247" xMin="-1600" yMin="-650" xMax="-800" yMax="-50">
      <contour>
        <pt x="-1352" y="-255" on="1"/>
        <pt x="-1295" y="-271" on="0"/>
        <pt x="-1242" y="-271" on="1"/>
        <pt x="-1201" y="-271" on="0"/>
        <pt x="-1163" y="-261" on="1"/>
        <pt x="-1075" y="-240" on="0"/>
        <pt x="-1000" y="-143" on="1"/>
        <pt x="-800" y="-50" on="1"/>
        <pt x="-800" y="-310" on="0"/>
        <pt x="-944" y="-480" on="1"/>
        <pt x="-1088" y="-650" on="0"/>
        <pt x="-1238" y="-650" on="1"/>
        <pt x="-1389" y="-650" on="0"/>
        <pt x="-1494" y="-588" on="1"/>
        <pt x="-1600" y="-526" on="0"/>
        <pt x="-1600" y="-461" on="1"/>
        <pt x="-1600" y="-396" on="0"/>
        <pt x="-1526" y="-312" on="1"/>
        <pt x="-1471" y="-248" on="0"/>
        <pt x="-1399" y="-248" on="1"/>
        <pt x="-1377" y="-248" on="0"/>
      </contour>
      <contour>
        <pt x="-1499" y="-374" on="1"/>
        <pt x="-1504" y="-379" on="0"/>
        <pt x="-1504" y="-385" on="1"/>
        <pt x="-1504" y="-409" on="0"/>
        <pt x="-1418" y="-441" on="1"/>
        <pt x="-1312" y="-481" on="0"/>
        <pt x="-1209" y="-481" on="1"/>
        <pt x="-1107" y="-481" on="0"/>
        <pt x="-1031" y="-422" on="1"/>
        <pt x="-968" y="-375" on="0"/>
        <pt x="-968" y="-305" on="1"/>
        <pt x="-968" y="-290" on="0"/>
        <pt x="-971" y="-274" on="1"/>
        <pt x="-1027" y="-328" on="0"/>
        <pt x="-1134" y="-368" on="1"/>
        <pt x="-1195" y="-390" on="0"/>
        <pt x="-1259" y="-390" on="1"/>
        <pt x="-1308" y="-390" on="0"/>
        <pt x="-1358" y="-377" on="1"/>
        <pt x="-1420" y="-361" on="0"/>
        <pt x="-1455" y="-361" on="1"/>
        <pt x="-1488" y="-361" on="0"/>
      </contour>
    </TTGlyph>
    <TTGlyph name="glyph248" xMin="-1700" yMin="-650" xMax="-699" yMax="-50">
      <contour>
        <pt x="-1584" y="-50" on="0"/>
        <pt x="-1538" y="-74" on="1"/>
        <pt x="-1491" y="-100" on="0"/>
        <pt x="-1491" y="-153" on="1"/>
        <pt x="-1491" y="-389" on="1"/>
        <pt x="-1491" y="-416" on="0"/>
        <pt x="-1508" y="-430" on="1"/>
        <pt x="-1508" y="-452" on="0"/>
        <pt x="-1429" y="-491" on="1"/>
        <pt x="-1304" y="-544" on="0"/>
        <pt x="-1272" y="-544" on="1"/>
        <pt x="-1241" y="-544" on="0"/>
        <pt x="-1221" y="-535" on="1"/>
        <pt x="-1199" y="-525" on="0"/>
        <pt x="-1199" y="-449" on="1"/>
        <pt x="-1199" y="-382" on="1"/>
        <pt x="-1199" y="-342" on="0"/>
        <pt x="-1301" y="-329" on="1"/>
        <pt x="-1341" y="-325" on="0"/>
        <pt x="-1341" y="-299" on="1"/>
        <pt x="-1341" y="-272" on="0"/>
        <pt x="-1320" y="-232" on="1"/>
        <pt x="-1224" y="-50" on="1"/>
        <pt x="-699" y="-50" on="1"/>
        <pt x="-699" y="-549" on="1"/>
        <pt x="-824" y="-650" on="1"/>
        <pt x="-865" y="-650" on="1"/>
        <pt x="-865" y="-182" on="1"/>
        <pt x="-1210" y="-182" on="1"/>
        <pt x="-1226" y="-204" on="1"/>
        <pt x="-1137" y="-220" on="0"/>
        <pt x="-1085" y="-253" on="1"/>
        <pt x="-1032" y="-287" on="0"/>
        <pt x="-1032" y="-340" on="1"/>
        <pt x="-1032" y="-449" on="1"/>
        <pt x="-1032" y="-516" on="0"/>
        <pt x="-1181" y="-583" on="1"/>
        <pt x="-1332" y="-650" on="0"/>
        <pt x="-1374" y="-650" on="1"/>
        <pt x="-1417" y="-650" on="0"/>
        <pt x="-1510" y="-607" on="1"/>
        <pt x="-1571" y="-574" on="0"/>
        <pt x="-1623" y="-535" on="1"/>
        <pt x="-1674" y="-495" on="0"/>
        <pt x="-1700" y="-432" on="1"/>
        <pt x="-1674" y="-423" on="0"/>
        <pt x="-1658" y="-396" on="0"/>
        <pt x="-1658" y="-376" on="1"/>
        <pt x="-1658" y="-196" on="1"/>
        <pt x="-1658" y="-161" on="0"/>
        <pt x="-1700" y="-146" on="1"/>
        <pt x="-1700" y="-97" on="1"/>
        <pt x="-1700" y="-50" on="0"/>
        <pt x="-1642" y="-50" on="1"/>
      </contour>
    </TTGlyph>
</ttFont>
